<?xml version="1.0" encoding="utf-8"?>
<!-- Generator: Adobe Illustrator 27.3.1, SVG Export Plug-In . SVG Version: 6.00 Build 0)  -->
<svg version="1.1" id="Layer_1" xmlns="http://www.w3.org/2000/svg" xmlns:xlink="http://www.w3.org/1999/xlink" x="0px" y="0px"
	 viewBox="0 0 356.7 119.4" style="enable-background:new 0 0 356.7 119.4;" xml:space="preserve">
<style type="text/css">
	.st0{fill-rule:evenodd;clip-rule:evenodd;fill:#003181;}
	.st1{fill:#FFFFFF;}
	.st2{fill-rule:evenodd;clip-rule:evenodd;fill:#FFFFFF;}
	.st3{fill-rule:evenodd;clip-rule:evenodd;fill:#2562BE;}
	.st4{fill-rule:evenodd;clip-rule:evenodd;fill:#CA6600;}
	.st5{fill:#003181;}
	.st6{fill:none;stroke:#003181;stroke-width:0.2732;stroke-miterlimit:2.613;}
	.st7{fill:none;stroke:#FFFFFF;stroke-width:5.901038e-02;stroke-miterlimit:2.613;}
	.st8{fill:none;}
	.st9{fill:#003185;}
</style>
<g>
	<g>
		<path class="st0" d="M60.9,19.2c22.8,0,41.4,18.1,41.4,40.5s-18.5,40.5-41.4,40.5c-22.8,0-41.4-18.1-41.4-40.5S38,19.2,60.9,19.2
			 M60.9,3.7c31.6,0,57.1,25.1,57.1,56s-25.6,56-57.1,56S3.7,90.6,3.7,59.7S29.3,3.7,60.9,3.7"/>
		<path class="st1" d="M113.6,55.4l0.3,0.8l-5.2,0.1c-0.6,0-0.9,0.1-1,0.4c-0.3-0.1-0.5-0.3-0.5-0.6c0-0.4,0.3-0.6,1-0.6L113.6,55.4
			z M107.1,53.6l3.7-0.2l0-0.4l0.9,0l0.1,1.3l-4.6,0.2L107.1,53.6z M113.6,53.7c0,0.1-0.1,0.2-0.2,0.3c-0.1,0.1-0.3,0.2-0.4,0.2
			c-0.2,0-0.3,0-0.4-0.1c-0.1-0.1-0.2-0.2-0.2-0.3c0-0.1,0-0.2,0.2-0.3c0.1-0.1,0.3-0.2,0.4-0.2c0.2,0,0.3,0,0.4,0.1
			C113.5,53.5,113.5,53.6,113.6,53.7 M111.3,52.3l-0.8-0.3c0.2-0.2,0.3-0.5,0.3-0.8c0-0.3-0.2-0.5-0.5-0.7c-0.3-0.1-0.7-0.2-1.2-0.1
			c-1,0.1-1.4,0.5-1.3,1.2c0,0.3,0.2,0.5,0.5,0.7l-0.8,0.4c-0.2-0.2-0.4-0.4-0.4-0.6c-0.1-0.2-0.1-0.4-0.2-0.6
			c-0.1-0.5,0.1-1,0.5-1.3c0.4-0.4,0.9-0.6,1.7-0.6c0.7-0.1,1.3,0,1.8,0.3c0.5,0.3,0.8,0.7,0.8,1.3C111.7,51.6,111.5,52,111.3,52.3
			 M106.4,48.3l2.6-0.5c0.4-0.1,0.7-0.2,0.8-0.3c0.2-0.1,0.2-0.3,0.1-0.6c0-0.1-0.1-0.2-0.2-0.3c-0.1-0.1-0.2-0.2-0.4-0.2l-3.3,0.6
			l-0.2-0.8l4.5-0.9l0.1,0.6l-0.4,0.2c0.4,0.2,0.6,0.4,0.7,0.9c0.1,0.4,0,0.8-0.3,1c-0.3,0.3-0.7,0.5-1.3,0.6l-2.8,0.5L106.4,48.3z
			 M105.4,44.6l0.4-0.1c-0.2-0.1-0.3-0.2-0.5-0.4c-0.2-0.2-0.3-0.3-0.3-0.5c-0.3-0.8,0.1-1.3,1.2-1.6l2.8-0.9l0.3,0.8l-2.8,0.8
			c-0.6,0.2-0.8,0.4-0.6,0.8c0.1,0.2,0.2,0.3,0.4,0.4c0.2,0.1,0.3,0.2,0.5,0.2l3-0.9L110,44l-4.4,1.3L105.4,44.6z M105.4,38.7
			c-0.9,0.4-1.3,0.8-1,1.3c0.1,0.2,0.3,0.4,0.6,0.4c0.3,0,0.7,0,1.1-0.2c0.9-0.4,1.3-0.8,1-1.3c-0.1-0.2-0.3-0.4-0.6-0.4
			C106.2,38.4,105.9,38.5,105.4,38.7 M105.1,37.9c0.6-0.3,1.2-0.3,1.8-0.2c0.5,0.1,0.9,0.4,1.1,0.8c0.2,0.5,0.2,0.9,0,1.4
			c-0.3,0.4-0.7,0.8-1.4,1.1c-0.7,0.3-1.3,0.4-1.8,0.3c-0.5-0.1-0.9-0.4-1.1-0.9c-0.2-0.5-0.2-0.9,0.1-1.4
			C103.9,38.5,104.4,38.2,105.1,37.9 M108,35.5l-1,0.1c0.1-0.3,0.1-0.6-0.2-1c-0.2-0.3-0.6-0.5-1.1-0.5c-0.5,0-1.1,0.1-1.7,0.5
			c-0.6,0.3-1,0.7-1.2,1.1c-0.2,0.4-0.2,0.7,0,1.1c0.2,0.4,0.6,0.6,1.1,0.6l-0.6,0.8c-0.6-0.1-1.1-0.4-1.5-1
			c-0.4-0.6-0.4-1.2-0.1-1.7c0.3-0.6,0.9-1.1,1.8-1.6c0.8-0.4,1.6-0.6,2.4-0.6c0.8,0.1,1.3,0.4,1.7,0.9
			C107.9,34.6,108.1,35.1,108,35.5 M98.9,32.4l2.3-1.6c0.2-0.2,0.4-0.3,0.4-0.5c0.1-0.2,0-0.4-0.1-0.6c-0.1-0.1-0.2-0.2-0.4-0.2
			c-0.2-0.1-0.3-0.1-0.5,0l-2.7,1.8l-0.5-0.7l5.1-3.5l0.7,0.5l-1.8,1.3c0.3,0,0.6,0.2,0.9,0.5c0.3,0.3,0.4,0.7,0.3,1.1
			c-0.1,0.4-0.4,0.7-0.9,1.1L99.4,33L98.9,32.4z M100.1,27.4l-0.8,0.2c0-0.3-0.1-0.5-0.3-0.8c-0.2-0.2-0.5-0.3-0.8-0.3
			c-0.3,0-0.7,0.2-1,0.5c-0.7,0.6-0.8,1.2-0.3,1.7c0.2,0.2,0.5,0.3,0.9,0.3l-0.4,0.7c-0.3-0.1-0.6-0.1-0.7-0.2
			c-0.2-0.1-0.3-0.2-0.5-0.4c-0.4-0.4-0.5-0.8-0.5-1.3c0.1-0.5,0.4-1,0.9-1.4c0.5-0.5,1.1-0.7,1.7-0.7c0.6,0,1.1,0.2,1.5,0.6
			C99.9,26.6,100.1,27,100.1,27.4 M96.8,25c0-0.2-0.1-0.3-0.2-0.5c-0.1-0.1-0.4-0.2-0.6-0.1c-0.3,0-0.5,0.2-0.7,0.4l-1.8,1.8
			L92.8,26L96,23l0.6,0.6l-0.3,0.3c0.4-0.1,0.8,0,1.1,0.3c0.2,0.2,0.3,0.4,0.4,0.6L96.8,25z M92.8,23.4c-0.1-0.1-0.2-0.2-0.2-0.2
			c-0.5-0.4-1-0.4-1.3,0c-0.3,0.3-0.2,0.6,0.1,0.8c0.4,0.3,0.8,0.2,1.2-0.2L92.8,23.4z M91.8,24.7c-0.2,0.1-0.4,0.1-0.6,0
			c-0.2,0-0.4-0.1-0.6-0.3c-0.3-0.2-0.5-0.5-0.5-0.8c0-0.3,0.1-0.6,0.4-1c0.3-0.4,0.7-0.6,1.2-0.6c0.4,0,0.9,0.1,1.4,0.5
			c0.1,0.1,0.2,0.1,0.2,0.3c0.3-0.4,0.3-0.7-0.1-1.1c-0.3-0.2-0.5-0.3-0.8-0.3l0.4-0.7c0.3,0.1,0.7,0.2,1,0.4
			c0.4,0.3,0.7,0.7,0.7,1.1c0,0.4-0.3,0.9-0.9,1.5L93,24.4c-0.4,0.4-0.6,0.8-0.5,1c-0.2,0.1-0.3,0.1-0.4,0.1c-0.1,0-0.2-0.1-0.3-0.1
			c-0.1-0.1-0.1-0.2-0.2-0.3C91.7,24.9,91.7,24.8,91.8,24.7 M88.6,19.8l1.5,0.9c0.3-0.6,0.3-1-0.2-1.2
			C89.5,19.2,89.1,19.3,88.6,19.8 M90.4,21.7l-2.2-1.4c-0.2,0.3-0.3,0.6-0.2,0.8c0,0.3,0.2,0.5,0.5,0.6c0.3,0.2,0.7,0.3,1,0.2
			l-0.2,0.8c-0.4,0.1-0.9,0-1.4-0.3c-0.5-0.3-0.7-0.7-0.8-1.2c-0.1-0.5,0.1-1,0.5-1.6c0.4-0.6,0.9-0.9,1.4-1.1
			c0.6-0.2,1-0.1,1.5,0.1c0.5,0.3,0.7,0.6,0.8,1.1c0.1,0.5-0.1,1-0.4,1.4C90.7,21.4,90.6,21.5,90.4,21.7 M83.8,19.7l0.7-0.5
			c0.1,0.3,0.3,0.6,0.6,0.7c0.3,0.2,0.5,0.1,0.7-0.1c0.1-0.1,0.1-0.3,0.1-0.4c0-0.1-0.1-0.3-0.3-0.6c-0.4-0.6-0.4-1.1-0.1-1.6
			c0.2-0.3,0.5-0.5,0.8-0.6c0.3-0.1,0.7,0,1,0.2c0.3,0.2,0.6,0.4,0.8,0.8l-0.6,0.5c-0.1-0.2-0.2-0.5-0.5-0.6
			c-0.3-0.1-0.5-0.1-0.6,0.1c-0.1,0.1-0.1,0.2,0,0.3c0,0.1,0.2,0.3,0.4,0.6c0.2,0.3,0.3,0.5,0.3,0.8c0,0.2-0.1,0.5-0.2,0.8
			c-0.2,0.3-0.5,0.6-0.8,0.6c-0.3,0.1-0.7,0-1.1-0.2c-0.2-0.1-0.4-0.2-0.5-0.3C84,20.1,83.9,20,83.8,19.7 M82,16.4l1.7,0.7
			c0.2-0.6,0.1-1-0.4-1.2C82.8,15.8,82.4,15.9,82,16.4 M84,18.2l-2.4-1.1c-0.1,0.3-0.2,0.6-0.1,0.8c0.1,0.2,0.3,0.4,0.6,0.6
			c0.4,0.2,0.7,0.2,1,0L83,19.4c-0.4,0.1-0.9,0.1-1.4-0.2c-0.5-0.2-0.8-0.6-1-1.1c-0.1-0.5,0-1,0.3-1.6c0.3-0.6,0.7-1,1.3-1.3
			c0.5-0.2,1-0.2,1.5,0c0.5,0.2,0.8,0.6,0.9,1c0.1,0.5,0,1-0.2,1.5C84.3,17.8,84.2,18,84,18.2 M78.7,12.7l-0.6,1.5
			c0.2,0.1,0.3,0.1,0.4,0.1c0.4,0.1,0.6,0.1,0.9,0.1c0.2-0.1,0.4-0.3,0.5-0.6c0.1-0.3,0.1-0.5-0.1-0.7c-0.1-0.2-0.4-0.3-0.8-0.4
			C78.9,12.7,78.8,12.7,78.7,12.7 M78.8,17.9l-0.5-2.7c-0.1,0-0.3-0.1-0.5-0.2L77,17.3L76.1,17l2.1-5.5c0,0,0.2,0.1,0.6,0.1
			c0.3,0.1,0.6,0.2,0.8,0.2c1.2,0.4,1.7,1.1,1.2,2.2c-0.1,0.3-0.3,0.6-0.6,0.8c-0.3,0.2-0.6,0.3-0.9,0.4l0.5,2.9L78.8,17.9z
			 M73.5,10.3l0.9,0l-1.2,4.7c-0.1,0.5-0.1,0.8,0.2,1c-0.2,0.3-0.5,0.4-0.8,0.3c-0.4-0.1-0.5-0.4-0.3-1L73.5,10.3z M71.2,9.9
			l0.9-0.1l-1,4.7c-0.1,0.5,0,0.8,0.2,1c-0.2,0.3-0.5,0.4-0.8,0.3c-0.4-0.1-0.5-0.4-0.4-1L71.2,9.9z M67.9,15.4l0.5-3.4l-0.5-0.1
			l0.1-0.8l1.4,0.2l-0.6,4.2L67.9,15.4z M69.2,9.6c0.1,0,0.3,0.1,0.3,0.2c0.1,0.1,0.1,0.3,0.1,0.4c0,0.2-0.1,0.3-0.2,0.4
			c-0.1,0.1-0.2,0.1-0.4,0.1c-0.1,0-0.3-0.1-0.3-0.2c-0.1-0.1-0.1-0.3-0.1-0.4c0-0.2,0.1-0.3,0.2-0.4C68.9,9.6,69,9.6,69.2,9.6
			 M66.1,15.2l-1-2l-0.4,0.5l-0.1,1.4l-0.9,0L64,9.3l0.9-0.2l-0.2,3.5l1.3-1.6l1.1,0l-1.3,1.6l1.4,2.7L66.1,15.2z M59.8,14.8
			l0.3-0.9c0.4,0.3,0.7,0.4,1.1,0.4c0.5,0,0.8-0.2,0.8-0.7c0-0.2-0.1-0.4-0.2-0.6c-0.1-0.2-0.4-0.4-0.8-0.6
			c-0.4-0.2-0.7-0.4-0.8-0.5c-0.1-0.1-0.3-0.3-0.3-0.5c-0.1-0.2-0.1-0.4-0.1-0.7c0-0.4,0.1-0.8,0.4-1.1c0.3-0.3,0.7-0.5,1.1-0.5
			c0.6,0,1,0.1,1.3,0.3l-0.3,0.9c-0.3-0.3-0.7-0.4-1-0.4c-0.2,0-0.4,0.1-0.5,0.2c-0.1,0.1-0.2,0.3-0.2,0.5c0,0.3,0.3,0.7,1,1
			c0.3,0.2,0.6,0.4,0.8,0.5c0.2,0.2,0.3,0.3,0.4,0.6c0.1,0.2,0.1,0.4,0.1,0.7c0,0.5-0.1,0.9-0.5,1.2c-0.3,0.3-0.8,0.5-1.3,0.5
			C60.7,15.2,60.2,15.1,59.8,14.8 M55.6,12.2c-0.2-0.1-0.4-0.2-0.6-0.2c-0.3,0.1-0.6,0.2-0.7,0.5c-0.1,0.3-0.2,0.6-0.1,1.1
			c0.2,0.9,0.6,1.2,1.4,1.1c0.1,0,0.2-0.1,0.3-0.1c0.1-0.1,0.2-0.1,0.2-0.2L55.6,12.2z M56.2,15.4l0-0.3c-0.1,0.1-0.2,0.2-0.3,0.3
			c-0.2,0.1-0.3,0.2-0.5,0.2c-0.5,0.1-1,0-1.3-0.4c-0.4-0.3-0.6-0.8-0.7-1.5c-0.1-0.7-0.1-1.2,0.2-1.7c0.3-0.5,0.7-0.8,1.2-0.8
			c0.3,0,0.6,0,0.8,0.1l-0.3-1.7l0.8-0.4l1.1,6L56.2,15.4z M52,16.1l-0.7-2.4c-0.1-0.4-0.2-0.6-0.4-0.7c-0.2-0.1-0.4-0.2-0.7-0.1
			c-0.1,0-0.2,0.1-0.4,0.2c-0.1,0.1-0.2,0.2-0.2,0.4l0.9,3l-0.8,0.2l-1.2-4.1l0.6-0.2l0.3,0.3c0.1-0.4,0.4-0.6,0.9-0.7
			c0.4-0.1,0.8,0,1.2,0.2c0.3,0.2,0.6,0.6,0.7,1.1l0.7,2.5L52,16.1z M47.2,15.3c-0.2,0-0.3,0-0.3,0.1c-0.7,0.2-0.9,0.5-0.7,1
			c0.1,0.4,0.4,0.5,0.8,0.4c0.5-0.2,0.6-0.5,0.4-1.1L47.2,15.3z M47.8,16.8c0,0.2-0.1,0.3-0.3,0.5c-0.2,0.1-0.3,0.3-0.5,0.3
			c-0.4,0.1-0.7,0.1-1,0c-0.3-0.2-0.5-0.4-0.7-0.8c-0.2-0.5-0.1-0.9,0.1-1.2c0.2-0.4,0.6-0.6,1.2-0.8c0.1,0,0.2,0,0.4-0.1
			c-0.2-0.5-0.5-0.6-1-0.5c-0.3,0.1-0.6,0.2-0.7,0.4l-0.4-0.7c0.2-0.2,0.5-0.4,0.9-0.5c0.5-0.2,1-0.1,1.3,0.1
			c0.4,0.2,0.7,0.7,0.9,1.5l0.3,0.9c0.2,0.5,0.4,0.8,0.6,0.9c0,0.2-0.1,0.3-0.1,0.3c-0.1,0.1-0.2,0.1-0.3,0.1c-0.1,0-0.2,0-0.4-0.1
			C48,17,47.9,16.9,47.8,16.8 M42.3,20c0.1,0.3,0,0.6-0.2,0.9c-0.2,0.3-0.5,0.5-0.8,0.7l-0.4-0.8c0.6-0.3,0.8-0.6,0.6-0.9
			c-0.1-0.2-0.4-0.5-0.8-0.9l-2.6-2.5l0.8-0.4l2.3,2.2l-0.6-3l0.8-0.4L42.3,20z M37.2,18.2c-0.3-0.1-0.5,0-0.6,0.1
			c-0.3,0.2-0.5,0.4-0.5,0.7c0,0.3,0.1,0.6,0.3,1c0.5,0.8,1.1,1,1.7,0.6c0.1,0,0.1-0.1,0.2-0.2c0.1-0.1,0.1-0.2,0.1-0.3L37.2,18.2z
			 M39.1,21l-0.1-0.2c0,0.1-0.1,0.2-0.2,0.4c-0.1,0.1-0.2,0.3-0.4,0.3c-0.4,0.3-0.9,0.3-1.4,0.1c-0.5-0.2-0.9-0.6-1.3-1.1
			c-0.4-0.6-0.5-1.1-0.5-1.7c0.1-0.5,0.3-0.9,0.8-1.2c0.2-0.1,0.5-0.2,0.8-0.2l-1-1.5l0.6-0.6l3.4,5.2L39.1,21z M35.5,23.2l-0.2-0.3
			c0,0.2-0.1,0.3-0.2,0.5c-0.1,0.2-0.3,0.3-0.4,0.4c-0.7,0.5-1.4,0.3-2.1-0.5l-1.8-2.2l0.7-0.5l1.7,2.1c0.4,0.4,0.7,0.5,1.1,0.3
			c0.2-0.1,0.3-0.3,0.3-0.4c0.1-0.2,0.1-0.4,0-0.5l-1.9-2.3l0.7-0.5l2.8,3.4L35.5,23.2z M28.9,23.7l-0.3,0.3L28,23.4l0.3-0.3
			l-0.6-0.6l0.4-0.8l0.9,0.9l0.8-0.7l0.6,0.6l-0.8,0.7l1.4,1.4c0.2,0.2,0.4,0.4,0.6,0.4c0.2,0,0.3,0,0.5-0.1
			c0.2-0.1,0.2-0.3,0.3-0.5l0.7,0.7c-0.1,0.2-0.3,0.4-0.5,0.6c-0.3,0.2-0.6,0.3-0.9,0.3c-0.3,0-0.7-0.2-1-0.5L28.9,23.7z M28.4,28.6
			l-0.5-0.9c0.5,0,0.8-0.2,1.1-0.4c0.4-0.4,0.4-0.7,0.1-1c-0.2-0.1-0.3-0.2-0.6-0.3c-0.2,0-0.6,0-1,0.1c-0.4,0.1-0.8,0.1-1,0.1
			c-0.2,0-0.4-0.1-0.6-0.2c-0.2-0.1-0.4-0.2-0.6-0.4c-0.3-0.3-0.5-0.7-0.6-1.1c0-0.4,0.1-0.7,0.4-1c0.4-0.4,0.8-0.6,1.2-0.6l0.5,0.8
			c-0.4,0-0.8,0.2-1,0.4c-0.1,0.1-0.2,0.3-0.2,0.5c0,0.2,0.1,0.3,0.3,0.5c0.3,0.2,0.8,0.3,1.5,0.1c0.4-0.1,0.7-0.1,0.9-0.1
			c0.2,0,0.5,0.1,0.7,0.2c0.2,0.1,0.4,0.2,0.6,0.4c0.4,0.3,0.5,0.7,0.5,1.1c0,0.4-0.2,0.8-0.6,1.2C29.3,28.3,28.9,28.5,28.4,28.6
			 M21.3,27.9l0.3-0.8l4,3c0.4,0.3,0.8,0.4,1.1,0.3c0.2,0.3,0.1,0.5-0.1,0.8c-0.3,0.3-0.6,0.2-1.2-0.2L21.3,27.9z M23.2,31.9
			C23.1,32,23,32.1,23,32.2c-0.4,0.5-0.3,0.9,0.1,1.2c0.3,0.2,0.6,0.2,0.8-0.1c0.3-0.4,0.2-0.8-0.4-1.1L23.2,31.9z M24.7,32.7
			c0.1,0.1,0.1,0.3,0.1,0.5c0,0.2-0.1,0.4-0.2,0.6c-0.2,0.3-0.5,0.5-0.8,0.5c-0.3,0.1-0.7,0-1.1-0.3c-0.4-0.3-0.7-0.6-0.8-1
			c-0.1-0.4,0.1-0.8,0.4-1.3c0.1-0.1,0.1-0.2,0.3-0.3c-0.5-0.3-0.8-0.2-1.1,0.2c-0.2,0.3-0.3,0.5-0.3,0.7l-0.8-0.3
			c0-0.3,0.1-0.6,0.4-1c0.3-0.4,0.7-0.7,1.1-0.7c0.4,0,1,0.2,1.7,0.6l0.8,0.5c0.5,0.3,0.9,0.4,1.1,0.4c0.1,0.1,0.1,0.2,0.1,0.3
			c0,0.1-0.1,0.2-0.1,0.3c-0.1,0.1-0.2,0.2-0.3,0.2C25,32.8,24.8,32.8,24.7,32.7 M19.7,33.3l0.5,0.6c-0.3,0.1-0.5,0.2-0.7,0.5
			c-0.2,0.3-0.2,0.5,0,0.8c0.2,0.3,0.4,0.5,0.9,0.7c0.9,0.4,1.5,0.3,1.8-0.3c0.2-0.3,0.2-0.6,0-0.9l0.9,0.1c0.1,0.3,0.1,0.5,0,0.7
			c0,0.2-0.1,0.4-0.2,0.6c-0.3,0.5-0.7,0.8-1.2,0.9c-0.5,0.1-1.1,0-1.8-0.3c-0.6-0.3-1.1-0.7-1.3-1.2c-0.2-0.5-0.2-1,0.1-1.5
			C19,33.7,19.3,33.5,19.7,33.3 M21.3,39.2l-3.4-1.5l-0.2,0.4l-0.8-0.4l0.6-1.1l4.2,1.8L21.3,39.2z M15.7,36.2
			c0.1-0.1,0.2-0.2,0.3-0.2c0.2,0,0.3,0,0.5,0.1c0.2,0.1,0.3,0.2,0.3,0.3c0.1,0.1,0.1,0.3,0,0.4c-0.1,0.1-0.2,0.2-0.3,0.2
			c-0.2,0-0.3,0-0.5-0.1c-0.2-0.1-0.3-0.2-0.3-0.3C15.6,36.5,15.6,36.4,15.7,36.2 M20.4,40.9l-2.5-0.9c-0.4-0.1-0.7-0.2-0.9-0.1
			c-0.2,0-0.4,0.2-0.5,0.4c0,0.1-0.1,0.2,0,0.4c0,0.2,0.1,0.3,0.2,0.4l3.1,1.2l-0.3,0.7l-4.3-1.6l0.2-0.5l0.5,0
			c-0.2-0.3-0.2-0.7-0.1-1.1c0.2-0.4,0.5-0.6,0.9-0.7c0.4-0.1,0.9,0,1.4,0.2l2.6,1L20.4,40.9z M19,44.5l-2.7-0.8
			c-0.3-0.1-0.5-0.1-0.7,0c-0.2,0.1-0.3,0.2-0.4,0.4c0,0.1,0,0.3,0,0.4c0,0.2,0.1,0.3,0.2,0.4l3.2,0.9l-0.3,0.8L12.2,45l0-0.9
			l2.2,0.6c-0.2-0.3-0.2-0.6-0.1-0.9c0.1-0.4,0.4-0.7,0.8-0.8s0.9-0.1,1.4,0l2.7,0.8L19,44.5z M13.9,46.6l0.7,0.5
			c-0.3,0.1-0.4,0.4-0.5,0.7c-0.1,0.3,0,0.6,0.3,0.8c0.2,0.2,0.6,0.4,1.1,0.5c1,0.2,1.5-0.1,1.6-0.8c0.1-0.3,0-0.6-0.2-0.8l0.9-0.1
			c0.1,0.3,0.2,0.5,0.2,0.7c0,0.2,0,0.4-0.1,0.6c-0.1,0.5-0.4,0.9-0.9,1.1c-0.5,0.2-1.1,0.3-1.8,0.2c-0.7-0.1-1.3-0.4-1.6-0.8
			c-0.4-0.4-0.5-0.9-0.4-1.5C13.3,47.2,13.5,46.9,13.9,46.6 M14.4,52.9l0.2-1.7c-0.7,0-1,0.2-1.1,0.7C13.4,52.4,13.7,52.7,14.4,52.9
			 M15.4,50.5L15.2,53c0.4,0,0.7,0,0.9-0.2c0.2-0.2,0.4-0.4,0.4-0.7c0-0.4-0.1-0.7-0.3-0.9L17,51c0.3,0.3,0.4,0.7,0.3,1.3
			c-0.1,0.5-0.3,0.9-0.8,1.2c-0.4,0.3-1,0.4-1.8,0.3c-0.7-0.1-1.3-0.3-1.7-0.7c-0.4-0.4-0.6-0.8-0.5-1.3c0.1-0.5,0.3-0.9,0.7-1.1
			c0.4-0.3,1-0.4,1.6-0.3C15,50.4,15.2,50.5,15.4,50.5 M11.6,55l5.3,0.2l0,0.8l-5.3-0.2l-0.1,1.5l-1,0l0.2-3.9l1,0L11.6,55z"/>
		<polygon class="st2" points="13.3,59.5 14.3,62.3 17.3,62.3 14.9,64 15.8,66.9 13.3,65.1 10.9,66.9 11.8,64 9.4,62.3 12.4,62.3 		
			"/>
		<polygon class="st2" points="109.7,59.5 110.6,62.3 113.7,62.3 111.2,64 112.2,66.9 109.7,65.1 107.3,66.9 108.2,64 105.7,62.3 
			108.8,62.3 		"/>
		<path class="st0" d="M45.5,53.9l3.5-0.4l0.1-1.8l-4.3,0.5c-1.8,0.5-2.4,1.8-2.3,3.6l0,12.7c0.1,2.2,0.4,3.6,3.1,4L73,77
			c2.6,0.4,4.1-0.4,4.1-3.4l0-21.7c0-2.6-0.9-3.8-3.7-3.5L62,49.7v1.9l11.7-1.7c1.3-0.2,1.8,0.5,1.7,1.8l-0.1,21.7
			c0.1,2.1-1.3,1.9-2.8,1.7l-26.7-4.4c-1.1-0.2-1.5-1.1-1.6-2.6l0-12.3C44.2,54.8,44.5,54.1,45.5,53.9"/>
		<path class="st0" d="M55.1,72.2c-1.5-0.7-2.8-1.6-4-2.8l0.4,2.2L55.1,72.2z"/>
		<path class="st0" d="M72.4,75.2l-5.2-0.8c2.6-0.4,5.6-1.1,8.2-2.1l0,1.7L72.4,75.2z"/>
		<path class="st0" d="M61,71.6c-3.9-0.4-7.3-1.9-10.3-4.6l0-1.2c4.8,5,14.2,5.4,24.5,3.2l0,1.5C70.3,71.7,65.7,72,61,71.6"/>
		<path class="st0" d="M62.3,68.3c-4.8-0.2-8.2-2.1-11.1-4.6l0.2-0.6c3.4,2.7,8.7,4.5,18.2,3.8c1.8-0.2,3.9-0.9,5.8-1.8l-0.1,1.7
			C71.2,68.2,66.8,68.7,62.3,68.3"/>
		<path class="st0" d="M52.5,60.4l-0.5,1.1c6,3.7,13.4,4.8,23.1,1.8L75,62c-3.9,1.5-8.1,1.7-12.3,1.6C58.3,63.3,55.2,62.1,52.5,60.4
			"/>
		<path class="st0" d="M63.7,61.5c-4.7-0.2-7.8-1.3-10.1-2.6l0.7-0.8c4.2,2.2,11.3,3,20.8,0.9v1C71.2,61.3,67.4,61.7,63.7,61.5"/>
		<path class="st0" d="M74.5,56.6C68.2,59,62.1,58.8,56,56.5l1.1-0.8c5.3,1.8,10.7,1.9,16,0L74.5,56.6z"/>
		<path class="st0" d="M70.3,54.4c-3.7-1.3-7.1-1.3-10.3-0.1C63.4,54.8,66.8,54.8,70.3,54.4"/>
		<rect x="50.5" y="52.4" class="st3" width="3.2" height="2.9"/>
		<rect x="53.9" y="49.6" class="st0" width="3.2" height="2.9"/>
		<rect x="58.1" y="48" class="st3" width="3.2" height="2.9"/>
		<rect x="54.9" y="44.9" class="st0" width="2.3" height="2.1"/>
		<path class="st4" d="M37.5,39.4c-2.6-0.3-4,1.1-4.7,3.3C34.9,43.3,36.5,42.5,37.5,39.4 M35.6,43.9c-2.6-0.7-4.1,0.5-5.1,2.6
			C32.4,47.4,34.2,46.8,35.6,43.9 M29.3,41.4c-1.7,2.3-2.3,4.7-1.1,7.2C29.7,47.4,30.4,45.3,29.3,41.4 M32.2,47.6
			c-2.8,0.2-4,1.9-4.3,4.4C30.2,52.2,31.8,51,32.2,47.6 M26.3,46.4c-1.2,2.6-1.2,5.1,0.4,7.2C28,52.1,28.2,50,26.3,46.4 M30.4,52.4
			c-2.7,0.9-3.4,2.8-3.1,5.3C29.5,57.3,30.8,55.8,30.4,52.4 M24,51.5c-0.4,2.8,0.3,5.2,2.5,6.8C27.2,56.5,26.9,54.4,24,51.5
			 M23.5,56.4c-0.3,2.8,0.4,5.2,2.6,6.8C26.8,61.4,26.4,59.3,23.5,56.4 M29.9,57.1c-2.3,1.7-3.6,3.9-3.2,6.5
			C28.4,62.9,29.7,61.2,29.9,57.1 M23.4,62c0.2,2.6,1.1,5.2,3.6,5.6C27.6,65.7,27,63.8,23.4,62 M30.1,61.2c-2,2.1-2.9,4.4-2.1,6.9
			C29.6,67.1,30.6,65.2,30.1,61.2 M24.4,67.7c0.2,2.6,2.4,4.7,4.4,3.9C29,69.4,27,67.6,24.4,67.7 M30.9,65c-1.6,2.4-2,4.8-0.7,7.2
			C31.6,70.9,32.2,68.9,30.9,65 M26.2,73.1c1,2.4,3.5,3.5,5.2,2.1C31.2,72.7,28.9,72,26.2,73.1 M31.9,69.5c-0.5,3.6,0.4,6,1.7,6.1
			C34.7,73,33.6,70.9,31.9,69.5 M28.9,77.1c1.6,2.1,3.1,2,4.6,0C31.9,75.1,30.4,76.1,28.9,77.1 M32.7,37.4c-2,2.1-2.9,4.4-2.1,7
			C32.3,43.4,33.3,41.4,32.7,37.4"/>
		<path class="st4" d="M84.8,39.4c2.6-0.3,4,1.1,4.7,3.3C87.4,43.3,85.8,42.5,84.8,39.4 M86.7,43.9c2.6-0.7,4.1,0.5,5.1,2.6
			C89.9,47.4,88.1,46.8,86.7,43.9 M93,41.4c1.7,2.3,2.3,4.7,1.1,7.2C92.6,47.4,91.9,45.3,93,41.4 M90.1,47.6c2.8,0.2,4,1.9,4.3,4.4
			C92.1,52.2,90.5,51,90.1,47.6 M96,46.4c1.2,2.6,1.2,5.1-0.4,7.2C94.3,52.1,94.1,50,96,46.4 M91.9,52.4c2.7,0.9,3.4,2.8,3.1,5.3
			C92.8,57.3,91.5,55.8,91.9,52.4 M98.3,51.5c0.4,2.8-0.3,5.2-2.5,6.8C95.1,56.5,95.4,54.4,98.3,51.5 M98.8,56.4
			c0.3,2.8-0.4,5.2-2.6,6.8C95.5,61.4,95.9,59.3,98.8,56.4 M92.4,57.1c2.3,1.7,3.6,3.9,3.2,6.5C93.8,62.9,92.6,61.2,92.4,57.1
			 M98.9,62c-0.2,2.6-1.1,5.2-3.6,5.6C94.7,65.7,95.3,63.8,98.9,62 M92.2,61.2c2,2.1,2.9,4.4,2.1,6.9C92.7,67.1,91.7,65.2,92.2,61.2
			 M97.9,67.7c-0.2,2.6-2.4,4.7-4.4,3.9C93.3,69.4,95.3,67.6,97.9,67.7 M91.4,65c1.6,2.4,2,4.8,0.7,7.2C90.7,70.9,90.1,68.9,91.4,65
			 M96.1,73.1c-1,2.4-3.5,3.5-5.2,2.1C91.1,72.7,93.4,72,96.1,73.1 M90.4,69.5c0.5,3.6-0.4,6-1.7,6.1C87.5,73,88.7,70.9,90.4,69.5
			 M93.4,77.1c-1.6,2.1-3.1,2-4.6,0C90.4,75.1,91.9,76.1,93.4,77.1 M89.6,37.4c2,2.1,2.9,4.4,2.1,7C90,43.4,89,41.4,89.6,37.4"/>
		<path class="st5" d="M83.5,88.3l-3.6-3.9l1.1-1l2.8,3l1.8-1.6l0.8,0.9L83.5,88.3z M78.5,91.5L75.8,87l1.2-0.7l2.7,4.5L78.5,91.5z
			 M74,91.4l0.1,0.1c0.2,0.6,0.3,1.2,0.1,1.5c-0.2,0.4-0.6,0.7-1.2,0.9l-0.5,0.2c-0.7,0.3-1.3,0.3-1.7,0.1c-0.4-0.2-0.7-0.7-1-1.4
			l-0.4-1c-0.3-0.7-0.3-1.3-0.2-1.7c0.2-0.4,0.6-0.7,1.3-1l0.4-0.1c0.7-0.3,1.2-0.3,1.6-0.2c0.4,0.2,0.7,0.6,0.9,1.2l0,0.1l-1.3,0.5
			l0-0.1c-0.1-0.2-0.2-0.4-0.3-0.4c-0.1-0.1-0.3,0-0.6,0.1c-0.3,0.1-0.5,0.2-0.5,0.4c-0.1,0.1,0,0.4,0.2,0.8l0.3,0.8
			c0.2,0.4,0.3,0.7,0.4,0.7c0.1,0.1,0.4,0.1,0.6,0c0.3-0.1,0.4-0.2,0.5-0.4c0.1-0.1,0-0.3,0-0.6l0-0.1L74,91.4z M61.1,96.2L60.6,91
			l2.1-0.2l2.1,3.7l-0.4-3.9l1.4-0.1l0.5,5.2l-2.1,0.2l-2.1-3.7l0.4,3.9L61.1,96.2z M52.8,90l1.4,0.2l-0.4,3c-0.1,0.4,0,0.7,0,0.8
			c0.1,0.1,0.3,0.2,0.6,0.3l0.3,0c0.3,0,0.6,0,0.7-0.1c0.1-0.1,0.2-0.4,0.3-0.8l0.4-3l1.4,0.2L57,93.8c-0.1,0.5-0.1,0.8-0.2,1
			c-0.1,0.2-0.2,0.4-0.4,0.5c-0.2,0.2-0.4,0.3-0.7,0.3c-0.3,0-0.6,0-1,0L54,95.5c-0.4-0.1-0.8-0.1-1-0.3c-0.2-0.1-0.4-0.3-0.6-0.5
			c-0.1-0.2-0.2-0.4-0.2-0.6c0-0.2,0-0.6,0.1-1L52.8,90z M44.9,89.1c0.3-0.7,0.7-1.2,1.1-1.4c0.4-0.2,1-0.1,1.7,0.2l0.6,0.3
			c0.7,0.3,1.1,0.6,1.3,1.1c0.2,0.4,0.1,1-0.2,1.7l-0.4,1c-0.3,0.7-0.7,1.2-1.1,1.4c-0.4,0.2-1,0.1-1.7-0.2l-0.6-0.3
			c-0.7-0.3-1.1-0.6-1.3-1s-0.1-1,0.3-1.7L44.9,89.1z M46.2,89.8l-0.3,0.8c-0.2,0.4-0.2,0.7-0.2,0.8c0,0.1,0.2,0.3,0.5,0.4l0.2,0.1
			c0.3,0.1,0.5,0.2,0.7,0.1c0.1-0.1,0.3-0.3,0.5-0.7l0.3-0.8c0.2-0.4,0.2-0.7,0.2-0.8c0-0.1-0.2-0.3-0.5-0.4l-0.2-0.1
			C47,89,46.8,89,46.6,89.1C46.5,89.1,46.3,89.4,46.2,89.8 M41.4,88.3l-0.1,0.1c-0.4,0.5-0.8,0.8-1.3,0.9c-0.4,0.1-0.9-0.1-1.5-0.5
			l-0.4-0.3c-0.6-0.4-0.9-0.9-1-1.3c0-0.4,0.2-1,0.7-1.6l0.7-0.9c0.5-0.6,1-1,1.4-1.1c0.4-0.1,1,0.1,1.6,0.6l0.3,0.2
			c0.6,0.4,0.9,0.9,1,1.3c0.1,0.4-0.1,0.9-0.5,1.4l-0.1,0.1L41,86.4l0.1-0.1c0.1-0.2,0.2-0.4,0.2-0.5c0-0.1-0.2-0.3-0.4-0.5
			c-0.2-0.2-0.4-0.3-0.6-0.2c-0.2,0-0.4,0.2-0.6,0.6l-0.5,0.7c-0.3,0.4-0.4,0.6-0.4,0.8c0,0.2,0.1,0.3,0.4,0.5
			c0.2,0.2,0.4,0.2,0.6,0.2c0.2,0,0.3-0.1,0.5-0.4l0.1-0.1L41.4,88.3z"/>
		<path class="st5" d="M74,33.3l5.5-7.5l5.9,4.1c0.5,0.4,0.9,0.8,0.9,1.2c0.1,0.4-0.1,0.9-0.4,1.4l-1.3,1.8
			c-0.4,0.5-0.8,0.8-1.2,0.9c-0.4,0.1-0.9-0.1-1.4-0.5L81,34l1.1,5.1l-2.3-1.6l-0.7-4.8l-1.5-1.1l-2.1,2.8L74,33.3z M83.7,30.7
			l-3.6-2.5l-1.5,2.1l3.6,2.5c0.3,0.2,0.5,0.3,0.7,0.3c0.2,0,0.3-0.1,0.5-0.4l0.7-0.9c0.2-0.2,0.2-0.4,0.2-0.6
			C84.1,31.1,83.9,30.9,83.7,30.7 M70,24l-5.4-1l-0.4,2l5.2,0.9c0.8,0.1,1.3,0.4,1.6,0.8c0.2,0.4,0.3,0.9,0.1,1.8l-0.2,1.2
			c-0.2,0.8-0.4,1.4-0.7,1.6c-0.3,0.3-0.9,0.3-1.7,0.2l-5.1-0.9c-0.8-0.1-1.3-0.4-1.6-0.8c-0.2-0.4-0.3-0.9-0.1-1.8l0-0.2l1.8-0.1
			l-0.2,1.1l5.9,1.1l0.4-2.1l-5.2-0.9c-0.8-0.1-1.3-0.4-1.5-0.7c-0.2-0.4-0.3-0.9-0.1-1.8l0.2-1c0.2-0.8,0.4-1.4,0.7-1.6
			c0.3-0.3,0.9-0.3,1.7-0.2l4.7,0.8c0.8,0.1,1.3,0.4,1.5,0.7c0.2,0.3,0.3,0.9,0.2,1.6l0,0.2l-1.8,0.1L70,24z M54.3,23.3l-5.4,1.2
			l0.5,1.9l5.1-1.2c0.8-0.2,1.4-0.2,1.7,0.1c0.4,0.2,0.6,0.8,0.8,1.6l0.3,1.2c0.2,0.8,0.2,1.4,0,1.8c-0.2,0.4-0.7,0.6-1.5,0.8
			L50.7,32c-0.8,0.2-1.4,0.2-1.7-0.1c-0.4-0.2-0.6-0.8-0.8-1.6l-0.1-0.2l1.6-0.8l0.3,1.1l5.8-1.3L55.3,27l-5.1,1.2
			c-0.8,0.2-1.4,0.2-1.7-0.1c-0.3-0.2-0.6-0.8-0.8-1.6l-0.2-1c-0.2-0.8-0.2-1.4,0-1.8c0.2-0.4,0.7-0.6,1.5-0.8l4.7-1.1
			c0.8-0.2,1.3-0.1,1.7,0.1c0.4,0.2,0.6,0.7,0.8,1.4l0,0.2l-1.6,0.8L54.3,23.3z M39.3,29.3l4.5,6.2l-1.6,1.1l-4.5-6.2l-3.1,2.2
			l-1-1.3l7.9-5.5l1,1.3L39.3,29.3z"/>
		<path class="st6" d="M74,33.3l5.5-7.5l5.9,4.1c0.5,0.4,0.9,0.8,0.9,1.2c0.1,0.4-0.1,0.9-0.4,1.4l-1.3,1.8
			c-0.4,0.5-0.8,0.8-1.2,0.9c-0.4,0.1-0.9-0.1-1.4-0.5L81,34l1.1,5.1l-2.3-1.6l-0.7-4.8l-1.5-1.1l-2.1,2.8L74,33.3z M83.7,30.7
			l-3.6-2.5l-1.5,2.1l3.6,2.5c0.3,0.2,0.5,0.3,0.7,0.3c0.2,0,0.3-0.1,0.5-0.4l0.7-0.9c0.2-0.2,0.2-0.4,0.2-0.6
			C84.1,31.1,83.9,30.9,83.7,30.7z M70,24l-5.4-1l-0.4,2l5.2,0.9c0.8,0.1,1.3,0.4,1.6,0.8c0.2,0.4,0.3,0.9,0.1,1.8l-0.2,1.2
			c-0.2,0.8-0.4,1.4-0.7,1.6c-0.3,0.3-0.9,0.3-1.7,0.2l-5.1-0.9c-0.8-0.1-1.3-0.4-1.6-0.8c-0.2-0.4-0.3-0.9-0.1-1.8l0-0.2l1.8-0.1
			l-0.2,1.1l5.9,1.1l0.4-2.1l-5.2-0.9c-0.8-0.1-1.3-0.4-1.5-0.7c-0.2-0.4-0.3-0.9-0.1-1.8l0.2-1c0.2-0.8,0.4-1.4,0.7-1.6
			c0.3-0.3,0.9-0.3,1.7-0.2l4.7,0.8c0.8,0.1,1.3,0.4,1.5,0.7c0.2,0.3,0.3,0.9,0.2,1.6l0,0.2l-1.8,0.1L70,24z M54.3,23.3l-5.4,1.2
			l0.5,1.9l5.1-1.2c0.8-0.2,1.4-0.2,1.7,0.1c0.4,0.2,0.6,0.8,0.8,1.6l0.3,1.2c0.2,0.8,0.2,1.4,0,1.8c-0.2,0.4-0.7,0.6-1.5,0.8
			L50.7,32c-0.8,0.2-1.4,0.2-1.7-0.1c-0.4-0.2-0.6-0.8-0.8-1.6l-0.1-0.2l1.6-0.8l0.3,1.1l5.8-1.3L55.3,27l-5.1,1.2
			c-0.8,0.2-1.4,0.2-1.7-0.1c-0.3-0.2-0.6-0.8-0.8-1.6l-0.2-1c-0.2-0.8-0.2-1.4,0-1.8c0.2-0.4,0.7-0.6,1.5-0.8l4.7-1.1
			c0.8-0.2,1.3-0.1,1.7,0.1c0.4,0.2,0.6,0.7,0.8,1.4l0,0.2l-1.6,0.8L54.3,23.3z M39.3,29.3l4.5,6.2l-1.6,1.1l-4.5-6.2l-3.1,2.2
			l-1-1.3l7.9-5.5l1,1.3L39.3,29.3z"/>
		<path class="st5" d="M79,41.5C74.2,36.9,67.7,34,60.5,34c-7.2,0-13.8,2.9-18.5,7.5c-4.7,4.6-7.7,11.1-7.7,18.1s2.9,13.5,7.7,18.1
			c4.7,4.6,11.3,7.5,18.5,7.5c7.2,0,13.8-2.9,18.5-7.5c4.7-4.6,7.7-11.1,7.7-18.1S83.7,46.1,79,41.5 M60.5,32.9
			c7.5,0,14.4,3,19.3,7.8c4.9,4.8,8,11.5,8,18.9c0,7.4-3.1,14.1-8,18.9c-4.9,4.8-11.8,7.8-19.3,7.8c-7.5,0-14.4-3-19.3-7.8
			c-4.9-4.8-8-11.5-8-18.9c0-7.4,3.1-14.1,8-18.9C46.1,35.9,52.9,32.9,60.5,32.9"/>
		<path class="st1" d="M106,76.9l0.9-2.5l0.7,0.2c0.1,0,0.1,0.1,0.1,0.2l-0.2,0.6c-0.3,0.8-0.1,1.5,0.6,1.8c0.8,0.3,1.8-0.2,2.2-1.2
			c0.1-0.3,0.1-0.5,0.1-0.8c0.3-0.1,0.5-0.2,0.7-0.1c0.3,0.1,0.4,0.3,0.5,0.7l0.6-0.4l0,0c-0.1-0.4-0.3-0.6-0.6-0.8
			c-0.3-0.1-0.7,0-1.2,0.3c-0.1-0.3-0.2-0.5-0.5-0.5c-0.2-0.1-0.4,0-0.5,0c-0.2,0.1-0.3,0.2-0.3,0.4c-0.1,0.3,0.1,0.6,0.3,0.7
			c0.2,0.1,0.3,0,0.5,0c0,0.2,0,0.5-0.1,0.7c-0.2,0.6-0.7,0.8-1.2,0.7c-0.6-0.2-0.7-0.7-0.4-1.7l0.2-0.6l0-0.1l-1.3-0.4l0.3-0.9l0,0
			l-0.5,0.1l-1.3,3.9l0,0L106,76.9z M107.1,79.1l-2.2,0.5l0,0l0.6-1.3l1.3,0.6C106.9,78.9,107,79,107.1,79.1L107.1,79.1z
			 M107.2,79.4c0.1,0.3,0.1,0.5-0.1,0.8c-0.2,0.4-0.6,0.5-1.3,0.1c-0.3-0.1-0.6-0.3-0.9-0.4l0,0L107.2,79.4z M104.3,80.8l0.2-0.5
			c0.3,0.2,0.7,0.3,1,0.5c0.6,0.3,1,0.3,1.3,0.2c0.4-0.2,0.7-0.4,0.9-0.8c0.1-0.3,0.2-0.5,0.1-0.8l1.4,0.6l0.3-0.4l0-0.1l-3.8-1.7
			l0.3-0.7l0-0.1l-0.5,0l-1.7,3.7l0,0.1L104.3,80.8z M103,83l0.8-1.4c0.2,0.1,0.4,0.1,0.5,0.2c0.2,0.1,0.4,0.3,0.5,0.5
			c-0.1,0.1-0.2,0.3-0.3,0.5c-0.1,0.2-0.1,0.3-0.1,0.4c0,0.1,0.1,0.1,0.2,0.2c0.1,0.1,0.4,0.1,0.8,0.1c0.8-0.1,1.6-0.3,2.5-0.7l0,0
			l-0.3-0.5c-0.7,0.4-1.4,0.8-2,0.9c0-0.6-0.2-1.2-0.9-1.6c-0.2-0.1-0.5-0.2-0.7-0.3l0.6-0.9l0-0.1l-0.5,0l-1.6,2.8l0,0.1L103,83z
			 M102.1,84.5l0.3-0.5l3.5,2l0.4-0.4l0-0.1l-3.6-2l0.4-0.7l0-0.1l-0.5,0l-0.4,0.6c-0.2,0-0.4,0-0.5-0.1c-0.5-0.3-0.6-0.8-0.3-1.2
			c0.4-0.6,1-0.9,1.9-0.9l0,0l-0.1-0.2c-1.1,0-2,0.4-2.4,1.2c-0.3,0.5-0.2,1.2,0.4,1.5c0.2,0.1,0.5,0.2,0.8,0.1l-0.4,0.8l0,0.1
			L102.1,84.5z M101.5,85.5l1.2,0.8c0.2,0.2,0.3,0.3,0.4,0.6c0,0.3,0,0.5-0.2,0.8c-0.3,0.4-0.7,0.3-1.3-0.1c-0.3-0.2-0.7-0.5-1-0.7
			L101.5,85.5z M99.9,87.8l0.3-0.5c0.3,0.2,0.6,0.4,0.9,0.6c0.5,0.4,0.9,0.4,1.2,0.4c0.4-0.1,0.8-0.3,1-0.6c0.2-0.2,0.3-0.5,0.2-0.8
			l1.2,0.9l0.4-0.3l0-0.1l-3.4-2.3l0.5-0.7l0-0.1l-0.5-0.1l-2.4,3.3l0,0.1L99.9,87.8z M96.1,92.2l1.9-2.1l0.9,0.8
			c-0.4,0.3-0.7,0.6-1,1c-0.2,0.2-0.4,0.5-0.5,0.7c-0.1,0.2,0,0.4,0.1,0.5c0.3,0.3,1.1,0.2,1.3,0.1c0.1-0.1,0.1-0.2,0.1-0.3
			c0-0.1-0.1-0.2-0.3-0.3l-0.3-0.2c0.1-0.2,0.2-0.4,0.4-0.6c0.2-0.2,0.3-0.3,0.5-0.5l1.7,1.5l0.4-0.3l0-0.1l-3.1-2.6l0.5-0.6l0-0.1
			L98.4,89l-2.7,3.1l0,0.1L96.1,92.2z M95.2,93.1l0.5-0.4l2.8,2.9l0.5-0.2l0-0.1L96,92.3l0.6-0.6l0-0.1l-0.5-0.2l-1.4,1.3l0,0.1
			L95.2,93.1z M93.7,95.1l0-0.2c-0.7-0.3-1.1-0.4-1.5,0c-0.4,0.3-0.4,0.9,0,1.2c0.3,0.3,0.8,0.4,1.5,0.3c0,0.2,0.1,0.3,0.2,0.5
			c0.2,0.2,0.5,0.3,0.8,0.3c0.5,0,0.9-0.1,1.1-0.4c0.2-0.2,0.4-0.5,0.4-0.8l0.8,0.9l0.5-0.2l0-0.1l-2.9-2.9l0.6-0.6l0-0.1l-0.5-0.2
			l-1.5,1.4l0,0.1l0.5,0.2l0.6-0.5l1.1,1.2c0.2,0.2,0.3,0.5,0.2,0.7c-0.1,0.4-0.2,0.6-0.4,0.8c-0.2,0.2-0.6,0.3-0.8,0.1
			c-0.3-0.3-0.2-0.7,0.3-1.4l0,0l-0.6-0.1c-0.3,0.4-0.5,0.7-0.5,0.7c-0.2,0.2-0.6,0.4-0.9,0.1c-0.2-0.2-0.3-0.6,0-0.9
			C93,94.9,93.2,94.9,93.7,95.1L93.7,95.1z M88.5,96.3L88.4,97l0.7,0.1l0.1-0.7L88.5,96.3z M90.3,97.3l1,1.3
			c-0.2,0.2-0.5,0.5-0.7,0.6c-0.2,0.2-0.5,0.3-0.8,0.4c-0.1-0.2-0.2-0.3-0.3-0.5c-0.2-0.3-0.4-0.5-0.7-0.8L90.3,97.3z M87.5,99.3
			l0.9-0.6c0.2,0.2,0.3,0.4,0.5,0.6c0.2,0.2,0.3,0.4,0.3,0.6c-0.1,0.1-0.3,0.1-0.4,0.2c-0.2,0.2-0.2,0.4-0.1,0.5
			c0.1,0.1,0.3,0.3,0.7,0.4c0.6,0.3,1.4,0.4,2.5,0.5l0,0l-0.1-0.6c-0.7,0.1-1.4,0.1-2,0c0.1-0.2,0.1-0.4,0.1-0.7
			c0.5-0.1,0.9-0.3,1.2-0.5c0.2-0.1,0.3-0.2,0.4-0.4l1,1.4l0.5-0.2l0-0.1L90.7,97l0.7-0.5l0-0.1l-0.4-0.2L87,99v0.1L87.5,99.3z
			 M86.8,105L86.8,105c1.2,0.6,2,0.6,2.6,0.3c0.3-0.2,0.6-0.6,0.4-1.1c-0.1-0.2-0.2-0.3-0.4-0.4c-0.3-0.2-0.6-0.2-0.9,0
			c-0.2,0.1-0.4,0.4-0.5,0.6l0.5,0.3l0,0c0.1-0.2,0.2-0.4,0.4-0.5c0.2-0.1,0.3-0.1,0.4,0.1c0.2,0.3-0.1,0.7-0.4,0.8
			c-0.5,0.3-1.2,0.1-2.1-0.3L86.8,105z M83.6,101.5l2.5-1.4l0.6,1.1c-0.4,0.2-0.9,0.4-1.2,0.6c-0.3,0.2-0.5,0.3-0.7,0.5
			c-0.1,0.2-0.2,0.4-0.1,0.5c0.2,0.3,1,0.6,1.2,0.5c0.1-0.1,0.2-0.2,0.2-0.3c0-0.1-0.1-0.2-0.2-0.4l-0.2-0.3
			c0.1-0.1,0.3-0.3,0.6-0.4c0.2-0.1,0.4-0.2,0.6-0.3l1.1,2l0.5-0.1l0-0.1l-2.1-3.5l0.7-0.4l0-0.1l-0.4-0.3l-3.6,2l0,0.1L83.6,101.5z
			 M79.7,103.8c0.3-0.4,0.5-0.7,0.8-0.8c0.3-0.1,0.6,0,0.7,0.2c0.1,0.2,0.1,0.5-0.1,0.7c-0.3,0.1-0.6,0.4-0.9,0.7l0,0l0.5,0.3
			c0.3-0.3,0.5-0.5,0.7-0.5c0.4-0.2,0.7,0,0.9,0.3c0.2,0.4-0.1,0.9-0.5,1.1c-0.6,0.3-1.3,0-2.2-0.7l-0.2,0.3l0,0
			c1,0.8,1.9,1.2,2.8,0.8c0.6-0.3,0.9-0.8,0.6-1.4c-0.1-0.1-0.1-0.3-0.2-0.4l0,0c0.2,0.1,0.5,0,0.7-0.1c0.1-0.1,0.2-0.1,0.3-0.2
			l0.7,1.5l0.5-0.1l0-0.1l-1.7-3.7l0.7-0.3l0-0.1l-0.4-0.3l-2,0.9l0,0.1l0.4,0.3l0.8-0.4l0.7,1.5c-0.1,0.2-0.3,0.4-0.6,0.5
			c-0.2,0.1-0.4,0.1-0.6,0.1c-0.1,0-0.2-0.1-0.4-0.1c0.1-0.2,0.1-0.4,0-0.7c-0.1-0.3-0.3-0.5-0.6-0.6c-0.4-0.2-0.8-0.2-1.1-0.1
			c-0.3,0.1-0.6,0.4-0.8,0.8l0,0L79.7,103.8z M72,105.7l3.6-1l0.2,0.7c-0.5,0.2-0.9,0.4-1.1,0.7c-0.4-0.2-0.7-0.3-1.1-0.1
			c-0.6,0.2-0.9,0.7-0.7,1.4c0.2,0.8,1,1.4,2.1,1.8l0,0l0.2-0.6c-1-0.1-1.6-0.4-1.8-1c-0.1-0.4,0.1-0.9,0.6-1c0.2-0.1,0.4-0.1,0.6,0
			c-0.1,0.2-0.2,0.5-0.1,0.9l0.5,0.2l0,0c0-0.9,0.2-1.2,0.9-1.5l0.7,2.6l0.5,0l0-0.1l-1.2-3.9l0.8-0.2l0-0.1l-0.3-0.4l-4.9,1.4
			l0,0.1L72,105.7z M68.6,106.3c0.4-0.1,0.7,0.2,0.8,0.6c0.1,0.3,0,0.6-0.2,0.8c-0.6-0.1-1-0.3-1.1-0.7
			C68,106.6,68.2,106.4,68.6,106.3 M66.7,106.6l0.8-0.1c0,0.1,0,0.2,0,0.3c0.1,0.5,0.7,0.9,1.5,1.2c-0.1,0.1-0.2,0.2-0.4,0.3
			c-0.3-0.1-0.5-0.1-0.8-0.1c-0.3,0.1-0.4,0.2-0.4,0.4c0,0.1,0.1,0.2,0.2,0.3c0.2,0.2,0.4,0.3,0.5,0.3c0.2,0,0.4-0.1,0.6-0.2
			c0.5,0.6,1.1,1,1.8,1.3l0,0l0.1-0.6c-0.6-0.2-1.1-0.5-1.6-0.9c0.7-0.5,1.1-1.1,1-1.7c-0.1-0.3-0.3-0.6-0.6-0.9l1.2-0.2l0.7,3.9
			l0.5,0.1l0-0.1l-0.7-4l0.8-0.1l0-0.1l-0.3-0.4l-5.2,0.9l0,0.1L66.7,106.6z M64.2,105.7L64.2,105.7c0.4-0.2,0.6-0.3,0.9-0.3
			c0.4,0,0.8,0.3,1.4,0.8l-1,0l0,0l0.2,0.4l0.6,0l0.1,4l0.5,0.1l0-0.1l-0.1-4.1l0.8,0l0,0l-0.2-0.4l-0.7,0c-0.2-1-0.4-1.5-0.7-1.9
			c-0.3-0.4-0.6-0.6-1-0.6c-0.2,0-0.4,0-0.7,0.1l0.2,0.6l0,0c0.2,0,0.4-0.1,0.6-0.1c0.7,0,0.8,0.3,1,1.3l0,0c-0.6-0.5-1-0.7-1.4-0.7
			c-0.3,0-0.6,0.1-0.9,0.3L64.2,105.7z M62.9,108.7c-0.4,0.4-0.8,0.7-1.2,0.7c-0.4,0-0.6-0.2-0.6-0.5c0-0.5,0.5-0.9,1.1-0.9
			c0.2,0,0.5,0,0.7,0.1L62.9,108.7z M60.2,106.9l2.7-0.1l0,0.8c-0.4-0.1-0.7-0.1-1-0.1c-0.7,0-1.3,0.4-1.3,1.1
			c0,0.7,0.6,1.3,1.4,1.3c0.3,0,0.6-0.1,0.9-0.4l0,0l0,1.3l0.5,0.1l0-0.1l0-1.9c0.3-0.4,0.8-0.8,1.2-0.8c0.2,0,0.4,0.1,0.4,0.4
			c0,0.4-0.3,0.9-0.7,1.4l0.5,0.3l0,0c0.4-0.5,0.6-0.9,0.6-1.4c0-0.6-0.5-1.1-1.1-1.1c-0.4,0-0.7,0.2-0.9,0.4l0,0l0-1.4l2.4,0l0,0
			l-0.2-0.4l-5.5,0.1l0,0L60.2,106.9z M55.2,106.5l1.6,0.1c0,0.2,0,0.4,0,0.5c0,0.3-0.1,0.5-0.2,0.7c-0.2,0-0.4-0.1-0.6-0.1
			c-0.2,0-0.4,0-0.4,0.1c-0.1,0.1-0.1,0.1-0.1,0.2c0,0.2,0.1,0.4,0.3,0.8c0.4,0.6,1,1.3,1.7,1.9l0.1,0l0.4-0.5
			c-0.7-0.5-1.3-0.9-1.7-1.4c0.6-0.3,1-0.7,1.1-1.4c0-0.3,0-0.5,0-0.7l1.1,0.1l0,0l-0.2-0.4l-3.2-0.2l0,0L55.2,106.5z M52.1,104.9
			L52.1,104.9c0.4-0.1,0.7-0.1,0.9-0.1c0.3,0.1,0.7,0.5,1.1,1.1l-3-0.7l0,0l0.1,0.5l0.9,0.2l-0.4,1.6c-0.3,0.1-0.5,0.1-0.8,0.1
			c-0.2-0.1-0.4-0.2-0.5-0.3c-0.1-0.1-0.1-0.2-0.2-0.3c0.2-0.1,0.3-0.3,0.4-0.6c0.1-0.3,0-0.6-0.1-0.9c-0.2-0.4-0.5-0.6-0.9-0.7
			c-0.3-0.1-0.7,0-1.2,0.2l0,0l0.2,0.6c0.5-0.2,0.9-0.2,1.2-0.2c0.3,0.1,0.5,0.3,0.4,0.6c-0.1,0.2-0.2,0.4-0.5,0.5
			c-0.3-0.1-0.7-0.1-1.2,0l0,0l0.2,0.6c0.4-0.1,0.7-0.1,0.9,0c0.4,0.1,0.6,0.4,0.5,0.7c-0.1,0.4-0.6,0.7-1.1,0.6
			c-0.6-0.1-1.1-0.8-1.3-1.8l-0.3,0.1l0,0c0.3,1.2,0.8,2.1,1.7,2.3c0.6,0.1,1.2-0.2,1.3-0.8c0-0.2,0.1-0.3,0-0.4l0,0
			c0.2,0.2,0.4,0.3,0.6,0.4c0.1,0,0.3,0,0.4,0l-0.4,1.6l0.5,0.2l0.1,0l0.9-4l1.2,0.3l-0.9,3.9l0.5,0.2l0.1,0l0.9-4l0.8,0.2l0,0
			l-0.1-0.5l-0.7-0.2c0-1,0-1.5-0.2-2c-0.2-0.4-0.4-0.7-0.8-0.8c-0.2,0-0.4-0.1-0.7-0.1l0,0.6l0,0c0.2,0,0.4,0,0.6,0.1
			c0.6,0.1,0.7,0.4,0.7,1.5l0,0c-0.5-0.6-0.8-1-1.2-1.1c-0.3-0.1-0.6,0-0.9,0.1L52.1,104.9z M42.2,103l2.7,1l-0.5,1.1
			c-0.4-0.2-0.9-0.4-1.2-0.6c-0.3-0.1-0.6-0.2-0.9-0.2c-0.2,0-0.4,0.1-0.4,0.3c-0.1,0.4,0.2,1.1,0.4,1.2c0.1,0,0.2,0,0.3-0.1
			c0,0,0.1-0.2,0.2-0.3l0.1-0.3c0.2,0,0.4,0.1,0.7,0.2c0.2,0.1,0.4,0.2,0.6,0.3l-0.8,2.1l0.4,0.3l0.1,0l1.5-3.8l0.8,0.3l0.1,0l0-0.5
			l-3.9-1.5l-0.1,0L42.2,103z M40.8,102.3l-0.7,1.4c-0.1,0.3-0.3,0.4-0.6,0.4c-0.3,0-0.6,0-0.8-0.2c-0.6-0.3-0.6-0.9-0.5-1
			c0,0,0.1-0.1,0.2-0.1c0.6,0.1,0.9,0,1.1-0.4c0.1-0.2,0.1-0.5,0.1-0.9L40.8,102.3z M38.1,101l1,0.5c0.1,0.2,0.1,0.4,0,0.6
			c-0.2,0.3-0.7,0.3-1.3,0.2l-0.1,0c-0.1,0.9,0,1.8,0.8,2.2c0.3,0.2,0.6,0.2,1,0.2l-0.6,1.1l0.4,0.4l0.1,0l1.9-3.6l0.7,0.4l0.1,0
			l0-0.5l-3.9-2l-0.1,0L38.1,101z M36.7,100.2l-0.9,1.3c-0.2,0.3-0.4,0.4-0.6,0.4c-0.3,0-0.6-0.1-0.8-0.2c-0.6-0.4-0.5-1-0.4-1.1
			c0,0,0.1-0.1,0.2,0c0.6,0.1,0.9,0.1,1.2-0.3c0.1-0.2,0.2-0.5,0.2-0.9L36.7,100.2z M33.5,98.5c0.1-0.7,0.2-1.1-0.4-1.5
			c-0.4-0.3-0.9-0.2-1.2,0.3c-0.2,0.4-0.2,0.9,0.1,1.5c-0.2,0.1-0.3,0.2-0.4,0.3c-0.1,0.2-0.2,0.5-0.1,0.9c0.1,0.5,0.4,0.8,0.7,1
			c0.4,0.3,0.9,0.3,1.5,0.1c0.1,0.5,0.3,0.8,0.7,1.1c0.3,0.2,0.6,0.3,0.9,0.3l-0.7,1.1l0.4,0.4l0.1,0l2.2-3.4l0.7,0.4l0.1,0l0.1-0.5
			L34,97.9l-0.1,0l-0.1,0.5l1.2,0.8c0,0.2,0,0.4-0.1,0.6c-0.2,0.3-0.7,0.2-1.3,0l-0.1,0c-0.1,0.2-0.1,0.4-0.1,0.6
			c-0.6,0.2-1,0.1-1.4-0.1c-0.3-0.2-0.4-0.5-0.3-0.8c0.2-0.3,0.7-0.3,1.4,0l0,0l0-0.6c-0.5-0.2-0.8-0.3-0.9-0.3
			c-0.3-0.2-0.5-0.5-0.3-0.8c0.2-0.3,0.5-0.4,0.9-0.2c0.3,0.2,0.3,0.4,0.2,0.9l0,0L33.5,98.5z M28.2,94.4c0.5,0.1,0.9,0.2,1.1,0.4
			c0.2,0.2,0.3,0.5,0.1,0.7c-0.2,0.2-0.4,0.2-0.7,0.2c-0.2-0.2-0.6-0.4-1.1-0.5l0,0l-0.1,0.6c0.4,0.1,0.6,0.2,0.8,0.4
			c0.3,0.3,0.3,0.6,0.1,0.9c-0.3,0.3-0.9,0.3-1.2,0c-0.5-0.4-0.6-1.2-0.3-2.2l-0.3-0.1l0,0C26.2,96,26.2,97,27,97.6
			c0.5,0.4,1.1,0.4,1.6-0.1c0.1-0.1,0.2-0.2,0.2-0.4l0,0c0.1,0.2,0.2,0.4,0.4,0.6c0.1,0.1,0.2,0.2,0.3,0.2l-1.1,1.2l0.3,0.4l0.1,0
			l2.7-3.1l0.6,0.5l0.1,0l0.1-0.5l-1.7-1.4l-0.1,0l-0.1,0.5l0.7,0.6l-1.1,1.2c-0.3,0-0.5-0.1-0.7-0.3c-0.2-0.2-0.3-0.3-0.3-0.5
			c0-0.1,0-0.2-0.1-0.4c0.2,0,0.4-0.1,0.6-0.3c0.2-0.2,0.3-0.5,0.3-0.8c0-0.4-0.1-0.8-0.4-1c-0.2-0.2-0.6-0.3-1.1-0.4l0,0L28.2,94.4
			z M25.3,90.9l0.4,0.5l-3.2,2.4l0.2,0.5l0.1,0l3.3-2.5l0.5,0.6l0.1,0l0.2-0.4l-0.4-0.5c1-1.1,0.9-2.4,0.2-3.3
			c-0.5-0.6-1.3-0.8-1.8-0.4c-0.2,0.1-0.3,0.3-0.4,0.5l0.1,0.5l0.1,0c0.1-0.2,0.1-0.3,0.4-0.5c0.3-0.3,1-0.3,1.5,0.4
			c0.6,0.8,0.5,1.7-0.3,2.4l-0.5-0.6l-0.1,0L25.3,90.9z M22.1,89.9c-0.6-0.1-1-0.2-1.3-0.5c-0.2-0.3-0.2-0.6,0.1-0.8
			c0.4-0.3,1-0.2,1.4,0.3c0.1,0.2,0.3,0.4,0.4,0.6L22.1,89.9z M22,86.7l1.6,2.1L23,89.3c-0.1-0.3-0.3-0.6-0.5-0.9
			c-0.5-0.6-1.1-0.8-1.7-0.4c-0.6,0.4-0.7,1.3-0.2,1.9c0.2,0.2,0.5,0.4,0.8,0.5l0,0l-1.1,0.8l0.2,0.5l0.1,0l1.5-1.2
			c0.6,0,1.1,0.1,1.3,0.4c0.1,0.2,0.1,0.4-0.1,0.5c-0.3,0.2-0.9,0.3-1.5,0.3l0,0.6l0,0c0.6,0,1.1-0.1,1.5-0.4c0.5-0.4,0.6-1,0.3-1.5
			c-0.2-0.3-0.5-0.4-0.9-0.5l0,0l1.1-0.8l1.4,1.8l0.1,0l0.2-0.4l-3.4-4.3l-0.1,0L22,86.7z M20.6,84.7l0.3,0.5l-3.5,1.9l0.1,0.5
			l0.1,0l3.6-2l0.4,0.7l0.1,0l0.3-0.4l-0.3-0.6c1-0.7,1.3-1.8,0.8-2.6c-0.3-0.5-0.8-0.6-1.2-0.4c-0.2,0.1-0.4,0.4-0.5,0.7l0,0.5
			l0.1,0c0.1-0.3,0.3-0.5,0.5-0.6c0.3-0.2,0.7-0.1,0.9,0.3c0.3,0.5,0.1,1.1-0.8,1.7L21,84.3l-0.1,0L20.6,84.7z M18.6,81.2l1.4,2.4
			L19,84.3c-0.2-0.4-0.4-0.8-0.6-1.2c-0.2-0.3-0.3-0.5-0.6-0.7c-0.2-0.1-0.4-0.2-0.5-0.1c-0.3,0.2-0.6,1-0.5,1.2
			c0.1,0.1,0.2,0.2,0.3,0.2c0.1,0,0.2-0.1,0.4-0.1l0.3-0.2c0.1,0.1,0.3,0.3,0.4,0.6c0.1,0.2,0.2,0.4,0.3,0.6l-2,1.1l0.1,0.5l0.1,0
			l3.6-2l0.4,0.7l0.1,0l0.3-0.4L19,80.8l-0.1,0L18.6,81.2z M15.6,79.2c-0.6-0.2-0.9-0.5-1.1-0.8c-0.2-0.3-0.1-0.6,0.3-0.8
			c0.4-0.2,1,0.1,1.3,0.6c0.1,0.2,0.2,0.4,0.2,0.6L15.6,79.2z M16.2,76l1.1,2.4l-0.7,0.3c-0.1-0.4-0.2-0.7-0.3-1
			c-0.3-0.7-0.9-1-1.5-0.7c-0.7,0.3-1,1.1-0.6,1.8c0.1,0.3,0.4,0.5,0.7,0.7l0,0l-1.2,0.5l0.1,0.5l0.1,0l1.7-0.8
			c0.6,0.1,1,0.4,1.2,0.7c0.1,0.2,0,0.4-0.2,0.5c-0.4,0.2-0.9,0.1-1.5-0.1l-0.1,0.6l0,0c0.6,0.1,1.1,0.2,1.6,0
			c0.6-0.2,0.9-0.9,0.6-1.4c-0.1-0.3-0.4-0.5-0.8-0.7l0,0l1.3-0.6l1,2.1l0.1,0l0.3-0.4l-2.3-4.9l-0.1,0L16.2,76z M15.1,72l0.8,2.7
			L15,75c-0.1-0.3-0.2-0.6-0.2-0.9c-0.3-1.1-0.8-1.3-1.5-1.2c-0.7,0.2-1.3,0.8-1.8,1.8l0,0l0.6,0.2c0.3-0.9,0.6-1.5,1.1-1.6
			c0.4-0.1,0.8,0.2,1.1,1.1c0.1,0.2,0.1,0.5,0.2,0.7L12,75.8l0,0.5l0.1,0l4-1.1l0.2,0.8l0.1,0l0.4-0.3l-1.2-4l-0.1,0L15.1,72z"/>
		<path class="st7" d="M106,76.9l0.9-2.5l0.7,0.2c0.1,0,0.1,0.1,0.1,0.2l-0.2,0.6c-0.3,0.8-0.1,1.5,0.6,1.8c0.8,0.3,1.8-0.2,2.2-1.2
			c0.1-0.3,0.1-0.5,0.1-0.8c0.3-0.1,0.5-0.2,0.7-0.1c0.3,0.1,0.4,0.3,0.5,0.7l0.6-0.4l0,0c-0.1-0.4-0.3-0.6-0.6-0.8
			c-0.3-0.1-0.7,0-1.2,0.3c-0.1-0.3-0.2-0.5-0.5-0.5c-0.2-0.1-0.4,0-0.5,0c-0.2,0.1-0.3,0.2-0.3,0.4c-0.1,0.3,0.1,0.6,0.3,0.7
			c0.2,0.1,0.3,0,0.5,0c0,0.2,0,0.5-0.1,0.7c-0.2,0.6-0.7,0.8-1.2,0.7c-0.6-0.2-0.7-0.7-0.4-1.7l0.2-0.6l0-0.1l-1.3-0.4l0.3-0.9l0,0
			l-0.5,0.1l-1.3,3.9l0,0L106,76.9z M107.1,79.1l-2.2,0.5l0,0l0.6-1.3l1.3,0.6C106.9,78.9,107,79,107.1,79.1L107.1,79.1z
			 M107.2,79.4c0.1,0.3,0.1,0.5-0.1,0.8c-0.2,0.4-0.6,0.5-1.3,0.1c-0.3-0.1-0.6-0.3-0.9-0.4l0,0L107.2,79.4z M104.3,80.8l0.2-0.5
			c0.3,0.2,0.7,0.3,1,0.5c0.6,0.3,1,0.3,1.3,0.2c0.4-0.2,0.7-0.4,0.9-0.8c0.1-0.3,0.2-0.5,0.1-0.8l1.4,0.6l0.3-0.4l0-0.1l-3.8-1.7
			l0.3-0.7l0-0.1l-0.5,0l-1.7,3.7l0,0.1L104.3,80.8z M103,83l0.8-1.4c0.2,0.1,0.4,0.1,0.5,0.2c0.2,0.1,0.4,0.3,0.5,0.5
			c-0.1,0.1-0.2,0.3-0.3,0.5c-0.1,0.2-0.1,0.3-0.1,0.4c0,0.1,0.1,0.1,0.2,0.2c0.1,0.1,0.4,0.1,0.8,0.1c0.8-0.1,1.6-0.3,2.5-0.7l0,0
			l-0.3-0.5c-0.7,0.4-1.4,0.8-2,0.9c0-0.6-0.2-1.2-0.9-1.6c-0.2-0.1-0.5-0.2-0.7-0.3l0.6-0.9l0-0.1l-0.5,0l-1.6,2.8l0,0.1L103,83z
			 M102.1,84.5l0.3-0.5l3.5,2l0.4-0.4l0-0.1l-3.6-2l0.4-0.7l0-0.1l-0.5,0l-0.4,0.6c-0.2,0-0.4,0-0.5-0.1c-0.5-0.3-0.6-0.8-0.3-1.2
			c0.4-0.6,1-0.9,1.9-0.9l0,0l-0.1-0.2c-1.1,0-2,0.4-2.4,1.2c-0.3,0.5-0.2,1.2,0.4,1.5c0.2,0.1,0.5,0.2,0.8,0.1l-0.4,0.8l0,0.1
			L102.1,84.5z M101.5,85.5l1.2,0.8c0.2,0.2,0.3,0.3,0.4,0.6c0,0.3,0,0.5-0.2,0.8c-0.3,0.4-0.7,0.3-1.3-0.1c-0.3-0.2-0.7-0.5-1-0.7
			L101.5,85.5z M99.9,87.8l0.3-0.5c0.3,0.2,0.6,0.4,0.9,0.6c0.5,0.4,0.9,0.4,1.2,0.4c0.4-0.1,0.8-0.3,1-0.6c0.2-0.2,0.3-0.5,0.2-0.8
			l1.2,0.9l0.4-0.3l0-0.1l-3.4-2.3l0.5-0.7l0-0.1l-0.5-0.1l-2.4,3.3l0,0.1L99.9,87.8z M96.1,92.2l1.9-2.1l0.9,0.8
			c-0.4,0.3-0.7,0.6-1,1c-0.2,0.2-0.4,0.5-0.5,0.7c-0.1,0.2,0,0.4,0.1,0.5c0.3,0.3,1.1,0.2,1.3,0.1c0.1-0.1,0.1-0.2,0.1-0.3
			c0-0.1-0.1-0.2-0.3-0.3l-0.3-0.2c0.1-0.2,0.2-0.4,0.4-0.6c0.2-0.2,0.3-0.3,0.5-0.5l1.7,1.5l0.4-0.3l0-0.1l-3.1-2.6l0.5-0.6l0-0.1
			L98.4,89l-2.7,3.1l0,0.1L96.1,92.2z M95.2,93.1l0.5-0.4l2.8,2.9l0.5-0.2l0-0.1L96,92.3l0.6-0.6l0-0.1l-0.5-0.2l-1.4,1.3l0,0.1
			L95.2,93.1z M93.7,95.1l0-0.2c-0.7-0.3-1.1-0.4-1.5,0c-0.4,0.3-0.4,0.9,0,1.2c0.3,0.3,0.8,0.4,1.5,0.3c0,0.2,0.1,0.3,0.2,0.5
			c0.2,0.2,0.5,0.3,0.8,0.3c0.5,0,0.9-0.1,1.1-0.4c0.2-0.2,0.4-0.5,0.4-0.8l0.8,0.9l0.5-0.2l0-0.1l-2.9-2.9l0.6-0.6l0-0.1l-0.5-0.2
			l-1.5,1.4l0,0.1l0.5,0.2l0.6-0.5l1.1,1.2c0.2,0.2,0.3,0.5,0.2,0.7c-0.1,0.4-0.2,0.6-0.4,0.8c-0.2,0.2-0.6,0.3-0.8,0.1
			c-0.3-0.3-0.2-0.7,0.3-1.4l0,0l-0.6-0.1c-0.3,0.4-0.5,0.7-0.5,0.7c-0.2,0.2-0.6,0.4-0.9,0.1c-0.2-0.2-0.3-0.6,0-0.9
			C93,94.9,93.2,94.9,93.7,95.1L93.7,95.1z M88.5,96.3L88.4,97l0.7,0.1l0.1-0.7L88.5,96.3z M90.3,97.3l1,1.3
			c-0.2,0.2-0.5,0.5-0.7,0.6c-0.2,0.2-0.5,0.3-0.8,0.4c-0.1-0.2-0.2-0.3-0.3-0.5c-0.2-0.3-0.4-0.5-0.7-0.8L90.3,97.3z M87.5,99.3
			l0.9-0.6c0.2,0.2,0.3,0.4,0.5,0.6c0.2,0.2,0.3,0.4,0.3,0.6c-0.1,0.1-0.3,0.1-0.4,0.2c-0.2,0.2-0.2,0.4-0.1,0.5
			c0.1,0.1,0.3,0.3,0.7,0.4c0.6,0.3,1.4,0.4,2.5,0.5l0,0l-0.1-0.6c-0.7,0.1-1.4,0.1-2,0c0.1-0.2,0.1-0.4,0.1-0.7
			c0.5-0.1,0.9-0.3,1.2-0.5c0.2-0.1,0.3-0.2,0.4-0.4l1,1.4l0.5-0.2l0-0.1L90.7,97l0.7-0.5l0-0.1l-0.4-0.2L87,99v0.1L87.5,99.3z
			 M86.8,105L86.8,105c1.2,0.6,2,0.6,2.6,0.3c0.3-0.2,0.6-0.6,0.4-1.1c-0.1-0.2-0.2-0.3-0.4-0.4c-0.3-0.2-0.6-0.2-0.9,0
			c-0.2,0.1-0.4,0.4-0.5,0.6l0.5,0.3l0,0c0.1-0.2,0.2-0.4,0.4-0.5c0.2-0.1,0.3-0.1,0.4,0.1c0.2,0.3-0.1,0.7-0.4,0.8
			c-0.5,0.3-1.2,0.1-2.1-0.3L86.8,105z M83.6,101.5l2.5-1.4l0.6,1.1c-0.4,0.2-0.9,0.4-1.2,0.6c-0.3,0.2-0.5,0.3-0.7,0.5
			c-0.1,0.2-0.2,0.4-0.1,0.5c0.2,0.3,1,0.6,1.2,0.5c0.1-0.1,0.2-0.2,0.2-0.3c0-0.1-0.1-0.2-0.2-0.4l-0.2-0.3
			c0.1-0.1,0.3-0.3,0.6-0.4c0.2-0.1,0.4-0.2,0.6-0.3l1.1,2l0.5-0.1l0-0.1l-2.1-3.5l0.7-0.4l0-0.1l-0.4-0.3l-3.6,2l0,0.1L83.6,101.5z
			 M79.7,103.8c0.3-0.4,0.5-0.7,0.8-0.8c0.3-0.1,0.6,0,0.7,0.2c0.1,0.2,0.1,0.5-0.1,0.7c-0.3,0.1-0.6,0.4-0.9,0.7l0,0l0.5,0.3
			c0.3-0.3,0.5-0.5,0.7-0.5c0.4-0.2,0.7,0,0.9,0.3c0.2,0.4-0.1,0.9-0.5,1.1c-0.6,0.3-1.3,0-2.2-0.7l-0.2,0.3l0,0
			c1,0.8,1.9,1.2,2.8,0.8c0.6-0.3,0.9-0.8,0.6-1.4c-0.1-0.1-0.1-0.3-0.2-0.4l0,0c0.2,0.1,0.5,0,0.7-0.1c0.1-0.1,0.2-0.1,0.3-0.2
			l0.7,1.5l0.5-0.1l0-0.1l-1.7-3.7l0.7-0.3l0-0.1l-0.4-0.3l-2,0.9l0,0.1l0.4,0.3l0.8-0.4l0.7,1.5c-0.1,0.2-0.3,0.4-0.6,0.5
			c-0.2,0.1-0.4,0.1-0.6,0.1c-0.1,0-0.2-0.1-0.4-0.1c0.1-0.2,0.1-0.4,0-0.7c-0.1-0.3-0.3-0.5-0.6-0.6c-0.4-0.2-0.8-0.2-1.1-0.1
			c-0.3,0.1-0.6,0.4-0.8,0.8l0,0L79.7,103.8z M72,105.7l3.6-1l0.2,0.7c-0.5,0.2-0.9,0.4-1.1,0.7c-0.4-0.2-0.7-0.3-1.1-0.1
			c-0.6,0.2-0.9,0.7-0.7,1.4c0.2,0.8,1,1.4,2.1,1.8l0,0l0.2-0.6c-1-0.1-1.6-0.4-1.8-1c-0.1-0.4,0.1-0.9,0.6-1c0.2-0.1,0.4-0.1,0.6,0
			c-0.1,0.2-0.2,0.5-0.1,0.9l0.5,0.2l0,0c0-0.9,0.2-1.2,0.9-1.5l0.7,2.6l0.5,0l0-0.1l-1.2-3.9l0.8-0.2l0-0.1l-0.3-0.4l-4.9,1.4
			l0,0.1L72,105.7z M68.6,106.3c0.4-0.1,0.7,0.2,0.8,0.6c0.1,0.3,0,0.6-0.2,0.8c-0.6-0.1-1-0.3-1.1-0.7
			C68,106.6,68.2,106.4,68.6,106.3z M66.7,106.6l0.8-0.1c0,0.1,0,0.2,0,0.3c0.1,0.5,0.7,0.9,1.5,1.2c-0.1,0.1-0.2,0.2-0.4,0.3
			c-0.3-0.1-0.5-0.1-0.8-0.1c-0.3,0.1-0.4,0.2-0.4,0.4c0,0.1,0.1,0.2,0.2,0.3c0.2,0.2,0.4,0.3,0.5,0.3c0.2,0,0.4-0.1,0.6-0.2
			c0.5,0.6,1.1,1,1.8,1.3l0,0l0.1-0.6c-0.6-0.2-1.1-0.5-1.6-0.9c0.7-0.5,1.1-1.1,1-1.7c-0.1-0.3-0.3-0.6-0.6-0.9l1.2-0.2l0.7,3.9
			l0.5,0.1l0-0.1l-0.7-4l0.8-0.1l0-0.1l-0.3-0.4l-5.2,0.9l0,0.1L66.7,106.6z M64.2,105.7L64.2,105.7c0.4-0.2,0.6-0.3,0.9-0.3
			c0.4,0,0.8,0.3,1.4,0.8l-1,0l0,0l0.2,0.4l0.6,0l0.1,4l0.5,0.1l0-0.1l-0.1-4.1l0.8,0l0,0l-0.2-0.4l-0.7,0c-0.2-1-0.4-1.5-0.7-1.9
			c-0.3-0.4-0.6-0.6-1-0.6c-0.2,0-0.4,0-0.7,0.1l0.2,0.6l0,0c0.2,0,0.4-0.1,0.6-0.1c0.7,0,0.8,0.3,1,1.3l0,0c-0.6-0.5-1-0.7-1.4-0.7
			c-0.3,0-0.6,0.1-0.9,0.3L64.2,105.7z M62.9,108.7c-0.4,0.4-0.8,0.7-1.2,0.7c-0.4,0-0.6-0.2-0.6-0.5c0-0.5,0.5-0.9,1.1-0.9
			c0.2,0,0.5,0,0.7,0.1L62.9,108.7z M60.2,106.9l2.7-0.1l0,0.8c-0.4-0.1-0.7-0.1-1-0.1c-0.7,0-1.3,0.4-1.3,1.1
			c0,0.7,0.6,1.3,1.4,1.3c0.3,0,0.6-0.1,0.9-0.4l0,0l0,1.3l0.5,0.1l0-0.1l0-1.9c0.3-0.4,0.8-0.8,1.2-0.8c0.2,0,0.4,0.1,0.4,0.4
			c0,0.4-0.3,0.9-0.7,1.4l0.5,0.3l0,0c0.4-0.5,0.6-0.9,0.6-1.4c0-0.6-0.5-1.1-1.1-1.1c-0.4,0-0.7,0.2-0.9,0.4l0,0l0-1.4l2.4,0l0,0
			l-0.2-0.4l-5.5,0.1l0,0L60.2,106.9z M55.2,106.5l1.6,0.1c0,0.2,0,0.4,0,0.5c0,0.3-0.1,0.5-0.2,0.7c-0.2,0-0.4-0.1-0.6-0.1
			c-0.2,0-0.4,0-0.4,0.1c-0.1,0.1-0.1,0.1-0.1,0.2c0,0.2,0.1,0.4,0.3,0.8c0.4,0.6,1,1.3,1.7,1.9l0.1,0l0.4-0.5
			c-0.7-0.5-1.3-0.9-1.7-1.4c0.6-0.3,1-0.7,1.1-1.4c0-0.3,0-0.5,0-0.7l1.1,0.1l0,0l-0.2-0.4l-3.2-0.2l0,0L55.2,106.5z M52.1,104.9
			L52.1,104.9c0.4-0.1,0.7-0.1,0.9-0.1c0.3,0.1,0.7,0.5,1.1,1.1l-3-0.7l0,0l0.1,0.5l0.9,0.2l-0.4,1.6c-0.3,0.1-0.5,0.1-0.8,0.1
			c-0.2-0.1-0.4-0.2-0.5-0.3c-0.1-0.1-0.1-0.2-0.2-0.3c0.2-0.1,0.3-0.3,0.4-0.6c0.1-0.3,0-0.6-0.1-0.9c-0.2-0.4-0.5-0.6-0.9-0.7
			c-0.3-0.1-0.7,0-1.2,0.2l0,0l0.2,0.6c0.5-0.2,0.9-0.2,1.2-0.2c0.3,0.1,0.5,0.3,0.4,0.6c-0.1,0.2-0.2,0.4-0.5,0.5
			c-0.3-0.1-0.7-0.1-1.2,0l0,0l0.2,0.6c0.4-0.1,0.7-0.1,0.9,0c0.4,0.1,0.6,0.4,0.5,0.7c-0.1,0.4-0.6,0.7-1.1,0.6
			c-0.6-0.1-1.1-0.8-1.3-1.8l-0.3,0.1l0,0c0.3,1.2,0.8,2.1,1.7,2.3c0.6,0.1,1.2-0.2,1.3-0.8c0-0.2,0.1-0.3,0-0.4l0,0
			c0.2,0.2,0.4,0.3,0.6,0.4c0.1,0,0.3,0,0.4,0l-0.4,1.6l0.5,0.2l0.1,0l0.9-4l1.2,0.3l-0.9,3.9l0.5,0.2l0.1,0l0.9-4l0.8,0.2l0,0
			l-0.1-0.5l-0.7-0.2c0-1,0-1.5-0.2-2c-0.2-0.4-0.4-0.7-0.8-0.8c-0.2,0-0.4-0.1-0.7-0.1l0,0.6l0,0c0.2,0,0.4,0,0.6,0.1
			c0.6,0.1,0.7,0.4,0.7,1.5l0,0c-0.5-0.6-0.8-1-1.2-1.1c-0.3-0.1-0.6,0-0.9,0.1L52.1,104.9z M42.2,103l2.7,1l-0.5,1.1
			c-0.4-0.2-0.9-0.4-1.2-0.6c-0.3-0.1-0.6-0.2-0.9-0.2c-0.2,0-0.4,0.1-0.4,0.3c-0.1,0.4,0.2,1.1,0.4,1.2c0.1,0,0.2,0,0.3-0.1
			c0,0,0.1-0.2,0.2-0.3l0.1-0.3c0.2,0,0.4,0.1,0.7,0.2c0.2,0.1,0.4,0.2,0.6,0.3l-0.8,2.1l0.4,0.3l0.1,0l1.5-3.8l0.8,0.3l0.1,0l0-0.5
			l-3.9-1.5l-0.1,0L42.2,103z M40.8,102.3l-0.7,1.4c-0.1,0.3-0.3,0.4-0.6,0.4c-0.3,0-0.6,0-0.8-0.2c-0.6-0.3-0.6-0.9-0.5-1
			c0,0,0.1-0.1,0.2-0.1c0.6,0.1,0.9,0,1.1-0.4c0.1-0.2,0.1-0.5,0.1-0.9L40.8,102.3z M38.1,101l1,0.5c0.1,0.2,0.1,0.4,0,0.6
			c-0.2,0.3-0.7,0.3-1.3,0.2l-0.1,0c-0.1,0.9,0,1.8,0.8,2.2c0.3,0.2,0.6,0.2,1,0.2l-0.6,1.1l0.4,0.4l0.1,0l1.9-3.6l0.7,0.4l0.1,0
			l0-0.5l-3.9-2l-0.1,0L38.1,101z M36.7,100.2l-0.9,1.3c-0.2,0.3-0.4,0.4-0.6,0.4c-0.3,0-0.6-0.1-0.8-0.2c-0.6-0.4-0.5-1-0.4-1.1
			c0,0,0.1-0.1,0.2,0c0.6,0.1,0.9,0.1,1.2-0.3c0.1-0.2,0.2-0.5,0.2-0.9L36.7,100.2z M33.5,98.5c0.1-0.7,0.2-1.1-0.4-1.5
			c-0.4-0.3-0.9-0.2-1.2,0.3c-0.2,0.4-0.2,0.9,0.1,1.5c-0.2,0.1-0.3,0.2-0.4,0.3c-0.1,0.2-0.2,0.5-0.1,0.9c0.1,0.5,0.4,0.8,0.7,1
			c0.4,0.3,0.9,0.3,1.5,0.1c0.1,0.5,0.3,0.8,0.7,1.1c0.3,0.2,0.6,0.3,0.9,0.3l-0.7,1.1l0.4,0.4l0.1,0l2.2-3.4l0.7,0.4l0.1,0l0.1-0.5
			L34,97.9l-0.1,0l-0.1,0.5l1.2,0.8c0,0.2,0,0.4-0.1,0.6c-0.2,0.3-0.7,0.2-1.3,0l-0.1,0c-0.1,0.2-0.1,0.4-0.1,0.6
			c-0.6,0.2-1,0.1-1.4-0.1c-0.3-0.2-0.4-0.5-0.3-0.8c0.2-0.3,0.7-0.3,1.4,0l0,0l0-0.6c-0.5-0.2-0.8-0.3-0.9-0.3
			c-0.3-0.2-0.5-0.5-0.3-0.8c0.2-0.3,0.5-0.4,0.9-0.2c0.3,0.2,0.3,0.4,0.2,0.9l0,0L33.5,98.5z M28.2,94.4c0.5,0.1,0.9,0.2,1.1,0.4
			c0.2,0.2,0.3,0.5,0.1,0.7c-0.2,0.2-0.4,0.2-0.7,0.2c-0.2-0.2-0.6-0.4-1.1-0.5l0,0l-0.1,0.6c0.4,0.1,0.6,0.2,0.8,0.4
			c0.3,0.3,0.3,0.6,0.1,0.9c-0.3,0.3-0.9,0.3-1.2,0c-0.5-0.4-0.6-1.2-0.3-2.2l-0.3-0.1l0,0C26.2,96,26.2,97,27,97.6
			c0.5,0.4,1.1,0.4,1.6-0.1c0.1-0.1,0.2-0.2,0.2-0.4l0,0c0.1,0.2,0.2,0.4,0.4,0.6c0.1,0.1,0.2,0.2,0.3,0.2l-1.1,1.2l0.3,0.4l0.1,0
			l2.7-3.1l0.6,0.5l0.1,0l0.1-0.5l-1.7-1.4l-0.1,0l-0.1,0.5l0.7,0.6l-1.1,1.2c-0.3,0-0.5-0.1-0.7-0.3c-0.2-0.2-0.3-0.3-0.3-0.5
			c0-0.1,0-0.2-0.1-0.4c0.2,0,0.4-0.1,0.6-0.3c0.2-0.2,0.3-0.5,0.3-0.8c0-0.4-0.1-0.8-0.4-1c-0.2-0.2-0.6-0.3-1.1-0.4l0,0L28.2,94.4
			z M25.3,90.9l0.4,0.5l-3.2,2.4l0.2,0.5l0.1,0l3.3-2.5l0.5,0.6l0.1,0l0.2-0.4l-0.4-0.5c1-1.1,0.9-2.4,0.2-3.3
			c-0.5-0.6-1.3-0.8-1.8-0.4c-0.2,0.1-0.3,0.3-0.4,0.5l0.1,0.5l0.1,0c0.1-0.2,0.1-0.3,0.4-0.5c0.3-0.3,1-0.3,1.5,0.4
			c0.6,0.8,0.5,1.7-0.3,2.4l-0.5-0.6l-0.1,0L25.3,90.9z M22.1,89.9c-0.6-0.1-1-0.2-1.3-0.5c-0.2-0.3-0.2-0.6,0.1-0.8
			c0.4-0.3,1-0.2,1.4,0.3c0.1,0.2,0.3,0.4,0.4,0.6L22.1,89.9z M22,86.7l1.6,2.1L23,89.3c-0.1-0.3-0.3-0.6-0.5-0.9
			c-0.5-0.6-1.1-0.8-1.7-0.4c-0.6,0.4-0.7,1.3-0.2,1.9c0.2,0.2,0.5,0.4,0.8,0.5l0,0l-1.1,0.8l0.2,0.5l0.1,0l1.5-1.2
			c0.6,0,1.1,0.1,1.3,0.4c0.1,0.2,0.1,0.4-0.1,0.5c-0.3,0.2-0.9,0.3-1.5,0.3l0,0.6l0,0c0.6,0,1.1-0.1,1.5-0.4c0.5-0.4,0.6-1,0.3-1.5
			c-0.2-0.3-0.5-0.4-0.9-0.5l0,0l1.1-0.8l1.4,1.8l0.1,0l0.2-0.4l-3.4-4.3l-0.1,0L22,86.7z M20.6,84.7l0.3,0.5l-3.5,1.9l0.1,0.5
			l0.1,0l3.6-2l0.4,0.7l0.1,0l0.3-0.4l-0.3-0.6c1-0.7,1.3-1.8,0.8-2.6c-0.3-0.5-0.8-0.6-1.2-0.4c-0.2,0.1-0.4,0.4-0.5,0.7l0,0.5
			l0.1,0c0.1-0.3,0.3-0.5,0.5-0.6c0.3-0.2,0.7-0.1,0.9,0.3c0.3,0.5,0.1,1.1-0.8,1.7L21,84.3l-0.1,0L20.6,84.7z M18.6,81.2l1.4,2.4
			L19,84.3c-0.2-0.4-0.4-0.8-0.6-1.2c-0.2-0.3-0.3-0.5-0.6-0.7c-0.2-0.1-0.4-0.2-0.5-0.1c-0.3,0.2-0.6,1-0.5,1.2
			c0.1,0.1,0.2,0.2,0.3,0.2c0.1,0,0.2-0.1,0.4-0.1l0.3-0.2c0.1,0.1,0.3,0.3,0.4,0.6c0.1,0.2,0.2,0.4,0.3,0.6l-2,1.1l0.1,0.5l0.1,0
			l3.6-2l0.4,0.7l0.1,0l0.3-0.4L19,80.8l-0.1,0L18.6,81.2z M15.6,79.2c-0.6-0.2-0.9-0.5-1.1-0.8c-0.2-0.3-0.1-0.6,0.3-0.8
			c0.4-0.2,1,0.1,1.3,0.6c0.1,0.2,0.2,0.4,0.2,0.6L15.6,79.2z M16.2,76l1.1,2.4l-0.7,0.3c-0.1-0.4-0.2-0.7-0.3-1
			c-0.3-0.7-0.9-1-1.5-0.7c-0.7,0.3-1,1.1-0.6,1.8c0.1,0.3,0.4,0.5,0.7,0.7l0,0l-1.2,0.5l0.1,0.5l0.1,0l1.7-0.8
			c0.6,0.1,1,0.4,1.2,0.7c0.1,0.2,0,0.4-0.2,0.5c-0.4,0.2-0.9,0.1-1.5-0.1l-0.1,0.6l0,0c0.6,0.1,1.1,0.2,1.6,0
			c0.6-0.2,0.9-0.9,0.6-1.4c-0.1-0.3-0.4-0.5-0.8-0.7l0,0l1.3-0.6l1,2.1l0.1,0l0.3-0.4l-2.3-4.9l-0.1,0L16.2,76z M15.1,72l0.8,2.7
			L15,75c-0.1-0.3-0.2-0.6-0.2-0.9c-0.3-1.1-0.8-1.3-1.5-1.2c-0.7,0.2-1.3,0.8-1.8,1.8l0,0l0.6,0.2c0.3-0.9,0.6-1.5,1.1-1.6
			c0.4-0.1,0.8,0.2,1.1,1.1c0.1,0.2,0.1,0.5,0.2,0.7L12,75.8l0,0.5l0.1,0l4-1.1l0.2,0.8l0.1,0l0.4-0.3l-1.2-4l-0.1,0L15.1,72z"/>
		<rect x="3.7" y="3.7" class="st8" width="114.3" height="112"/>
	</g>
	<g>
		<path class="st9" d="M159.1,25.6v37.7h-12.6V25.6h-18.8V13.1H178v12.6H159.1z"/>
		<path class="st9" d="M234.5,28.8l-12.6,1.6v-1.6c0-2.1-1-3.1-3.1-3.1h-18.8c-2.1,0-3.1,1-3.1,3.1c0,2.1,1,3.1,3.1,3.1h18.8
			c10.5,0,15.7,5.2,15.7,15.7c0,10.5-5.2,15.7-15.7,15.7h-18.8c-10.5,0-15.7-5.2-15.7-15.7l12.6-1.6v1.6c0,2.1,1,3.1,3.1,3.1h18.8
			c2.1,0,3.1-1,3.1-3.1c0-2.1-1-3.1-3.1-3.1h-18.8c-10.5,0-15.7-5.2-15.7-15.7c0-10.5,5.2-15.7,15.7-15.7h18.8
			C229.2,13.1,234.5,18.3,234.5,28.8z"/>
		<path class="st9" d="M290.9,28.8l-12.6,1.6v-1.6c0-2.1-1-3.1-3.1-3.1h-18.8c-2.1,0-3.1,1-3.1,3.1c0,2.1,1,3.1,3.1,3.1h18.8
			c10.5,0,15.7,5.2,15.7,15.7c0,10.5-5.2,15.7-15.7,15.7h-18.8c-10.5,0-15.7-5.2-15.7-15.7l12.6-1.6v1.6c0,2.1,1,3.1,3.1,3.1h18.8
			c2.1,0,3.1-1,3.1-3.1c0-2.1-1-3.1-3.1-3.1h-18.8c-10.5,0-15.7-5.2-15.7-15.7c0-10.5,5.2-15.7,15.7-15.7h18.8
			C285.7,13.1,290.9,18.3,290.9,28.8z"/>
		<path class="st9" d="M297.2,13.1h34.5c10.5,0,15.7,5.2,15.7,15.7c0,10-4.8,15.2-14.4,15.7l18.9,18.9h-17.7l-18.8-18.8h-5.6v18.8
			h-12.6V13.1z M309.8,25.6v6.3h22c2.1,0,3.1-1,3.1-3.1c0-2.1-1-3.1-3.1-3.1H309.8z"/>
		<path class="st9" d="M166.7,85V87l-7.8,1.9V85c0-1.3-0.6-1.9-1.9-1.9h-11.6c-1.3,0-1.9,0.6-1.9,1.9v11.6c0,1.3,0.6,1.9,1.9,1.9
			H157c1.3,0,1.9-0.6,1.9-1.9v-3.9l7.8,1.9v1.9c0,6.5-3.2,9.7-9.7,9.7h-11.6c-6.5,0-9.7-3.2-9.7-9.7V85c0-6.5,3.2-9.7,9.7-9.7H157
			C163.5,75.3,166.7,78.6,166.7,85z"/>
		<path class="st9" d="M191.9,75.3c6.5,0,9.7,3.2,9.7,9.7v11.6c0,6.5-3.2,9.7-9.7,9.7h-11.6c-6.5,0-9.7-3.2-9.7-9.7V85
			c0-6.5,3.2-9.7,9.7-9.7H191.9z M193.9,85c0-1.3-0.6-1.9-1.9-1.9h-11.6c-1.3,0-1.9,0.6-1.9,1.9v11.6c0,1.3,0.6,1.9,1.9,1.9h11.6
			c1.3,0,1.9-0.6,1.9-1.9V85z"/>
		<path class="st9" d="M228.8,96.7V75.3h7.8v21.3c0,6.5-3.2,9.7-9.7,9.7h-11.6c-6.5,0-9.7-3.2-9.7-9.7V75.3h7.8v21.3
			c0,1.3,0.6,1.9,1.9,1.9h11.6C228.1,98.6,228.8,98,228.8,96.7z"/>
		<path class="st9" d="M248.2,88.6v17.8h-7.8v-31h5.5l17.8,17.8V75.3h7.8v31H266L248.2,88.6z"/>
		<path class="st9" d="M306.4,85V87l-7.8,1.9V85c0-1.3-0.6-1.9-1.9-1.9h-11.6c-1.3,0-1.9,0.6-1.9,1.9v11.6c0,1.3,0.6,1.9,1.9,1.9
			h11.6c1.3,0,1.9-0.6,1.9-1.9v-3.9l7.8,1.9v1.9c0,6.5-3.2,9.7-9.7,9.7h-11.6c-6.5,0-9.7-3.2-9.7-9.7V85c0-6.5,3.2-9.7,9.7-9.7h11.6
			C303.2,75.3,306.4,78.6,306.4,85z"/>
		<path class="st9" d="M318,106.4h-7.8v-31h7.8V106.4z"/>
		<path class="st9" d="M321.9,75.3h7.8v23.3H353v7.8h-31V75.3z"/>
	</g>
</g>
</svg>
