<?xml version="1.0" encoding="utf-8"?>
<!-- Generator: Adobe Illustrator 27.3.1, SVG Export Plug-In . SVG Version: 6.00 Build 0)  -->
<svg version="1.1" id="Layer_1" xmlns="http://www.w3.org/2000/svg" xmlns:xlink="http://www.w3.org/1999/xlink" x="0px" y="0px"
	 viewBox="0 0 114.3 112" style="enable-background:new 0 0 114.3 112;" xml:space="preserve">
<style type="text/css">
	.st0{fill-rule:evenodd;clip-rule:evenodd;fill:#003181;}
	.st1{fill:#FFFFFF;}
	.st2{fill-rule:evenodd;clip-rule:evenodd;fill:#FFFFFF;}
	.st3{fill-rule:evenodd;clip-rule:evenodd;fill:#2562BE;}
	.st4{fill-rule:evenodd;clip-rule:evenodd;fill:#CA6600;}
	.st5{fill:#003181;}
	.st6{fill:none;stroke:#003181;stroke-width:0.268;stroke-miterlimit:2.613;}
	.st7{fill:none;stroke:#FFFFFF;stroke-width:5.788923e-02;stroke-miterlimit:2.613;}
	.st8{fill:none;}
</style>
<g>
	<path class="st0" d="M57.1,16.2C79.6,16.2,97.7,34,97.7,56S79.6,95.7,57.1,95.7S16.6,77.9,16.6,56S34.7,16.2,57.1,16.2 M57.1,1.1
		c31,0,56.1,24.6,56.1,54.9s-25.1,54.9-56.1,54.9S1.1,86.3,1.1,56S26.2,1.1,57.1,1.1"/>
	<path class="st1" d="M108.9,51.7l0.3,0.8l-5.1,0.1c-0.6,0-0.9,0.1-1,0.4c-0.3-0.1-0.5-0.3-0.5-0.6c0-0.4,0.3-0.5,1-0.6L108.9,51.7z
		 M102.5,50l3.7-0.2l0-0.4l0.9,0l0.1,1.2l-4.5,0.2L102.5,50z M108.8,50.1c0,0.1,0,0.2-0.2,0.3c-0.1,0.1-0.3,0.1-0.4,0.2
		c-0.2,0-0.3,0-0.4-0.1c-0.1-0.1-0.2-0.2-0.2-0.3c0-0.1,0-0.2,0.2-0.3c0.1-0.1,0.3-0.1,0.4-0.2c0.2,0,0.3,0,0.4,0.1
		C108.8,49.8,108.8,49.9,108.8,50.1 M106.6,48.7l-0.8-0.3c0.2-0.2,0.3-0.5,0.3-0.8c0-0.3-0.2-0.5-0.5-0.7c-0.3-0.1-0.7-0.2-1.1-0.1
		c-0.9,0.1-1.4,0.5-1.3,1.2c0,0.3,0.2,0.5,0.5,0.7l-0.8,0.4c-0.2-0.2-0.4-0.4-0.4-0.6c-0.1-0.2-0.1-0.4-0.1-0.6
		c-0.1-0.5,0.1-1,0.5-1.3c0.4-0.3,0.9-0.6,1.6-0.6c0.7-0.1,1.3,0,1.8,0.3c0.5,0.3,0.7,0.7,0.8,1.3C107,48,106.9,48.4,106.6,48.7
		 M101.8,44.8l2.6-0.5c0.4-0.1,0.6-0.2,0.8-0.3c0.2-0.1,0.2-0.3,0.1-0.6c0-0.1-0.1-0.2-0.2-0.3c-0.1-0.1-0.2-0.2-0.4-0.2l-3.2,0.6
		l-0.2-0.8l4.4-0.8l0.1,0.6l-0.4,0.2c0.4,0.1,0.6,0.4,0.7,0.8c0.1,0.4,0,0.7-0.3,1c-0.3,0.3-0.7,0.5-1.3,0.6l-2.7,0.5L101.8,44.8z
		 M100.8,41.1l0.4-0.1c-0.2-0.1-0.3-0.2-0.5-0.3c-0.2-0.2-0.3-0.3-0.3-0.5c-0.3-0.7,0.1-1.3,1.2-1.6l2.8-0.9l0.3,0.8l-2.7,0.8
		c-0.6,0.2-0.8,0.4-0.6,0.8c0.1,0.2,0.2,0.3,0.3,0.4c0.2,0.1,0.3,0.2,0.5,0.2l3-0.9l0.3,0.8l-4.3,1.3L100.8,41.1z M100.9,35.3
		c-0.9,0.4-1.2,0.8-1,1.3c0.1,0.2,0.3,0.4,0.6,0.4c0.3,0,0.7,0,1.1-0.2c0.9-0.4,1.2-0.8,1-1.3c-0.1-0.2-0.3-0.4-0.6-0.4
		C101.7,35.1,101.3,35.1,100.9,35.3 M100.5,34.6c0.6-0.3,1.2-0.3,1.7-0.2c0.5,0.1,0.9,0.4,1.1,0.8c0.2,0.5,0.2,0.9,0,1.3
		c-0.3,0.4-0.7,0.8-1.4,1c-0.7,0.3-1.2,0.4-1.8,0.3c-0.5-0.1-0.9-0.4-1.1-0.8c-0.2-0.5-0.2-0.9,0.1-1.3
		C99.4,35.2,99.9,34.8,100.5,34.6 M103.4,32.2l-1,0.1c0.1-0.3,0.1-0.6-0.2-0.9c-0.2-0.3-0.6-0.5-1.1-0.5c-0.5,0-1,0.1-1.6,0.4
		c-0.6,0.3-1,0.7-1.2,1c-0.2,0.4-0.2,0.7,0,1.1c0.2,0.4,0.6,0.6,1.1,0.6l-0.6,0.7c-0.6-0.1-1.1-0.4-1.4-0.9
		c-0.4-0.6-0.4-1.1-0.1-1.7c0.3-0.6,0.9-1.1,1.7-1.6c0.8-0.4,1.6-0.6,2.3-0.6c0.7,0.1,1.3,0.4,1.6,0.9
		C103.3,31.4,103.4,31.8,103.4,32.2 M94.4,29.2l2.2-1.5c0.2-0.2,0.4-0.3,0.4-0.5c0-0.2,0-0.4-0.1-0.6c-0.1-0.1-0.2-0.2-0.4-0.2
		c-0.2-0.1-0.3-0.1-0.4,0L93.5,28L93,27.4l5-3.4l0.7,0.5l-1.8,1.2c0.3,0,0.6,0.2,0.8,0.5c0.3,0.3,0.4,0.7,0.3,1.1
		c-0.1,0.4-0.4,0.7-0.9,1l-2.2,1.5L94.4,29.2z M95.6,24.2l-0.8,0.2c0-0.3-0.1-0.5-0.3-0.8c-0.2-0.2-0.5-0.3-0.8-0.3
		c-0.3,0-0.7,0.2-1,0.5c-0.7,0.6-0.8,1.1-0.3,1.6c0.2,0.2,0.5,0.3,0.9,0.3l-0.4,0.7c-0.3,0-0.5-0.1-0.7-0.2
		c-0.2-0.1-0.3-0.2-0.5-0.4c-0.4-0.4-0.5-0.8-0.5-1.3c0.1-0.5,0.4-0.9,0.9-1.4c0.5-0.4,1.1-0.7,1.6-0.7c0.6,0,1.1,0.2,1.5,0.6
		C95.5,23.5,95.6,23.8,95.6,24.2 M92.4,22c0-0.2-0.1-0.3-0.2-0.4c-0.1-0.1-0.3-0.2-0.6-0.1c-0.3,0-0.5,0.2-0.7,0.4l-1.8,1.7L88.4,23
		l3.1-3l0.6,0.5l-0.3,0.3c0.4-0.1,0.8,0,1,0.3c0.2,0.2,0.3,0.4,0.4,0.5L92.4,22z M88.5,20.3c-0.1-0.1-0.2-0.2-0.2-0.2
		c-0.5-0.4-1-0.4-1.3,0c-0.3,0.3-0.2,0.5,0.1,0.8c0.4,0.3,0.8,0.2,1.2-0.2L88.5,20.3z M87.5,21.6c-0.2,0.1-0.3,0.1-0.6,0
		c-0.2,0-0.4-0.1-0.6-0.2c-0.3-0.2-0.5-0.5-0.5-0.8c0-0.3,0.1-0.6,0.4-0.9c0.3-0.4,0.7-0.6,1.2-0.6c0.4,0,0.9,0.1,1.3,0.5
		c0.1,0.1,0.2,0.1,0.2,0.3c0.3-0.4,0.3-0.7-0.1-1c-0.2-0.2-0.5-0.3-0.8-0.3l0.4-0.7c0.3,0,0.7,0.2,1,0.4c0.4,0.3,0.6,0.7,0.7,1.1
		c0,0.4-0.3,0.9-0.8,1.5l-0.6,0.7c-0.4,0.4-0.6,0.8-0.5,1c-0.2,0.1-0.3,0.1-0.4,0.1c-0.1,0-0.2-0.1-0.3-0.1
		c-0.1-0.1-0.1-0.2-0.1-0.3C87.4,21.8,87.4,21.7,87.5,21.6 M84.4,16.8l1.5,0.9c0.3-0.5,0.2-0.9-0.2-1.2
		C85.3,16.2,84.8,16.3,84.4,16.8 M86.1,18.7l-2.2-1.3c-0.2,0.3-0.3,0.6-0.2,0.8c0,0.2,0.2,0.5,0.5,0.6c0.3,0.2,0.6,0.3,1,0.2
		L85,19.8c-0.4,0.1-0.9,0-1.4-0.3c-0.5-0.3-0.7-0.7-0.8-1.1c-0.1-0.5,0.1-1,0.5-1.6c0.4-0.6,0.9-0.9,1.4-1.1c0.5-0.2,1-0.1,1.4,0.1
		c0.4,0.3,0.7,0.6,0.8,1.1c0.1,0.5-0.1,0.9-0.4,1.4C86.4,18.4,86.3,18.5,86.1,18.7 M79.7,16.8l0.7-0.5c0.1,0.3,0.3,0.6,0.6,0.7
		c0.3,0.2,0.5,0.1,0.7-0.1c0.1-0.1,0.1-0.3,0.1-0.4c0-0.1-0.1-0.3-0.3-0.6c-0.4-0.6-0.4-1.1-0.1-1.5c0.2-0.3,0.5-0.5,0.8-0.6
		c0.3-0.1,0.6,0,1,0.2c0.3,0.2,0.6,0.4,0.8,0.7l-0.6,0.5c-0.1-0.2-0.2-0.4-0.5-0.6c-0.3-0.1-0.5-0.1-0.6,0.1c-0.1,0.1-0.1,0.2,0,0.3
		c0,0.1,0.2,0.3,0.4,0.6c0.2,0.3,0.3,0.5,0.3,0.8c0,0.2-0.1,0.5-0.2,0.7c-0.2,0.3-0.5,0.5-0.8,0.6c-0.3,0.1-0.7,0-1.1-0.2
		c-0.2-0.1-0.4-0.2-0.5-0.3C79.9,17.2,79.8,17,79.7,16.8 M77.9,13.5l1.6,0.7c0.2-0.6,0.1-1-0.4-1.2C78.7,12.9,78.2,13,77.9,13.5
		 M79.8,15.2l-2.4-1c-0.1,0.3-0.2,0.6-0.1,0.8c0.1,0.2,0.3,0.4,0.5,0.5c0.4,0.2,0.7,0.2,1,0l-0.1,0.8c-0.4,0.1-0.9,0.1-1.4-0.2
		c-0.5-0.2-0.8-0.6-0.9-1c-0.1-0.5,0-1,0.3-1.6c0.3-0.6,0.7-1,1.2-1.2c0.5-0.2,1-0.2,1.5,0c0.5,0.2,0.8,0.5,0.9,1
		c0.1,0.5,0,0.9-0.2,1.4C80.1,14.9,80,15,79.8,15.2 M74.7,9.8l-0.6,1.5c0.2,0.1,0.3,0.1,0.3,0.1c0.4,0.1,0.6,0.1,0.8,0.1
		c0.2-0.1,0.4-0.3,0.5-0.6c0.1-0.3,0.1-0.5-0.1-0.6c-0.1-0.2-0.4-0.3-0.8-0.4C74.9,9.9,74.8,9.8,74.7,9.8 M74.8,15l-0.4-2.6
		c-0.1,0-0.3-0.1-0.5-0.2L73,14.4l-0.9-0.3l2-5.4c0,0,0.2,0.1,0.6,0.1C75,8.9,75.3,9,75.5,9.1c1.2,0.4,1.6,1.1,1.2,2.2
		c-0.1,0.3-0.3,0.6-0.6,0.8c-0.3,0.2-0.5,0.3-0.8,0.4l0.5,2.9L74.8,15z M69.5,7.5l0.9,0l-1.2,4.6c-0.1,0.5-0.1,0.8,0.2,1
		c-0.2,0.3-0.5,0.3-0.8,0.3c-0.4-0.1-0.5-0.4-0.3-1L69.5,7.5z M67.3,7.1L68.1,7l-1,4.6c-0.1,0.5,0,0.8,0.2,1
		c-0.2,0.3-0.4,0.4-0.8,0.3c-0.4-0.1-0.5-0.4-0.4-1L67.3,7.1z M64.1,12.5l0.5-3.3l-0.5-0.1l0.1-0.8l1.3,0.2l-0.6,4.1L64.1,12.5z
		 M65.3,6.8c0.1,0,0.2,0.1,0.3,0.2c0.1,0.1,0.1,0.3,0.1,0.4c0,0.2-0.1,0.3-0.2,0.4c-0.1,0.1-0.2,0.1-0.4,0.1c-0.1,0-0.2-0.1-0.3-0.2
		c-0.1-0.1-0.1-0.3-0.1-0.4c0-0.2,0.1-0.3,0.2-0.4C65.1,6.8,65.2,6.8,65.3,6.8 M62.3,12.3l-1-1.9l-0.4,0.5l-0.1,1.4l-0.9,0l0.3-5.7
		l0.9-0.2l-0.2,3.4l1.3-1.6l1,0L62,9.7l1.4,2.6L62.3,12.3z M56.2,11.9l0.3-0.9c0.4,0.3,0.7,0.4,1.1,0.4c0.5,0,0.8-0.2,0.8-0.6
		c0-0.2-0.1-0.4-0.2-0.6c-0.1-0.2-0.4-0.4-0.8-0.6c-0.4-0.2-0.7-0.4-0.8-0.5c-0.1-0.1-0.2-0.3-0.3-0.5c-0.1-0.2-0.1-0.4-0.1-0.6
		c0-0.4,0.1-0.8,0.4-1.1c0.3-0.3,0.6-0.5,1.1-0.5c0.6,0,1,0.1,1.3,0.3l-0.3,0.9c-0.3-0.2-0.7-0.4-1-0.4c-0.2,0-0.4,0.1-0.5,0.2
		C57,7.6,57,7.8,57,8c0,0.3,0.3,0.7,1,1c0.3,0.2,0.6,0.3,0.7,0.5c0.2,0.2,0.3,0.3,0.4,0.5c0.1,0.2,0.1,0.4,0.1,0.7
		c0,0.5-0.1,0.8-0.5,1.2c-0.3,0.3-0.7,0.5-1.3,0.5C57,12.3,56.5,12.2,56.2,11.9 M52,9.4c-0.2-0.1-0.4-0.2-0.6-0.2
		c-0.3,0.1-0.6,0.2-0.7,0.5c-0.1,0.3-0.2,0.6-0.1,1.1c0.2,0.9,0.6,1.2,1.3,1.1c0.1,0,0.2-0.1,0.3-0.1c0.1-0.1,0.2-0.1,0.2-0.2
		L52,9.4z M52.6,12.5l0-0.2c-0.1,0.1-0.2,0.2-0.3,0.3c-0.2,0.1-0.3,0.2-0.5,0.2c-0.5,0.1-0.9,0-1.3-0.3c-0.4-0.3-0.6-0.8-0.7-1.5
		c-0.1-0.6-0.1-1.2,0.2-1.7c0.3-0.5,0.6-0.7,1.1-0.8c0.3,0,0.5,0,0.8,0.1l-0.3-1.6l0.8-0.4l1.1,5.9L52.6,12.5z M48.4,13.2l-0.7-2.3
		c-0.1-0.3-0.2-0.6-0.4-0.7C47.2,10,47,10,46.7,10.1c-0.1,0-0.2,0.1-0.4,0.2c-0.1,0.1-0.2,0.2-0.2,0.4l0.8,2.9l-0.8,0.2l-1.2-4
		l0.6-0.1l0.3,0.3c0.1-0.4,0.4-0.6,0.9-0.7c0.4-0.1,0.8,0,1.1,0.2c0.3,0.2,0.6,0.6,0.7,1.1l0.7,2.5L48.4,13.2z M43.8,12.4
		c-0.2,0-0.3,0-0.3,0.1c-0.6,0.2-0.9,0.5-0.7,1c0.1,0.4,0.4,0.5,0.7,0.4c0.5-0.1,0.6-0.5,0.4-1.1L43.8,12.4z M44.4,13.8
		c0,0.2-0.1,0.3-0.3,0.5c-0.2,0.1-0.3,0.2-0.5,0.3c-0.4,0.1-0.7,0.1-1,0c-0.3-0.1-0.5-0.4-0.6-0.8c-0.2-0.5-0.1-0.9,0.1-1.2
		c0.2-0.4,0.6-0.6,1.2-0.8c0.1,0,0.2,0,0.4-0.1c-0.2-0.5-0.5-0.6-1-0.5c-0.3,0.1-0.5,0.2-0.7,0.4L41.3,11c0.2-0.2,0.5-0.4,0.9-0.5
		c0.5-0.2,1-0.1,1.3,0.1c0.3,0.2,0.7,0.7,0.9,1.4l0.3,0.8c0.2,0.5,0.4,0.8,0.6,0.9c0,0.2-0.1,0.3-0.1,0.3c-0.1,0.1-0.2,0.1-0.3,0.1
		c-0.1,0-0.2,0-0.4-0.1C44.5,14,44.4,14,44.4,13.8 M39,17.1c0.1,0.3,0,0.6-0.2,0.9c-0.2,0.3-0.5,0.5-0.8,0.7l-0.4-0.8
		c0.6-0.3,0.8-0.6,0.6-0.9c-0.1-0.2-0.4-0.5-0.8-0.9l-2.6-2.4l0.8-0.4l2.3,2.2l-0.6-3l0.8-0.4L39,17.1z M34,15.3
		c-0.3-0.1-0.5,0-0.6,0.1c-0.3,0.2-0.5,0.4-0.5,0.7c0,0.3,0.1,0.6,0.3,1c0.5,0.7,1,0.9,1.7,0.6c0.1,0,0.1-0.1,0.2-0.2
		c0.1-0.1,0.1-0.2,0.1-0.3L34,15.3z M35.8,18l-0.1-0.2c0,0.1-0.1,0.2-0.2,0.4c-0.1,0.1-0.2,0.3-0.4,0.3c-0.4,0.2-0.9,0.3-1.4,0.1
		c-0.5-0.2-0.9-0.5-1.2-1.1c-0.4-0.6-0.5-1.1-0.5-1.6c0.1-0.5,0.3-0.9,0.7-1.1c0.2-0.1,0.5-0.2,0.8-0.2l-0.9-1.4l0.6-0.6l3.3,5.1
		L35.8,18z M32.3,20.1l-0.2-0.3c0,0.2-0.1,0.3-0.2,0.5c-0.1,0.2-0.2,0.3-0.4,0.4c-0.7,0.5-1.4,0.3-2-0.5l-1.8-2.2l0.7-0.5l1.7,2.1
		c0.3,0.4,0.7,0.5,1,0.3c0.2-0.1,0.3-0.3,0.3-0.4c0.1-0.2,0.1-0.4,0-0.5l-1.9-2.3l0.7-0.5l2.7,3.3L32.3,20.1z M25.8,20.6l-0.3,0.3
		l-0.6-0.6l0.3-0.3l-0.6-0.6l0.4-0.8l0.9,0.9l0.7-0.6l0.6,0.6l-0.7,0.6l1.4,1.3c0.2,0.2,0.4,0.3,0.6,0.4c0.2,0,0.3,0,0.5-0.1
		c0.2-0.1,0.2-0.3,0.3-0.5l0.7,0.6c-0.1,0.2-0.3,0.4-0.5,0.6c-0.3,0.2-0.6,0.3-0.9,0.3c-0.3,0-0.6-0.2-1-0.5L25.8,20.6z M25.3,25.4
		l-0.5-0.9c0.5,0,0.8-0.2,1.1-0.4c0.4-0.3,0.4-0.7,0.1-1c-0.1-0.1-0.3-0.2-0.6-0.3c-0.2,0-0.6,0-1,0.1c-0.4,0.1-0.8,0.1-1,0.1
		c-0.2,0-0.4-0.1-0.6-0.1c-0.2-0.1-0.4-0.2-0.6-0.4c-0.3-0.3-0.5-0.7-0.5-1.1c0-0.4,0.1-0.7,0.4-1c0.4-0.4,0.8-0.6,1.2-0.6l0.5,0.8
		c-0.4,0-0.8,0.2-1,0.4c-0.1,0.1-0.2,0.3-0.2,0.4c0,0.2,0.1,0.3,0.2,0.4c0.3,0.2,0.7,0.3,1.5,0.1c0.4-0.1,0.7-0.1,0.9-0.1
		c0.2,0,0.4,0.1,0.7,0.2c0.2,0.1,0.4,0.2,0.6,0.4c0.4,0.3,0.5,0.7,0.5,1.1c0,0.4-0.2,0.8-0.6,1.2C26.2,25.2,25.8,25.4,25.3,25.4
		 M18.3,24.8l0.3-0.8l4,2.9c0.4,0.3,0.8,0.4,1,0.3c0.2,0.3,0.1,0.5-0.1,0.8c-0.2,0.3-0.6,0.2-1.1-0.2L18.3,24.8z M20.2,28.7
		C20.1,28.8,20,28.9,20,29c-0.4,0.5-0.3,0.9,0.1,1.2c0.3,0.2,0.6,0.2,0.8-0.1c0.3-0.4,0.2-0.8-0.4-1.1L20.2,28.7z M21.7,29.5
		c0.1,0.1,0.1,0.3,0.1,0.5c0,0.2-0.1,0.4-0.2,0.5c-0.2,0.3-0.5,0.5-0.8,0.5c-0.3,0.1-0.7,0-1.1-0.3c-0.4-0.3-0.7-0.6-0.8-1
		c-0.1-0.4,0.1-0.8,0.4-1.3c0.1-0.1,0.1-0.2,0.2-0.2c-0.4-0.3-0.8-0.2-1.1,0.2c-0.2,0.2-0.3,0.5-0.3,0.7L17.3,29
		c0-0.3,0.1-0.6,0.4-0.9c0.3-0.4,0.7-0.7,1.1-0.7c0.4,0,1,0.2,1.7,0.6l0.8,0.5c0.5,0.3,0.9,0.4,1.1,0.3c0.1,0.1,0.1,0.2,0.1,0.3
		c0,0.1-0.1,0.2-0.1,0.3c-0.1,0.1-0.2,0.2-0.3,0.2C21.9,29.6,21.8,29.6,21.7,29.5 M16.8,30.1l0.5,0.6c-0.3,0.1-0.5,0.2-0.7,0.5
		c-0.2,0.3-0.2,0.5,0,0.8c0.1,0.3,0.4,0.5,0.8,0.7c0.8,0.4,1.4,0.3,1.8-0.3c0.1-0.3,0.2-0.5,0-0.9l0.9,0.1c0.1,0.3,0.1,0.5,0,0.7
		c0,0.2-0.1,0.4-0.2,0.6c-0.3,0.5-0.7,0.7-1.2,0.8c-0.5,0.1-1.1,0-1.7-0.3c-0.6-0.3-1.1-0.7-1.3-1.2c-0.2-0.5-0.2-1,0.1-1.5
		C16.1,30.5,16.4,30.2,16.8,30.1 M18.3,35.8L15,34.4l-0.2,0.4L14,34.4l0.6-1.1l4.1,1.8L18.3,35.8z M12.8,33c0.1-0.1,0.2-0.2,0.3-0.2
		c0.2,0,0.3,0,0.5,0.1c0.2,0.1,0.3,0.2,0.3,0.3c0.1,0.1,0.1,0.3,0,0.4c-0.1,0.1-0.2,0.2-0.3,0.2c-0.2,0-0.3,0-0.5-0.1
		c-0.2-0.1-0.3-0.2-0.3-0.3C12.8,33.2,12.8,33.1,12.8,33 M17.5,37.5L15,36.6c-0.4-0.1-0.6-0.2-0.9-0.1c-0.2,0-0.4,0.2-0.5,0.4
		c0,0.1-0.1,0.2,0,0.4c0,0.2,0.1,0.3,0.2,0.4l3,1.2l-0.3,0.7l-4.2-1.6l0.2-0.5l0.5,0c-0.2-0.3-0.2-0.7-0.1-1.1
		c0.2-0.4,0.5-0.6,0.9-0.7c0.4-0.1,0.9,0,1.4,0.2l2.6,1L17.5,37.5z M16,41.1l-2.7-0.8c-0.3-0.1-0.5-0.1-0.7,0
		c-0.2,0.1-0.3,0.2-0.4,0.4c0,0.1,0,0.3,0,0.4c0,0.2,0.1,0.3,0.2,0.4l3.1,0.9l-0.3,0.8l-5.9-1.7l0-0.8l2.1,0.6
		c-0.2-0.3-0.2-0.6-0.1-0.9c0.1-0.4,0.4-0.7,0.8-0.8c0.4-0.1,0.8-0.1,1.4,0l2.7,0.8L16,41.1z M11.1,43.2l0.7,0.5
		c-0.3,0.1-0.4,0.4-0.5,0.7c-0.1,0.3,0,0.6,0.2,0.8c0.2,0.2,0.6,0.4,1,0.4c0.9,0.2,1.5-0.1,1.6-0.8c0.1-0.3,0-0.6-0.2-0.8l0.9-0.1
		c0.1,0.3,0.2,0.5,0.2,0.7c0,0.2,0,0.4,0,0.6c-0.1,0.5-0.4,0.9-0.9,1.1c-0.5,0.2-1.1,0.3-1.8,0.2c-0.7-0.1-1.2-0.4-1.6-0.8
		c-0.4-0.4-0.5-0.9-0.4-1.4C10.5,43.7,10.7,43.4,11.1,43.2 M11.5,49.3l0.2-1.7c-0.7,0-1,0.2-1.1,0.7C10.6,48.8,10.9,49.1,11.5,49.3
		 M12.6,47l-0.3,2.4c0.4,0,0.7,0,0.9-0.2c0.2-0.2,0.3-0.4,0.4-0.7c0-0.4-0.1-0.6-0.3-0.9l0.8-0.2c0.3,0.3,0.4,0.7,0.3,1.3
		c-0.1,0.5-0.3,0.9-0.7,1.2c-0.4,0.3-1,0.4-1.7,0.3c-0.7-0.1-1.3-0.3-1.7-0.7c-0.4-0.4-0.6-0.8-0.5-1.2c0.1-0.5,0.3-0.9,0.7-1.1
		c0.4-0.3,0.9-0.4,1.5-0.3C12.1,46.9,12.3,46.9,12.6,47 M8.9,51.3l5.2,0.2l0,0.8l-5.2-0.2l-0.1,1.5l-1,0L8,49.7l1,0L8.9,51.3z"/>
	<polygon class="st2" points="10.5,55.7 11.5,58.5 14.4,58.5 12,60.2 13,63 10.5,61.3 8.1,63 9.1,60.2 6.6,58.5 9.6,58.5 	"/>
	<polygon class="st2" points="105.1,55.7 106,58.5 109,58.5 106.6,60.2 107.5,63 105.1,61.3 102.7,63 103.6,60.2 101.2,58.5 
		104.2,58.5 	"/>
	<path class="st0" d="M42.1,50.3l3.5-0.4l0.1-1.7l-4.2,0.5c-1.8,0.4-2.3,1.8-2.3,3.5l0,12.5c0.1,2.2,0.4,3.5,3,4L69,72.9
		c2.5,0.4,4.1-0.4,4-3.4l0-21.3c0-2.6-0.9-3.7-3.6-3.5l-11.2,1.5V48l11.5-1.7c1.2-0.2,1.7,0.5,1.7,1.8l-0.1,21.3
		c0.1,2-1.2,1.9-2.7,1.7l-26.2-4.3c-1-0.2-1.5-1.1-1.5-2.5l0-12.1C40.8,51.2,41.1,50.4,42.1,50.3"/>
	<path class="st0" d="M51.5,68.2c-1.4-0.7-2.8-1.6-4-2.8l0.4,2.1L51.5,68.2z"/>
	<path class="st0" d="M68.4,71.1l-5.1-0.8c2.6-0.3,5.5-1.1,8-2l0,1.7L68.4,71.1z"/>
	<path class="st0" d="M57.3,67.6c-3.8-0.4-7.2-1.9-10.1-4.5l0-1.2c4.7,4.9,13.9,5.3,24,3.1l0,1.4C66.4,67.7,61.9,68.1,57.3,67.6"/>
	<path class="st0" d="M58.5,64.4c-4.7-0.2-8-2-10.9-4.5l0.2-0.6c3.3,2.7,8.5,4.4,17.8,3.7c1.8-0.2,3.9-0.8,5.7-1.7L71.1,63
		C67.3,64.3,63,64.8,58.5,64.4"/>
	<path class="st0" d="M49,56.7l-0.4,1.1c5.9,3.6,13.2,4.7,22.6,1.8l-0.1-1.3c-3.8,1.5-7.9,1.7-12.1,1.6C54.6,59.5,51.6,58.4,49,56.7
		"/>
	<path class="st0" d="M60,57.8c-4.6-0.2-7.6-1.2-10-2.6l0.7-0.8c4.1,2.2,11.1,3,20.4,0.9v0.9C67.3,57.6,63.6,57.9,60,57.8"/>
	<path class="st0" d="M70.6,53c-6.2,2.3-12.2,2.2-18.2-0.2l1.1-0.8c5.2,1.7,10.5,1.8,15.7,0L70.6,53z"/>
	<path class="st0" d="M66.4,50.7c-3.6-1.3-7-1.3-10.1-0.1C59.6,51.1,63,51.2,66.4,50.7"/>
	<rect x="47" y="48.9" class="st3" width="3.1" height="2.8"/>
	<rect x="50.3" y="46" class="st0" width="3.1" height="2.8"/>
	<rect x="54.5" y="44.5" class="st3" width="3.1" height="2.8"/>
	<rect x="51.4" y="41.4" class="st0" width="2.3" height="2.1"/>
	<path class="st4" d="M34.2,36.1c-2.6-0.3-3.9,1.1-4.6,3.2C31.6,39.8,33.3,39.1,34.2,36.1 M32.4,40.5c-2.5-0.7-4,0.5-5.1,2.5
		C29.2,43.9,31,43.3,32.4,40.5 M26.1,38c-1.7,2.3-2.2,4.6-1.1,7C26.5,43.9,27.2,41.9,26.1,38 M29.1,44.1c-2.8,0.2-3.9,1.9-4.2,4.3
		C27.1,48.6,28.6,47.5,29.1,44.1 M23.2,42.9c-1.1,2.6-1.2,5,0.4,7.1C24.9,48.5,25.1,46.4,23.2,42.9 M27.2,48.8
		c-2.7,0.8-3.3,2.7-3,5.2C26.4,53.7,27.7,52.2,27.2,48.8 M21,47.9c-0.4,2.8,0.3,5.1,2.4,6.7C24.2,52.9,23.8,50.8,21,47.9 M20.5,52.7
		c-0.3,2.8,0.4,5.1,2.5,6.7C23.7,57.6,23.3,55.5,20.5,52.7 M26.7,53.4c-2.3,1.7-3.5,3.8-3.2,6.4C25.3,59.1,26.6,57.4,26.7,53.4
		 M20.4,58.2c0.2,2.6,1,5.1,3.5,5.5C24.5,61.9,23.9,60,20.4,58.2 M26.9,57.4c-2,2-2.8,4.3-2.1,6.8C26.5,63.3,27.5,61.4,26.9,57.4
		 M21.4,63.9c0.2,2.6,2.4,4.7,4.4,3.9C25.9,65.5,23.9,63.7,21.4,63.9 M27.7,61.2c-1.5,2.4-1.9,4.7-0.7,7.1C28.4,67,29,65,27.7,61.2
		 M23.1,69.1c1,2.4,3.5,3.4,5.1,2.1C28,68.8,25.8,68,23.1,69.1 M28.7,65.6c-0.4,3.5,0.4,5.9,1.6,6C31.5,69,30.4,66.9,28.7,65.6
		 M25.8,73.1c1.6,2,3,2,4.5,0C28.8,71.1,27.3,72,25.8,73.1 M29.5,34.1c-2,2.1-2.8,4.3-2,6.8C29.1,40,30.1,38.1,29.5,34.1"/>
	<path class="st4" d="M80.6,36.1c2.6-0.3,3.9,1.1,4.6,3.2C83.2,39.8,81.6,39.1,80.6,36.1 M82.5,40.5c2.5-0.7,4,0.5,5.1,2.5
		C85.6,43.9,83.9,43.3,82.5,40.5 M88.7,38c1.7,2.3,2.2,4.6,1.1,7C88.3,43.9,87.6,41.9,88.7,38 M85.8,44.1c2.8,0.2,3.9,1.9,4.2,4.3
		C87.8,48.6,86.2,47.5,85.8,44.1 M91.6,42.9c1.1,2.6,1.2,5-0.4,7.1C90,48.5,89.8,46.4,91.6,42.9 M87.6,48.8c2.7,0.8,3.3,2.7,3,5.2
		C88.4,53.7,87.2,52.2,87.6,48.8 M93.9,47.9c0.4,2.8-0.3,5.1-2.4,6.7C90.7,52.9,91.1,50.8,93.9,47.9 M94.4,52.7
		c0.3,2.8-0.4,5.1-2.5,6.7C91.1,57.6,91.5,55.5,94.4,52.7 M88.1,53.4c2.3,1.7,3.5,3.8,3.2,6.4C89.5,59.1,88.3,57.4,88.1,53.4
		 M94.5,58.2c-0.2,2.6-1,5.1-3.5,5.5C90.3,61.9,90.9,60,94.5,58.2 M87.9,57.4c2,2,2.8,4.3,2.1,6.8C88.3,63.3,87.4,61.4,87.9,57.4
		 M93.5,63.9c-0.2,2.6-2.4,4.7-4.4,3.9C89,65.5,90.9,63.7,93.5,63.9 M87.1,61.2c1.5,2.4,1.9,4.7,0.7,7.1C86.4,67,85.8,65,87.1,61.2
		 M91.7,69.1c-1,2.4-3.5,3.4-5.1,2.1C86.9,68.8,89.1,68,91.7,69.1 M86.2,65.6c0.4,3.5-0.4,5.9-1.6,6C83.3,69,84.4,66.9,86.2,65.6
		 M89.1,73.1c-1.6,2-3,2-4.5,0C86.1,71.1,87.6,72,89.1,73.1 M85.3,34.1c2,2.1,2.8,4.3,2,6.8C85.7,40,84.8,38.1,85.3,34.1"/>
	<path class="st5" d="M79.4,84.1l-3.6-3.8l1-0.9l2.7,2.9l1.7-1.6l0.8,0.9L79.4,84.1z M74.5,87.2l-2.7-4.4L73,82l2.7,4.4L74.5,87.2z
		 M70,87.1l0.1,0.1c0.2,0.6,0.3,1.1,0.1,1.5c-0.2,0.4-0.6,0.7-1.2,0.9l-0.4,0.2c-0.7,0.3-1.2,0.3-1.6,0.1c-0.4-0.2-0.7-0.6-1-1.4
		l-0.4-1c-0.3-0.7-0.3-1.3-0.2-1.7c0.2-0.4,0.6-0.7,1.3-1l0.4-0.1c0.7-0.3,1.2-0.3,1.6-0.1c0.4,0.2,0.7,0.6,0.9,1.2l0,0.1l-1.3,0.5
		l0-0.1c-0.1-0.2-0.2-0.4-0.3-0.4c-0.1-0.1-0.3,0-0.6,0.1c-0.3,0.1-0.5,0.2-0.5,0.4c-0.1,0.1,0,0.4,0.2,0.8l0.3,0.8
		c0.2,0.4,0.3,0.7,0.4,0.7c0.1,0.1,0.3,0.1,0.6,0c0.3-0.1,0.4-0.2,0.5-0.4c0.1-0.1,0-0.3,0-0.6l0-0.1L70,87.1z M57.4,91.8l-0.5-5.1
		l2.1-0.2l2,3.6l-0.4-3.8l1.3-0.1l0.5,5.1l-2.1,0.2l-2-3.7l0.4,3.8L57.4,91.8z M49.2,85.7l1.4,0.2l-0.4,3c-0.1,0.4,0,0.7,0,0.8
		c0.1,0.1,0.3,0.2,0.6,0.3l0.3,0c0.3,0,0.5,0,0.7-0.1c0.1-0.1,0.2-0.4,0.3-0.8l0.4-3l1.4,0.2l-0.5,3.1c-0.1,0.5-0.1,0.8-0.2,1
		c-0.1,0.2-0.2,0.4-0.4,0.5c-0.2,0.2-0.4,0.3-0.7,0.3c-0.3,0-0.6,0-1,0l-0.7-0.1c-0.4-0.1-0.7-0.1-1-0.3c-0.2-0.1-0.4-0.3-0.5-0.5
		c-0.1-0.2-0.2-0.4-0.2-0.6c0-0.2,0-0.6,0.1-1L49.2,85.7z M41.5,84.8c0.3-0.7,0.7-1.2,1.1-1.3c0.4-0.2,0.9-0.1,1.6,0.2l0.6,0.3
		c0.7,0.3,1.1,0.6,1.3,1c0.2,0.4,0.1,1-0.2,1.7l-0.4,1c-0.3,0.7-0.7,1.2-1.1,1.3c-0.4,0.2-0.9,0.1-1.6-0.2L42,88.5
		c-0.7-0.3-1.1-0.6-1.2-1c-0.1-0.4-0.1-1,0.2-1.7L41.5,84.8z M42.7,85.5l-0.3,0.8c-0.2,0.4-0.2,0.7-0.2,0.8c0,0.1,0.2,0.3,0.5,0.4
		l0.2,0.1c0.3,0.1,0.5,0.2,0.7,0.1c0.1-0.1,0.3-0.3,0.5-0.7l0.3-0.8c0.2-0.4,0.2-0.7,0.2-0.8c0-0.1-0.2-0.3-0.5-0.4l-0.2-0.1
		c-0.3-0.1-0.5-0.2-0.7-0.1C43.1,84.8,42.9,85.1,42.7,85.5 M38.1,84L38,84.1c-0.4,0.5-0.8,0.8-1.3,0.9c-0.4,0.1-0.9-0.1-1.4-0.5
		l-0.4-0.3c-0.6-0.4-0.9-0.9-1-1.3c0-0.4,0.2-0.9,0.7-1.6l0.7-0.8c0.5-0.6,0.9-1,1.4-1c0.4-0.1,0.9,0.1,1.5,0.6l0.3,0.2
		c0.6,0.4,0.9,0.8,1,1.2c0.1,0.4-0.1,0.9-0.5,1.4L38.8,83l-1.1-0.8l0.1-0.1c0.1-0.2,0.2-0.4,0.2-0.5c0-0.1-0.2-0.3-0.4-0.5
		c-0.2-0.2-0.4-0.3-0.6-0.2c-0.2,0-0.4,0.2-0.6,0.6l-0.5,0.7c-0.3,0.3-0.4,0.6-0.4,0.8c0,0.2,0.1,0.3,0.4,0.5
		c0.2,0.2,0.4,0.2,0.6,0.2c0.2,0,0.3-0.1,0.5-0.3l0.1-0.1L38.1,84z"/>
	<path class="st5" d="M70,30.1l5.4-7.4l5.8,4c0.5,0.4,0.8,0.8,0.9,1.2c0.1,0.4-0.1,0.8-0.4,1.3L80.4,31c-0.4,0.5-0.7,0.8-1.2,0.8
		c-0.4,0.1-0.9-0.1-1.4-0.5l-0.9-0.6l1.1,5l-2.2-1.6l-0.7-4.7l-1.5-1l-2,2.8L70,30.1z M79.5,27.5L76,25.1l-1.5,2.1l3.5,2.5
		c0.3,0.2,0.5,0.3,0.7,0.3c0.2,0,0.3-0.1,0.5-0.4l0.6-0.9c0.2-0.2,0.2-0.4,0.2-0.6C79.9,27.9,79.8,27.7,79.5,27.5 M66.1,21l-5.3-1
		l-0.4,1.9l5.1,0.9c0.8,0.1,1.3,0.4,1.5,0.7c0.2,0.4,0.3,0.9,0.1,1.7l-0.2,1.2c-0.2,0.8-0.4,1.3-0.7,1.6c-0.3,0.2-0.9,0.3-1.7,0.2
		l-5-0.9c-0.8-0.1-1.3-0.4-1.5-0.7c-0.2-0.3-0.3-0.9-0.1-1.7l0-0.2l1.7-0.1l-0.2,1.1l5.8,1l0.4-2l-5.1-0.9c-0.8-0.1-1.3-0.4-1.5-0.7
		c-0.2-0.3-0.3-0.9-0.1-1.7l0.2-1c0.2-0.8,0.4-1.3,0.7-1.6c0.3-0.2,0.9-0.3,1.7-0.2l4.6,0.8c0.8,0.1,1.3,0.4,1.5,0.7
		c0.2,0.3,0.3,0.9,0.1,1.6l0,0.2L65.9,22L66.1,21z M50.7,20.3l-5.3,1.2l0.4,1.9l5-1.1c0.8-0.2,1.4-0.2,1.7,0.1
		c0.3,0.2,0.6,0.8,0.8,1.6l0.3,1.2c0.2,0.8,0.2,1.4,0,1.7c-0.2,0.4-0.7,0.6-1.5,0.8l-5,1.1c-0.8,0.2-1.4,0.2-1.7-0.1
		c-0.3-0.2-0.6-0.8-0.8-1.5l-0.1-0.2l1.6-0.8l0.2,1l5.7-1.3l-0.5-2l-5,1.1c-0.8,0.2-1.3,0.1-1.7-0.1c-0.3-0.2-0.6-0.7-0.8-1.5
		l-0.2-1c-0.2-0.8-0.2-1.4,0-1.7c0.2-0.4,0.7-0.6,1.5-0.8l4.6-1c0.8-0.2,1.3-0.1,1.7,0.1c0.4,0.2,0.6,0.7,0.8,1.4l0,0.2L51,21.3
		L50.7,20.3z M36,26.2l4.4,6.1l-1.6,1.1l-4.4-6.1l-3.1,2.2l-1-1.3l7.7-5.4l1,1.3L36,26.2z"/>
	<path class="st6" d="M70,30.1l5.4-7.4l5.8,4c0.5,0.4,0.8,0.8,0.9,1.2c0.1,0.4-0.1,0.8-0.4,1.3L80.4,31c-0.4,0.5-0.7,0.8-1.2,0.8
		c-0.4,0.1-0.9-0.1-1.4-0.5l-0.9-0.6l1.1,5l-2.2-1.6l-0.7-4.7l-1.5-1l-2,2.8L70,30.1z M79.5,27.5L76,25.1l-1.5,2.1l3.5,2.5
		c0.3,0.2,0.5,0.3,0.7,0.3c0.2,0,0.3-0.1,0.5-0.4l0.6-0.9c0.2-0.2,0.2-0.4,0.2-0.6C79.9,27.9,79.8,27.7,79.5,27.5z M66.1,21l-5.3-1
		l-0.4,1.9l5.1,0.9c0.8,0.1,1.3,0.4,1.5,0.7c0.2,0.4,0.3,0.9,0.1,1.7l-0.2,1.2c-0.2,0.8-0.4,1.3-0.7,1.6c-0.3,0.2-0.9,0.3-1.7,0.2
		l-5-0.9c-0.8-0.1-1.3-0.4-1.5-0.7c-0.2-0.3-0.3-0.9-0.1-1.7l0-0.2l1.7-0.1l-0.2,1.1l5.8,1l0.4-2l-5.1-0.9c-0.8-0.1-1.3-0.4-1.5-0.7
		c-0.2-0.3-0.3-0.9-0.1-1.7l0.2-1c0.2-0.8,0.4-1.3,0.7-1.6c0.3-0.2,0.9-0.3,1.7-0.2l4.6,0.8c0.8,0.1,1.3,0.4,1.5,0.7
		c0.2,0.3,0.3,0.9,0.1,1.6l0,0.2L65.9,22L66.1,21z M50.7,20.3l-5.3,1.2l0.4,1.9l5-1.1c0.8-0.2,1.4-0.2,1.7,0.1
		c0.3,0.2,0.6,0.8,0.8,1.6l0.3,1.2c0.2,0.8,0.2,1.4,0,1.7c-0.2,0.4-0.7,0.6-1.5,0.8l-5,1.1c-0.8,0.2-1.4,0.2-1.7-0.1
		c-0.3-0.2-0.6-0.8-0.8-1.5l-0.1-0.2l1.6-0.8l0.2,1l5.7-1.3l-0.5-2l-5,1.1c-0.8,0.2-1.3,0.1-1.7-0.1c-0.3-0.2-0.6-0.7-0.8-1.5
		l-0.2-1c-0.2-0.8-0.2-1.4,0-1.7c0.2-0.4,0.7-0.6,1.5-0.8l4.6-1c0.8-0.2,1.3-0.1,1.7,0.1c0.4,0.2,0.6,0.7,0.8,1.4l0,0.2L51,21.3
		L50.7,20.3z M36,26.2l4.4,6.1l-1.6,1.1l-4.4-6.1l-3.1,2.2l-1-1.3l7.7-5.4l1,1.3L36,26.2z"/>
	<path class="st5" d="M74.9,38.1c-4.7-4.6-11.1-7.4-18.2-7.4c-7.1,0-13.5,2.8-18.2,7.4c-4.7,4.6-7.5,10.9-7.5,17.8
		s2.9,13.2,7.5,17.8c4.7,4.6,11.1,7.4,18.2,7.4c7.1,0,13.5-2.8,18.2-7.4c4.7-4.6,7.5-10.9,7.5-17.8S79.6,42.7,74.9,38.1 M56.8,29.6
		c7.4,0,14.1,2.9,19,7.7c4.9,4.8,7.9,11.3,7.9,18.6c0,7.3-3,13.8-7.9,18.6c-4.9,4.8-11.6,7.7-19,7.7c-7.4,0-14.1-2.9-19-7.7
		c-4.9-4.8-7.9-11.3-7.9-18.6c0-7.3,3-13.8,7.9-18.6C42.6,32.6,49.4,29.6,56.8,29.6"/>
	<path class="st1" d="M101.5,72.8l0.8-2.4l0.7,0.2c0.1,0,0.1,0.1,0.1,0.2l-0.2,0.6c-0.3,0.8-0.1,1.5,0.6,1.8
		c0.8,0.3,1.8-0.2,2.1-1.2c0.1-0.3,0.1-0.5,0.1-0.8c0.3-0.1,0.5-0.2,0.7-0.1c0.3,0.1,0.4,0.3,0.5,0.7l0.6-0.4l0,0
		c-0.1-0.4-0.3-0.6-0.6-0.7c-0.3-0.1-0.6,0-1.2,0.3c-0.1-0.3-0.2-0.5-0.5-0.5c-0.2-0.1-0.3,0-0.5,0c-0.2,0.1-0.3,0.2-0.3,0.3
		c-0.1,0.3,0.1,0.6,0.3,0.7c0.2,0.1,0.3,0,0.5,0c0,0.2,0,0.5-0.1,0.7c-0.2,0.6-0.7,0.8-1.2,0.6c-0.5-0.2-0.7-0.7-0.4-1.7l0.2-0.6
		l0-0.1l-1.2-0.4l0.3-0.9l0,0l-0.5,0.1l-1.3,3.8l0,0L101.5,72.8z M102.5,75l-2.2,0.5l0,0l0.6-1.3l1.3,0.6
		C102.3,74.8,102.4,74.9,102.5,75L102.5,75z M102.6,75.3c0.1,0.3,0.1,0.5-0.1,0.8c-0.2,0.4-0.6,0.4-1.3,0.1
		c-0.3-0.1-0.6-0.3-0.9-0.4l0,0L102.6,75.3z M99.7,76.7l0.2-0.5c0.3,0.2,0.7,0.3,1,0.5c0.6,0.3,1,0.3,1.3,0.2
		c0.4-0.2,0.7-0.4,0.9-0.7c0.1-0.3,0.2-0.5,0.1-0.8l1.3,0.6l0.3-0.4l0-0.1l-3.7-1.6l0.3-0.7l0-0.1l-0.5,0l-1.7,3.6l0,0.1L99.7,76.7z
		 M98.5,78.8l0.8-1.3c0.2,0.1,0.4,0.1,0.5,0.2c0.2,0.1,0.4,0.3,0.5,0.5c-0.1,0.1-0.2,0.3-0.3,0.5c-0.1,0.2-0.1,0.3-0.1,0.4
		c0,0.1,0.1,0.1,0.2,0.2c0.1,0.1,0.4,0.1,0.8,0.1c0.7-0.1,1.6-0.3,2.5-0.7l0,0l-0.3-0.5c-0.7,0.4-1.4,0.7-2,0.9
		c0-0.6-0.2-1.2-0.8-1.6c-0.2-0.1-0.4-0.2-0.7-0.3l0.5-0.9l0-0.1l-0.5,0L98,78.8l0,0.1L98.5,78.8z M97.6,80.3l0.3-0.5l3.4,1.9
		l0.4-0.4l0-0.1l-3.5-2l0.4-0.7l0-0.1l-0.5,0l-0.4,0.6c-0.2,0-0.4,0-0.5-0.1c-0.5-0.3-0.5-0.8-0.3-1.2c0.3-0.6,1-0.8,1.9-0.9l0,0
		l-0.1-0.2c-1.1,0-1.9,0.4-2.4,1.1c-0.3,0.5-0.2,1.2,0.4,1.5c0.2,0.1,0.5,0.2,0.8,0.1l-0.4,0.7l0,0.1L97.6,80.3z M97,81.3l1.1,0.8
		c0.2,0.2,0.3,0.3,0.4,0.6c0,0.3,0,0.5-0.2,0.8c-0.3,0.4-0.6,0.3-1.3-0.1c-0.3-0.2-0.7-0.5-1-0.7L97,81.3z M95.4,83.5l0.3-0.5
		c0.3,0.2,0.6,0.4,0.9,0.6c0.5,0.4,0.9,0.4,1.2,0.4c0.4-0.1,0.8-0.3,1-0.6c0.2-0.2,0.3-0.5,0.2-0.8l1.2,0.8l0.4-0.3l0-0.1l-3.3-2.3
		l0.5-0.6l0-0.1l-0.5-0.1L95,83.4l0,0.1L95.4,83.5z M91.7,87.9l1.8-2.1l0.9,0.8c-0.4,0.3-0.7,0.6-0.9,0.9c-0.2,0.2-0.4,0.5-0.5,0.7
		c-0.1,0.2,0,0.4,0.1,0.5c0.3,0.3,1.1,0.2,1.2,0.1c0.1-0.1,0.1-0.2,0.1-0.3c0-0.1-0.1-0.2-0.3-0.3L94,88c0.1-0.2,0.2-0.4,0.4-0.6
		c0.2-0.2,0.3-0.3,0.5-0.5l1.7,1.5l0.4-0.3l0-0.1l-3.1-2.6l0.5-0.6l0-0.1l-0.5-0.1l-2.7,3.1l0,0.1L91.7,87.9z M90.8,88.8l0.5-0.4
		l2.7,2.8l0.5-0.2l0-0.1L91.6,88l0.6-0.5l0-0.1l-0.4-0.2l-1.4,1.3l0,0.1L90.8,88.8z M89.4,90.7l0-0.2c-0.6-0.3-1.1-0.4-1.5,0
		c-0.4,0.3-0.4,0.8,0,1.2c0.3,0.3,0.8,0.4,1.5,0.3c0,0.2,0.1,0.3,0.2,0.5c0.2,0.2,0.5,0.3,0.8,0.3c0.5,0,0.9-0.1,1.1-0.4
		c0.2-0.2,0.4-0.5,0.4-0.8l0.8,0.8l0.5-0.2l0-0.1l-2.8-2.9l0.6-0.5l0-0.1l-0.5-0.2L89,89.8l0,0.1l0.4,0.2l0.6-0.5l1.1,1.1
		c0.2,0.2,0.3,0.5,0.2,0.7c-0.1,0.4-0.2,0.6-0.4,0.8c-0.2,0.2-0.6,0.3-0.8,0.1c-0.3-0.3-0.2-0.7,0.3-1.3l0,0l-0.6-0.1
		c-0.3,0.4-0.5,0.7-0.5,0.7c-0.2,0.2-0.6,0.4-0.9,0.1c-0.2-0.2-0.3-0.6,0-0.9C88.7,90.5,88.9,90.5,89.4,90.7L89.4,90.7z M84.3,91.9
		l-0.1,0.7l0.7,0.1l0.1-0.7L84.3,91.9z M86,92.9l1,1.3c-0.2,0.2-0.5,0.5-0.7,0.6c-0.2,0.2-0.5,0.3-0.7,0.4c-0.1-0.2-0.2-0.3-0.3-0.5
		c-0.2-0.3-0.4-0.5-0.7-0.8L86,92.9z M83.2,94.8l0.9-0.6c0.2,0.2,0.3,0.4,0.5,0.6c0.1,0.2,0.2,0.4,0.3,0.6c-0.1,0.1-0.3,0.1-0.4,0.2
		c-0.2,0.2-0.2,0.4-0.1,0.5c0.1,0.1,0.3,0.3,0.7,0.4c0.6,0.2,1.4,0.4,2.4,0.4l0,0l-0.1-0.6c-0.7,0.1-1.4,0.1-2,0
		c0.1-0.2,0.1-0.4,0.1-0.7c0.5-0.1,0.9-0.2,1.2-0.5c0.2-0.1,0.3-0.2,0.4-0.4l1,1.4l0.5-0.2l0-0.1l-2.4-3.2l0.7-0.5l0-0.1l-0.4-0.2
		l-3.8,2.7v0.1L83.2,94.8z M82.6,100.4L82.6,100.4c1.2,0.6,2,0.6,2.5,0.3c0.3-0.2,0.6-0.6,0.4-1.1c-0.1-0.2-0.2-0.3-0.4-0.4
		c-0.3-0.2-0.6-0.2-0.8,0c-0.2,0.1-0.4,0.3-0.5,0.6l0.5,0.3l0,0c0.1-0.2,0.2-0.4,0.4-0.5c0.2-0.1,0.3-0.1,0.4,0.1
		c0.2,0.3-0.1,0.7-0.4,0.8c-0.5,0.3-1.2,0.1-2-0.3L82.6,100.4z M79.5,96.9l2.4-1.4l0.6,1c-0.4,0.2-0.8,0.4-1.2,0.6
		c-0.3,0.2-0.5,0.3-0.7,0.5c-0.1,0.2-0.2,0.4-0.1,0.5c0.2,0.3,1,0.6,1.2,0.5c0.1-0.1,0.2-0.2,0.2-0.3c0-0.1-0.1-0.2-0.1-0.3
		l-0.2-0.3c0.1-0.1,0.3-0.3,0.6-0.4c0.2-0.1,0.4-0.2,0.6-0.3l1.1,1.9l0.5-0.1l0-0.1l-2-3.4l0.7-0.4l0-0.1l-0.4-0.3l-3.6,2l0,0.1
		L79.5,96.9z M75.6,99.2c0.3-0.4,0.5-0.7,0.8-0.8c0.3-0.1,0.6,0,0.7,0.2c0.1,0.2,0.1,0.4-0.1,0.7c-0.3,0.1-0.6,0.4-0.9,0.7l0,0
		l0.5,0.3c0.2-0.3,0.5-0.4,0.7-0.5c0.4-0.2,0.7,0,0.8,0.3c0.2,0.4-0.1,0.9-0.5,1.1c-0.6,0.2-1.3,0-2.1-0.7l-0.2,0.3l0,0
		c0.9,0.8,1.9,1.2,2.7,0.8c0.6-0.3,0.8-0.8,0.6-1.4c-0.1-0.1-0.1-0.3-0.2-0.4l0,0c0.2,0.1,0.5,0,0.7-0.1c0.1-0.1,0.2-0.1,0.3-0.2
		l0.7,1.5l0.5-0.1l0-0.1L79,97.3l0.7-0.3l0-0.1l-0.4-0.3l-2,0.9l0,0.1l0.4,0.3l0.8-0.3l0.7,1.5c-0.1,0.2-0.3,0.4-0.6,0.5
		c-0.2,0.1-0.4,0.1-0.6,0.1c-0.1,0-0.2-0.1-0.4-0.1c0.1-0.2,0.1-0.4,0-0.7c-0.1-0.3-0.3-0.5-0.6-0.6c-0.4-0.2-0.7-0.2-1.1,0
		c-0.3,0.1-0.6,0.4-0.8,0.8l0,0L75.6,99.2z M68.1,101.1l3.5-1l0.2,0.7c-0.5,0.2-0.9,0.4-1,0.7c-0.4-0.2-0.7-0.2-1.1-0.1
		c-0.6,0.2-0.9,0.7-0.7,1.4c0.2,0.8,1,1.4,2.1,1.7l0,0l0.2-0.6c-0.9-0.1-1.6-0.3-1.8-1c-0.1-0.4,0.1-0.9,0.6-1
		c0.2-0.1,0.4-0.1,0.5,0c-0.1,0.2-0.1,0.5-0.1,0.8l0.5,0.2l0,0c0-0.9,0.2-1.1,0.9-1.5l0.7,2.5l0.5,0l0-0.1l-1.1-3.8l0.8-0.2l0-0.1
		l-0.3-0.3l-4.8,1.3l0,0.1L68.1,101.1z M64.7,101.7c0.4-0.1,0.7,0.2,0.8,0.6c0.1,0.3,0,0.5-0.2,0.8c-0.6-0.1-1-0.3-1.1-0.7
		C64.1,102,64.3,101.7,64.7,101.7 M62.8,102l0.8-0.1c0,0.1,0,0.2,0,0.3c0.1,0.5,0.7,0.9,1.4,1.2c-0.1,0.1-0.2,0.2-0.4,0.3
		c-0.3-0.1-0.5-0.1-0.8-0.1c-0.3,0-0.4,0.2-0.4,0.3c0,0.1,0.1,0.2,0.2,0.3c0.2,0.2,0.4,0.3,0.5,0.3c0.2,0,0.4-0.1,0.5-0.2
		c0.5,0.6,1,1,1.7,1.3l0,0l0.1-0.6c-0.5-0.2-1.1-0.5-1.5-0.9c0.7-0.5,1-1.1,0.9-1.6c-0.1-0.3-0.2-0.6-0.6-0.9l1.2-0.2l0.7,3.8
		l0.5,0.1l0-0.1l-0.7-3.9l0.8-0.1l0-0.1l-0.3-0.4l-5.1,0.9l0,0.1L62.8,102z M60.4,101.1L60.4,101.1c0.4-0.1,0.6-0.3,0.9-0.3
		c0.4,0,0.8,0.3,1.3,0.8l-1,0l0,0l0.2,0.4l0.6,0l0.1,3.9l0.5,0.1l0,0l-0.1-4l0.8,0l0,0l-0.2-0.4l-0.7,0c-0.2-1-0.4-1.4-0.6-1.8
		c-0.3-0.4-0.5-0.6-1-0.6c-0.2,0-0.4,0-0.7,0.1l0.2,0.6l0,0c0.2,0,0.4-0.1,0.6-0.1c0.7,0,0.8,0.3,1,1.3l0,0c-0.6-0.5-1-0.7-1.4-0.7
		c-0.3,0-0.6,0.1-0.9,0.3L60.4,101.1z M59.2,104c-0.4,0.4-0.8,0.6-1.2,0.7c-0.4,0-0.6-0.2-0.6-0.5c0-0.5,0.5-0.9,1.1-0.9
		c0.2,0,0.5,0,0.7,0.1L59.2,104z M56.5,102.2l2.6-0.1l0,0.8c-0.3-0.1-0.7-0.1-1-0.1c-0.7,0-1.3,0.4-1.3,1.1c0,0.7,0.6,1.3,1.4,1.3
		c0.3,0,0.6-0.1,0.9-0.4l0,0l0,1.3l0.5,0.1l0,0l0-1.8c0.3-0.4,0.8-0.8,1.1-0.8c0.2,0,0.3,0.1,0.4,0.3c0,0.4-0.3,0.9-0.7,1.3l0.5,0.3
		l0,0c0.4-0.5,0.6-0.9,0.6-1.4c0-0.6-0.5-1.1-1-1.1c-0.3,0-0.6,0.2-0.9,0.4l0,0l0-1.3l2.3,0l0,0l-0.2-0.4l-5.4,0.1l0,0L56.5,102.2z
		 M51.6,101.9l1.6,0.1c0,0.2,0,0.4,0,0.5c0,0.3-0.1,0.5-0.2,0.6c-0.2,0-0.4-0.1-0.6-0.1c-0.2,0-0.4,0-0.4,0.1
		c-0.1,0.1-0.1,0.1-0.1,0.2c0,0.2,0.1,0.4,0.3,0.7c0.4,0.6,1,1.3,1.7,1.9l0.1,0l0.3-0.5c-0.7-0.4-1.3-0.9-1.6-1.4
		c0.6-0.2,1-0.7,1.1-1.4c0-0.2,0-0.5,0-0.7l1.1,0.1l0,0l-0.2-0.4l-3.2-0.2l0,0L51.6,101.9z M48.6,100.3L48.6,100.3
		c0.4-0.1,0.7-0.1,0.9-0.1c0.3,0.1,0.7,0.4,1.1,1.1l-2.9-0.7l0,0l0.1,0.5l0.8,0.2l-0.4,1.6c-0.2,0.1-0.5,0.1-0.8,0.1
		c-0.2-0.1-0.4-0.1-0.5-0.3c-0.1-0.1-0.1-0.2-0.2-0.3c0.2-0.1,0.3-0.3,0.4-0.5c0.1-0.3,0-0.6-0.1-0.9c-0.2-0.4-0.5-0.6-0.8-0.7
		c-0.3-0.1-0.7,0-1.1,0.2l0,0l0.2,0.6c0.5-0.2,0.8-0.2,1.1-0.2c0.3,0.1,0.5,0.3,0.4,0.6c-0.1,0.2-0.2,0.4-0.5,0.5
		c-0.3-0.1-0.7,0-1.2,0l0,0l0.2,0.6c0.4-0.1,0.6-0.1,0.8,0c0.4,0.1,0.6,0.4,0.5,0.7c-0.1,0.4-0.6,0.6-1,0.5c-0.6-0.1-1-0.7-1.3-1.8
		l-0.3,0.1l0,0c0.3,1.2,0.8,2.1,1.7,2.3c0.6,0.1,1.2-0.2,1.3-0.8c0-0.2,0.1-0.3,0-0.4l0,0c0.2,0.2,0.4,0.3,0.6,0.3
		c0.1,0,0.3,0,0.4,0l-0.4,1.6l0.4,0.2l0.1,0l0.9-3.9l1.2,0.3l-0.9,3.8l0.5,0.2l0.1,0l0.9-3.9l0.8,0.2l0,0l-0.1-0.5l-0.7-0.2
		c0-1,0-1.5-0.2-1.9c-0.2-0.4-0.4-0.7-0.8-0.8c-0.2,0-0.4-0.1-0.7-0.1l0,0.6l0,0c0.2,0,0.4,0,0.6,0.1c0.6,0.1,0.7,0.4,0.6,1.5l0,0
		c-0.5-0.6-0.8-0.9-1.2-1c-0.3-0.1-0.6,0-0.9,0.1L48.6,100.3z M38.8,98.4l2.6,1l-0.4,1.1c-0.4-0.2-0.8-0.4-1.2-0.6
		c-0.3-0.1-0.6-0.2-0.8-0.2c-0.2,0-0.4,0.1-0.4,0.2c-0.1,0.4,0.2,1.1,0.4,1.2c0.1,0,0.2,0,0.3,0c0,0,0.1-0.2,0.2-0.3l0.1-0.3
		c0.2,0,0.4,0.1,0.7,0.2c0.2,0.1,0.4,0.2,0.6,0.3L40,103l0.4,0.3l0.1,0l1.5-3.7l0.7,0.3l0,0l0-0.5l-3.8-1.5l0,0L38.8,98.4z
		 M37.4,97.8l-0.7,1.4c-0.1,0.3-0.3,0.4-0.6,0.4c-0.3,0-0.6,0-0.8-0.2c-0.6-0.3-0.6-0.9-0.5-1c0,0,0.1-0.1,0.2,0
		c0.6,0.1,0.9,0,1.1-0.4c0.1-0.2,0.1-0.5,0.1-0.8L37.4,97.8z M34.8,96.4l1,0.5c0.1,0.2,0.1,0.4,0,0.6c-0.2,0.3-0.6,0.3-1.3,0.2
		l-0.1,0c-0.1,0.9,0,1.8,0.8,2.2c0.3,0.2,0.6,0.2,1,0.2l-0.6,1.1l0.4,0.3l0.1,0l1.8-3.5l0.7,0.4l0.1,0l0-0.5l-3.8-1.9l-0.1,0
		L34.8,96.4z M33.4,95.7L32.6,97c-0.2,0.3-0.4,0.4-0.6,0.4c-0.3,0-0.6-0.1-0.8-0.2c-0.6-0.3-0.5-0.9-0.4-1.1c0,0,0.1-0.1,0.2,0
		c0.6,0.1,0.9,0.1,1.2-0.3c0.1-0.2,0.2-0.5,0.2-0.8L33.4,95.7z M30.3,94c0.1-0.7,0.2-1.1-0.4-1.4c-0.4-0.3-0.9-0.2-1.2,0.3
		c-0.2,0.4-0.2,0.9,0.1,1.5c-0.2,0.1-0.3,0.2-0.4,0.3c-0.1,0.2-0.2,0.5-0.1,0.9c0.1,0.5,0.4,0.8,0.7,1c0.4,0.3,0.9,0.3,1.4,0.1
		c0.1,0.4,0.3,0.8,0.7,1.1c0.3,0.2,0.6,0.3,0.9,0.3l-0.7,1l0.3,0.4l0.1,0l2.2-3.4l0.7,0.4l0.1,0l0.1-0.5l-3.8-2.4l-0.1,0l-0.1,0.5
		l1.2,0.7c0,0.2,0,0.4-0.1,0.6c-0.2,0.3-0.7,0.2-1.3,0l-0.1,0c-0.1,0.2-0.1,0.4-0.1,0.6c-0.6,0.2-1,0.1-1.4-0.1
		c-0.3-0.2-0.4-0.5-0.3-0.8c0.2-0.3,0.7-0.3,1.4,0l0,0l0-0.6c-0.5-0.2-0.8-0.3-0.8-0.3C29,94,28.8,93.7,29,93.4
		c0.2-0.3,0.5-0.4,0.8-0.2c0.3,0.2,0.3,0.4,0.2,0.8l0,0L30.3,94z M25.1,90c0.5,0.1,0.8,0.2,1.1,0.4c0.2,0.2,0.3,0.5,0.1,0.7
		c-0.2,0.2-0.4,0.2-0.7,0.2c-0.2-0.2-0.6-0.4-1-0.5l0,0l-0.1,0.6c0.3,0.1,0.6,0.2,0.8,0.4c0.3,0.3,0.3,0.6,0.1,0.9
		c-0.3,0.3-0.8,0.3-1.2,0c-0.5-0.4-0.6-1.1-0.3-2.2l-0.3-0.1l0,0c-0.3,1.2-0.3,2.2,0.4,2.8c0.5,0.4,1.1,0.4,1.5-0.1
		c0.1-0.1,0.2-0.2,0.2-0.4l0,0c0,0.2,0.2,0.4,0.4,0.6c0.1,0.1,0.2,0.2,0.3,0.2l-1.1,1.2l0.3,0.4l0.1,0l2.6-3l0.6,0.5l0.1,0l0.1-0.5
		l-1.6-1.4l-0.1,0l-0.1,0.5l0.6,0.5L26.8,93c-0.3,0-0.5-0.1-0.7-0.3c-0.2-0.2-0.3-0.3-0.3-0.5c0-0.1,0-0.2-0.1-0.4
		c0.2,0,0.4-0.1,0.6-0.3c0.2-0.2,0.3-0.5,0.3-0.8c0-0.4-0.1-0.8-0.4-1c-0.2-0.2-0.6-0.3-1.1-0.4l0,0L25.1,90z M22.2,86.5l0.4,0.5
		l-3.1,2.4l0.2,0.5l0.1,0l3.2-2.5l0.5,0.6l0.1,0l0.2-0.4l-0.4-0.5c1-1,0.9-2.4,0.1-3.3c-0.5-0.6-1.2-0.8-1.8-0.4
		c-0.2,0.1-0.3,0.3-0.4,0.5l0.1,0.5l0.1,0c0.1-0.2,0.1-0.3,0.4-0.5c0.3-0.3,0.9-0.3,1.5,0.4c0.6,0.8,0.4,1.6-0.3,2.4l-0.5-0.6
		l-0.1,0L22.2,86.5z M19.1,85.6c-0.6-0.1-1-0.2-1.2-0.5c-0.2-0.3-0.2-0.6,0.1-0.8c0.4-0.3,1-0.2,1.4,0.3c0.1,0.2,0.3,0.4,0.4,0.6
		L19.1,85.6z M19,82.5l1.6,2L20,85c-0.1-0.3-0.3-0.6-0.5-0.9c-0.4-0.6-1.1-0.8-1.6-0.4c-0.6,0.4-0.7,1.2-0.2,1.9
		c0.2,0.2,0.5,0.4,0.8,0.5l0,0l-1,0.8l0.2,0.5l0.1,0l1.5-1.1c0.6,0,1.1,0.1,1.3,0.4c0.1,0.2,0.1,0.4-0.1,0.5
		c-0.3,0.2-0.9,0.3-1.5,0.3l0,0.6l0,0c0.6,0,1.1-0.1,1.5-0.4c0.5-0.4,0.6-1,0.3-1.5c-0.2-0.3-0.5-0.4-0.9-0.5l0,0l1.1-0.8l1.4,1.8
		l0.1,0l0.2-0.4L19.3,82l-0.1,0L19,82.5z M17.7,80.4L18,81l-3.5,1.9l0.1,0.5l0.1,0l3.5-2l0.4,0.7l0.1,0l0.3-0.4l-0.3-0.5
		c0.9-0.7,1.2-1.8,0.8-2.5c-0.3-0.5-0.8-0.6-1.2-0.4c-0.2,0.1-0.4,0.4-0.5,0.7l0,0.5l0.1,0c0.1-0.3,0.3-0.5,0.5-0.6
		c0.3-0.2,0.6-0.1,0.8,0.3c0.3,0.5,0.1,1.1-0.8,1.7L18,80.1l-0.1,0L17.7,80.4z M15.7,77.1l1.4,2.4l-1.1,0.6
		c-0.2-0.4-0.4-0.8-0.6-1.2c-0.2-0.3-0.3-0.5-0.5-0.7c-0.2-0.1-0.4-0.2-0.5-0.1c-0.3,0.2-0.6,1-0.5,1.1c0.1,0.1,0.2,0.2,0.3,0.2
		c0.1,0,0.2-0.1,0.4-0.1l0.3-0.2c0.1,0.1,0.3,0.3,0.4,0.6c0.1,0.2,0.2,0.4,0.3,0.6l-2,1.1l0.1,0.5l0.1,0l3.5-2l0.4,0.7l0.1,0
		l0.3-0.4l-2-3.5l-0.1,0L15.7,77.1z M12.7,75.1c-0.6-0.2-0.9-0.5-1.1-0.8c-0.2-0.3-0.1-0.6,0.3-0.8c0.4-0.2,1,0.1,1.3,0.6
		c0.1,0.2,0.2,0.4,0.2,0.6L12.7,75.1z M13.4,72l1.1,2.4l-0.7,0.3c-0.1-0.3-0.2-0.7-0.3-1c-0.3-0.7-0.9-1-1.5-0.7
		c-0.6,0.3-1,1-0.6,1.8c0.1,0.3,0.3,0.5,0.7,0.7l0,0l-1.2,0.5l0.1,0.5l0.1,0l1.7-0.8c0.5,0.1,1,0.4,1.2,0.7c0.1,0.2,0,0.4-0.2,0.5
		c-0.4,0.2-0.9,0.1-1.5-0.1L12,77.3l0,0c0.6,0.1,1.1,0.2,1.5,0c0.5-0.2,0.8-0.8,0.6-1.4c-0.1-0.3-0.4-0.5-0.8-0.6l0,0l1.2-0.6l1,2.1
		l0.1,0l0.3-0.4l-2.2-4.9l-0.1,0L13.4,72z M12.2,68l0.8,2.7l-0.8,0.2c-0.1-0.3-0.1-0.6-0.2-0.9c-0.3-1.1-0.8-1.3-1.4-1.1
		c-0.7,0.2-1.3,0.8-1.8,1.8l0,0l0.6,0.2c0.2-0.9,0.6-1.5,1.1-1.6c0.4-0.1,0.8,0.1,1.1,1.1c0.1,0.2,0.1,0.4,0.2,0.7l-2.5,0.7l0,0.5
		l0.1,0l3.9-1.1l0.2,0.8l0.1,0l0.4-0.3l-1.1-3.9l-0.1,0L12.2,68z"/>
	<path class="st7" d="M101.5,72.8l0.8-2.4l0.7,0.2c0.1,0,0.1,0.1,0.1,0.2l-0.2,0.6c-0.3,0.8-0.1,1.5,0.6,1.8
		c0.8,0.3,1.8-0.2,2.1-1.2c0.1-0.3,0.1-0.5,0.1-0.8c0.3-0.1,0.5-0.2,0.7-0.1c0.3,0.1,0.4,0.3,0.5,0.7l0.6-0.4l0,0
		c-0.1-0.4-0.3-0.6-0.6-0.7c-0.3-0.1-0.6,0-1.2,0.3c-0.1-0.3-0.2-0.5-0.5-0.5c-0.2-0.1-0.3,0-0.5,0c-0.2,0.1-0.3,0.2-0.3,0.3
		c-0.1,0.3,0.1,0.6,0.3,0.7c0.2,0.1,0.3,0,0.5,0c0,0.2,0,0.5-0.1,0.7c-0.2,0.6-0.7,0.8-1.2,0.6c-0.5-0.2-0.7-0.7-0.4-1.7l0.2-0.6
		l0-0.1l-1.2-0.4l0.3-0.9l0,0l-0.5,0.1l-1.3,3.8l0,0L101.5,72.8z M102.5,75l-2.2,0.5l0,0l0.6-1.3l1.3,0.6
		C102.3,74.8,102.4,74.9,102.5,75L102.5,75z M102.6,75.3c0.1,0.3,0.1,0.5-0.1,0.8c-0.2,0.4-0.6,0.4-1.3,0.1
		c-0.3-0.1-0.6-0.3-0.9-0.4l0,0L102.6,75.3z M99.7,76.7l0.2-0.5c0.3,0.2,0.7,0.3,1,0.5c0.6,0.3,1,0.3,1.3,0.2
		c0.4-0.2,0.7-0.4,0.9-0.7c0.1-0.3,0.2-0.5,0.1-0.8l1.3,0.6l0.3-0.4l0-0.1l-3.7-1.6l0.3-0.7l0-0.1l-0.5,0l-1.7,3.6l0,0.1L99.7,76.7z
		 M98.5,78.8l0.8-1.3c0.2,0.1,0.4,0.1,0.5,0.2c0.2,0.1,0.4,0.3,0.5,0.5c-0.1,0.1-0.2,0.3-0.3,0.5c-0.1,0.2-0.1,0.3-0.1,0.4
		c0,0.1,0.1,0.1,0.2,0.2c0.1,0.1,0.4,0.1,0.8,0.1c0.7-0.1,1.6-0.3,2.5-0.7l0,0l-0.3-0.5c-0.7,0.4-1.4,0.7-2,0.9
		c0-0.6-0.2-1.2-0.8-1.6c-0.2-0.1-0.4-0.2-0.7-0.3l0.5-0.9l0-0.1l-0.5,0L98,78.8l0,0.1L98.5,78.8z M97.6,80.3l0.3-0.5l3.4,1.9
		l0.4-0.4l0-0.1l-3.5-2l0.4-0.7l0-0.1l-0.5,0l-0.4,0.6c-0.2,0-0.4,0-0.5-0.1c-0.5-0.3-0.5-0.8-0.3-1.2c0.3-0.6,1-0.8,1.9-0.9l0,0
		l-0.1-0.2c-1.1,0-1.9,0.4-2.4,1.1c-0.3,0.5-0.2,1.2,0.4,1.5c0.2,0.1,0.5,0.2,0.8,0.1l-0.4,0.7l0,0.1L97.6,80.3z M97,81.3l1.1,0.8
		c0.2,0.2,0.3,0.3,0.4,0.6c0,0.3,0,0.5-0.2,0.8c-0.3,0.4-0.6,0.3-1.3-0.1c-0.3-0.2-0.7-0.5-1-0.7L97,81.3z M95.4,83.5l0.3-0.5
		c0.3,0.2,0.6,0.4,0.9,0.6c0.5,0.4,0.9,0.4,1.2,0.4c0.4-0.1,0.8-0.3,1-0.6c0.2-0.2,0.3-0.5,0.2-0.8l1.2,0.8l0.4-0.3l0-0.1l-3.3-2.3
		l0.5-0.6l0-0.1l-0.5-0.1L95,83.4l0,0.1L95.4,83.5z M91.7,87.9l1.8-2.1l0.9,0.8c-0.4,0.3-0.7,0.6-0.9,0.9c-0.2,0.2-0.4,0.5-0.5,0.7
		c-0.1,0.2,0,0.4,0.1,0.5c0.3,0.3,1.1,0.2,1.2,0.1c0.1-0.1,0.1-0.2,0.1-0.3c0-0.1-0.1-0.2-0.3-0.3L94,88c0.1-0.2,0.2-0.4,0.4-0.6
		c0.2-0.2,0.3-0.3,0.5-0.5l1.7,1.5l0.4-0.3l0-0.1l-3.1-2.6l0.5-0.6l0-0.1l-0.5-0.1l-2.7,3.1l0,0.1L91.7,87.9z M90.8,88.8l0.5-0.4
		l2.7,2.8l0.5-0.2l0-0.1L91.6,88l0.6-0.5l0-0.1l-0.4-0.2l-1.4,1.3l0,0.1L90.8,88.8z M89.4,90.7l0-0.2c-0.6-0.3-1.1-0.4-1.5,0
		c-0.4,0.3-0.4,0.8,0,1.2c0.3,0.3,0.8,0.4,1.5,0.3c0,0.2,0.1,0.3,0.2,0.5c0.2,0.2,0.5,0.3,0.8,0.3c0.5,0,0.9-0.1,1.1-0.4
		c0.2-0.2,0.4-0.5,0.4-0.8l0.8,0.8l0.5-0.2l0-0.1l-2.8-2.9l0.6-0.5l0-0.1l-0.5-0.2L89,89.8l0,0.1l0.4,0.2l0.6-0.5l1.1,1.1
		c0.2,0.2,0.3,0.5,0.2,0.7c-0.1,0.4-0.2,0.6-0.4,0.8c-0.2,0.2-0.6,0.3-0.8,0.1c-0.3-0.3-0.2-0.7,0.3-1.3l0,0l-0.6-0.1
		c-0.3,0.4-0.5,0.7-0.5,0.7c-0.2,0.2-0.6,0.4-0.9,0.1c-0.2-0.2-0.3-0.6,0-0.9C88.7,90.5,88.9,90.5,89.4,90.7L89.4,90.7z M84.3,91.9
		l-0.1,0.7l0.7,0.1l0.1-0.7L84.3,91.9z M86,92.9l1,1.3c-0.2,0.2-0.5,0.5-0.7,0.6c-0.2,0.2-0.5,0.3-0.7,0.4c-0.1-0.2-0.2-0.3-0.3-0.5
		c-0.2-0.3-0.4-0.5-0.7-0.8L86,92.9z M83.2,94.8l0.9-0.6c0.2,0.2,0.3,0.4,0.5,0.6c0.1,0.2,0.2,0.4,0.3,0.6c-0.1,0.1-0.3,0.1-0.4,0.2
		c-0.2,0.2-0.2,0.4-0.1,0.5c0.1,0.1,0.3,0.3,0.7,0.4c0.6,0.2,1.4,0.4,2.4,0.4l0,0l-0.1-0.6c-0.7,0.1-1.4,0.1-2,0
		c0.1-0.2,0.1-0.4,0.1-0.7c0.5-0.1,0.9-0.2,1.2-0.5c0.2-0.1,0.3-0.2,0.4-0.4l1,1.4l0.5-0.2l0-0.1l-2.4-3.2l0.7-0.5l0-0.1l-0.4-0.2
		l-3.8,2.7v0.1L83.2,94.8z M82.6,100.4L82.6,100.4c1.2,0.6,2,0.6,2.5,0.3c0.3-0.2,0.6-0.6,0.4-1.1c-0.1-0.2-0.2-0.3-0.4-0.4
		c-0.3-0.2-0.6-0.2-0.8,0c-0.2,0.1-0.4,0.3-0.5,0.6l0.5,0.3l0,0c0.1-0.2,0.2-0.4,0.4-0.5c0.2-0.1,0.3-0.1,0.4,0.1
		c0.2,0.3-0.1,0.7-0.4,0.8c-0.5,0.3-1.2,0.1-2-0.3L82.6,100.4z M79.5,96.9l2.4-1.4l0.6,1c-0.4,0.2-0.8,0.4-1.2,0.6
		c-0.3,0.2-0.5,0.3-0.7,0.5c-0.1,0.2-0.2,0.4-0.1,0.5c0.2,0.3,1,0.6,1.2,0.5c0.1-0.1,0.2-0.2,0.2-0.3c0-0.1-0.1-0.2-0.1-0.3
		l-0.2-0.3c0.1-0.1,0.3-0.3,0.6-0.4c0.2-0.1,0.4-0.2,0.6-0.3l1.1,1.9l0.5-0.1l0-0.1l-2-3.4l0.7-0.4l0-0.1l-0.4-0.3l-3.6,2l0,0.1
		L79.5,96.9z M75.6,99.2c0.3-0.4,0.5-0.7,0.8-0.8c0.3-0.1,0.6,0,0.7,0.2c0.1,0.2,0.1,0.4-0.1,0.7c-0.3,0.1-0.6,0.4-0.9,0.7l0,0
		l0.5,0.3c0.2-0.3,0.5-0.4,0.7-0.5c0.4-0.2,0.7,0,0.8,0.3c0.2,0.4-0.1,0.9-0.5,1.1c-0.6,0.2-1.3,0-2.1-0.7l-0.2,0.3l0,0
		c0.9,0.8,1.9,1.2,2.7,0.8c0.6-0.3,0.8-0.8,0.6-1.4c-0.1-0.1-0.1-0.3-0.2-0.4l0,0c0.2,0.1,0.5,0,0.7-0.1c0.1-0.1,0.2-0.1,0.3-0.2
		l0.7,1.5l0.5-0.1l0-0.1L79,97.3l0.7-0.3l0-0.1l-0.4-0.3l-2,0.9l0,0.1l0.4,0.3l0.8-0.3l0.7,1.5c-0.1,0.2-0.3,0.4-0.6,0.5
		c-0.2,0.1-0.4,0.1-0.6,0.1c-0.1,0-0.2-0.1-0.4-0.1c0.1-0.2,0.1-0.4,0-0.7c-0.1-0.3-0.3-0.5-0.6-0.6c-0.4-0.2-0.7-0.2-1.1,0
		c-0.3,0.1-0.6,0.4-0.8,0.8l0,0L75.6,99.2z M68.1,101.1l3.5-1l0.2,0.7c-0.5,0.2-0.9,0.4-1,0.7c-0.4-0.2-0.7-0.2-1.1-0.1
		c-0.6,0.2-0.9,0.7-0.7,1.4c0.2,0.8,1,1.4,2.1,1.7l0,0l0.2-0.6c-0.9-0.1-1.6-0.3-1.8-1c-0.1-0.4,0.1-0.9,0.6-1
		c0.2-0.1,0.4-0.1,0.5,0c-0.1,0.2-0.1,0.5-0.1,0.8l0.5,0.2l0,0c0-0.9,0.2-1.1,0.9-1.5l0.7,2.5l0.5,0l0-0.1l-1.1-3.8l0.8-0.2l0-0.1
		l-0.3-0.3l-4.8,1.3l0,0.1L68.1,101.1z M64.7,101.7c0.4-0.1,0.7,0.2,0.8,0.6c0.1,0.3,0,0.5-0.2,0.8c-0.6-0.1-1-0.3-1.1-0.7
		C64.1,102,64.3,101.7,64.7,101.7z M62.8,102l0.8-0.1c0,0.1,0,0.2,0,0.3c0.1,0.5,0.7,0.9,1.4,1.2c-0.1,0.1-0.2,0.2-0.4,0.3
		c-0.3-0.1-0.5-0.1-0.8-0.1c-0.3,0-0.4,0.2-0.4,0.3c0,0.1,0.1,0.2,0.2,0.3c0.2,0.2,0.4,0.3,0.5,0.3c0.2,0,0.4-0.1,0.5-0.2
		c0.5,0.6,1,1,1.7,1.3l0,0l0.1-0.6c-0.5-0.2-1.1-0.5-1.5-0.9c0.7-0.5,1-1.1,0.9-1.6c-0.1-0.3-0.2-0.6-0.6-0.9l1.2-0.2l0.7,3.8
		l0.5,0.1l0-0.1l-0.7-3.9l0.8-0.1l0-0.1l-0.3-0.4l-5.1,0.9l0,0.1L62.8,102z M60.4,101.1L60.4,101.1c0.4-0.1,0.6-0.3,0.9-0.3
		c0.4,0,0.8,0.3,1.3,0.8l-1,0l0,0l0.2,0.4l0.6,0l0.1,3.9l0.5,0.1l0,0l-0.1-4l0.8,0l0,0l-0.2-0.4l-0.7,0c-0.2-1-0.4-1.4-0.6-1.8
		c-0.3-0.4-0.5-0.6-1-0.6c-0.2,0-0.4,0-0.7,0.1l0.2,0.6l0,0c0.2,0,0.4-0.1,0.6-0.1c0.7,0,0.8,0.3,1,1.3l0,0c-0.6-0.5-1-0.7-1.4-0.7
		c-0.3,0-0.6,0.1-0.9,0.3L60.4,101.1z M59.2,104c-0.4,0.4-0.8,0.6-1.2,0.7c-0.4,0-0.6-0.2-0.6-0.5c0-0.5,0.5-0.9,1.1-0.9
		c0.2,0,0.5,0,0.7,0.1L59.2,104z M56.5,102.2l2.6-0.1l0,0.8c-0.3-0.1-0.7-0.1-1-0.1c-0.7,0-1.3,0.4-1.3,1.1c0,0.7,0.6,1.3,1.4,1.3
		c0.3,0,0.6-0.1,0.9-0.4l0,0l0,1.3l0.5,0.1l0,0l0-1.8c0.3-0.4,0.8-0.8,1.1-0.8c0.2,0,0.3,0.1,0.4,0.3c0,0.4-0.3,0.9-0.7,1.3l0.5,0.3
		l0,0c0.4-0.5,0.6-0.9,0.6-1.4c0-0.6-0.5-1.1-1-1.1c-0.3,0-0.6,0.2-0.9,0.4l0,0l0-1.3l2.3,0l0,0l-0.2-0.4l-5.4,0.1l0,0L56.5,102.2z
		 M51.6,101.9l1.6,0.1c0,0.2,0,0.4,0,0.5c0,0.3-0.1,0.5-0.2,0.6c-0.2,0-0.4-0.1-0.6-0.1c-0.2,0-0.4,0-0.4,0.1
		c-0.1,0.1-0.1,0.1-0.1,0.2c0,0.2,0.1,0.4,0.3,0.7c0.4,0.6,1,1.3,1.7,1.9l0.1,0l0.3-0.5c-0.7-0.4-1.3-0.9-1.6-1.4
		c0.6-0.2,1-0.7,1.1-1.4c0-0.2,0-0.5,0-0.7l1.1,0.1l0,0l-0.2-0.4l-3.2-0.2l0,0L51.6,101.9z M48.6,100.3L48.6,100.3
		c0.4-0.1,0.7-0.1,0.9-0.1c0.3,0.1,0.7,0.4,1.1,1.1l-2.9-0.7l0,0l0.1,0.5l0.8,0.2l-0.4,1.6c-0.2,0.1-0.5,0.1-0.8,0.1
		c-0.2-0.1-0.4-0.1-0.5-0.3c-0.1-0.1-0.1-0.2-0.2-0.3c0.2-0.1,0.3-0.3,0.4-0.5c0.1-0.3,0-0.6-0.1-0.9c-0.2-0.4-0.5-0.6-0.8-0.7
		c-0.3-0.1-0.7,0-1.1,0.2l0,0l0.2,0.6c0.5-0.2,0.8-0.2,1.1-0.2c0.3,0.1,0.5,0.3,0.4,0.6c-0.1,0.2-0.2,0.4-0.5,0.5
		c-0.3-0.1-0.7,0-1.2,0l0,0l0.2,0.6c0.4-0.1,0.6-0.1,0.8,0c0.4,0.1,0.6,0.4,0.5,0.7c-0.1,0.4-0.6,0.6-1,0.5c-0.6-0.1-1-0.7-1.3-1.8
		l-0.3,0.1l0,0c0.3,1.2,0.8,2.1,1.7,2.3c0.6,0.1,1.2-0.2,1.3-0.8c0-0.2,0.1-0.3,0-0.4l0,0c0.2,0.2,0.4,0.3,0.6,0.3
		c0.1,0,0.3,0,0.4,0l-0.4,1.6l0.4,0.2l0.1,0l0.9-3.9l1.2,0.3l-0.9,3.8l0.5,0.2l0.1,0l0.9-3.9l0.8,0.2l0,0l-0.1-0.5l-0.7-0.2
		c0-1,0-1.5-0.2-1.9c-0.2-0.4-0.4-0.7-0.8-0.8c-0.2,0-0.4-0.1-0.7-0.1l0,0.6l0,0c0.2,0,0.4,0,0.6,0.1c0.6,0.1,0.7,0.4,0.6,1.5l0,0
		c-0.5-0.6-0.8-0.9-1.2-1c-0.3-0.1-0.6,0-0.9,0.1L48.6,100.3z M38.8,98.4l2.6,1l-0.4,1.1c-0.4-0.2-0.8-0.4-1.2-0.6
		c-0.3-0.1-0.6-0.2-0.8-0.2c-0.2,0-0.4,0.1-0.4,0.2c-0.1,0.4,0.2,1.1,0.4,1.2c0.1,0,0.2,0,0.3,0c0,0,0.1-0.2,0.2-0.3l0.1-0.3
		c0.2,0,0.4,0.1,0.7,0.2c0.2,0.1,0.4,0.2,0.6,0.3L40,103l0.4,0.3l0.1,0l1.5-3.7l0.7,0.3l0,0l0-0.5l-3.8-1.5l0,0L38.8,98.4z
		 M37.4,97.8l-0.7,1.4c-0.1,0.3-0.3,0.4-0.6,0.4c-0.3,0-0.6,0-0.8-0.2c-0.6-0.3-0.6-0.9-0.5-1c0,0,0.1-0.1,0.2,0
		c0.6,0.1,0.9,0,1.1-0.4c0.1-0.2,0.1-0.5,0.1-0.8L37.4,97.8z M34.8,96.4l1,0.5c0.1,0.2,0.1,0.4,0,0.6c-0.2,0.3-0.6,0.3-1.3,0.2
		l-0.1,0c-0.1,0.9,0,1.8,0.8,2.2c0.3,0.2,0.6,0.2,1,0.2l-0.6,1.1l0.4,0.3l0.1,0l1.8-3.5l0.7,0.4l0.1,0l0-0.5l-3.8-1.9l-0.1,0
		L34.8,96.4z M33.4,95.7L32.6,97c-0.2,0.3-0.4,0.4-0.6,0.4c-0.3,0-0.6-0.1-0.8-0.2c-0.6-0.3-0.5-0.9-0.4-1.1c0,0,0.1-0.1,0.2,0
		c0.6,0.1,0.9,0.1,1.2-0.3c0.1-0.2,0.2-0.5,0.2-0.8L33.4,95.7z M30.3,94c0.1-0.7,0.2-1.1-0.4-1.4c-0.4-0.3-0.9-0.2-1.2,0.3
		c-0.2,0.4-0.2,0.9,0.1,1.5c-0.2,0.1-0.3,0.2-0.4,0.3c-0.1,0.2-0.2,0.5-0.1,0.9c0.1,0.5,0.4,0.8,0.7,1c0.4,0.3,0.9,0.3,1.4,0.1
		c0.1,0.4,0.3,0.8,0.7,1.1c0.3,0.2,0.6,0.3,0.9,0.3l-0.7,1l0.3,0.4l0.1,0l2.2-3.4l0.7,0.4l0.1,0l0.1-0.5l-3.8-2.4l-0.1,0l-0.1,0.5
		l1.2,0.7c0,0.2,0,0.4-0.1,0.6c-0.2,0.3-0.7,0.2-1.3,0l-0.1,0c-0.1,0.2-0.1,0.4-0.1,0.6c-0.6,0.2-1,0.1-1.4-0.1
		c-0.3-0.2-0.4-0.5-0.3-0.8c0.2-0.3,0.7-0.3,1.4,0l0,0l0-0.6c-0.5-0.2-0.8-0.3-0.8-0.3C29,94,28.8,93.7,29,93.4
		c0.2-0.3,0.5-0.4,0.8-0.2c0.3,0.2,0.3,0.4,0.2,0.8l0,0L30.3,94z M25.1,90c0.5,0.1,0.8,0.2,1.1,0.4c0.2,0.2,0.3,0.5,0.1,0.7
		c-0.2,0.2-0.4,0.2-0.7,0.2c-0.2-0.2-0.6-0.4-1-0.5l0,0l-0.1,0.6c0.3,0.1,0.6,0.2,0.8,0.4c0.3,0.3,0.3,0.6,0.1,0.9
		c-0.3,0.3-0.8,0.3-1.2,0c-0.5-0.4-0.6-1.1-0.3-2.2l-0.3-0.1l0,0c-0.3,1.2-0.3,2.2,0.4,2.8c0.5,0.4,1.1,0.4,1.5-0.1
		c0.1-0.1,0.2-0.2,0.2-0.4l0,0c0,0.2,0.2,0.4,0.4,0.6c0.1,0.1,0.2,0.2,0.3,0.2l-1.1,1.2l0.3,0.4l0.1,0l2.6-3l0.6,0.5l0.1,0l0.1-0.5
		l-1.6-1.4l-0.1,0l-0.1,0.5l0.6,0.5L26.8,93c-0.3,0-0.5-0.1-0.7-0.3c-0.2-0.2-0.3-0.3-0.3-0.5c0-0.1,0-0.2-0.1-0.4
		c0.2,0,0.4-0.1,0.6-0.3c0.2-0.2,0.3-0.5,0.3-0.8c0-0.4-0.1-0.8-0.4-1c-0.2-0.2-0.6-0.3-1.1-0.4l0,0L25.1,90z M22.2,86.5l0.4,0.5
		l-3.1,2.4l0.2,0.5l0.1,0l3.2-2.5l0.5,0.6l0.1,0l0.2-0.4l-0.4-0.5c1-1,0.9-2.4,0.1-3.3c-0.5-0.6-1.2-0.8-1.8-0.4
		c-0.2,0.1-0.3,0.3-0.4,0.5l0.1,0.5l0.1,0c0.1-0.2,0.1-0.3,0.4-0.5c0.3-0.3,0.9-0.3,1.5,0.4c0.6,0.8,0.4,1.6-0.3,2.4l-0.5-0.6
		l-0.1,0L22.2,86.5z M19.1,85.6c-0.6-0.1-1-0.2-1.2-0.5c-0.2-0.3-0.2-0.6,0.1-0.8c0.4-0.3,1-0.2,1.4,0.3c0.1,0.2,0.3,0.4,0.4,0.6
		L19.1,85.6z M19,82.5l1.6,2L20,85c-0.1-0.3-0.3-0.6-0.5-0.9c-0.4-0.6-1.1-0.8-1.6-0.4c-0.6,0.4-0.7,1.2-0.2,1.9
		c0.2,0.2,0.5,0.4,0.8,0.5l0,0l-1,0.8l0.2,0.5l0.1,0l1.5-1.1c0.6,0,1.1,0.1,1.3,0.4c0.1,0.2,0.1,0.4-0.1,0.5
		c-0.3,0.2-0.9,0.3-1.5,0.3l0,0.6l0,0c0.6,0,1.1-0.1,1.5-0.4c0.5-0.4,0.6-1,0.3-1.5c-0.2-0.3-0.5-0.4-0.9-0.5l0,0l1.1-0.8l1.4,1.8
		l0.1,0l0.2-0.4L19.3,82l-0.1,0L19,82.5z M17.7,80.4L18,81l-3.5,1.9l0.1,0.5l0.1,0l3.5-2l0.4,0.7l0.1,0l0.3-0.4l-0.3-0.5
		c0.9-0.7,1.2-1.8,0.8-2.5c-0.3-0.5-0.8-0.6-1.2-0.4c-0.2,0.1-0.4,0.4-0.5,0.7l0,0.5l0.1,0c0.1-0.3,0.3-0.5,0.5-0.6
		c0.3-0.2,0.6-0.1,0.8,0.3c0.3,0.5,0.1,1.1-0.8,1.7L18,80.1l-0.1,0L17.7,80.4z M15.7,77.1l1.4,2.4l-1.1,0.6
		c-0.2-0.4-0.4-0.8-0.6-1.2c-0.2-0.3-0.3-0.5-0.5-0.7c-0.2-0.1-0.4-0.2-0.5-0.1c-0.3,0.2-0.6,1-0.5,1.1c0.1,0.1,0.2,0.2,0.3,0.2
		c0.1,0,0.2-0.1,0.4-0.1l0.3-0.2c0.1,0.1,0.3,0.3,0.4,0.6c0.1,0.2,0.2,0.4,0.3,0.6l-2,1.1l0.1,0.5l0.1,0l3.5-2l0.4,0.7l0.1,0
		l0.3-0.4l-2-3.5l-0.1,0L15.7,77.1z M12.7,75.1c-0.6-0.2-0.9-0.5-1.1-0.8c-0.2-0.3-0.1-0.6,0.3-0.8c0.4-0.2,1,0.1,1.3,0.6
		c0.1,0.2,0.2,0.4,0.2,0.6L12.7,75.1z M13.4,72l1.1,2.4l-0.7,0.3c-0.1-0.3-0.2-0.7-0.3-1c-0.3-0.7-0.9-1-1.5-0.7
		c-0.6,0.3-1,1-0.6,1.8c0.1,0.3,0.3,0.5,0.7,0.7l0,0l-1.2,0.5l0.1,0.5l0.1,0l1.7-0.8c0.5,0.1,1,0.4,1.2,0.7c0.1,0.2,0,0.4-0.2,0.5
		c-0.4,0.2-0.9,0.1-1.5-0.1L12,77.3l0,0c0.6,0.1,1.1,0.2,1.5,0c0.5-0.2,0.8-0.8,0.6-1.4c-0.1-0.3-0.4-0.5-0.8-0.6l0,0l1.2-0.6l1,2.1
		l0.1,0l0.3-0.4l-2.2-4.9l-0.1,0L13.4,72z M12.2,68l0.8,2.7l-0.8,0.2c-0.1-0.3-0.1-0.6-0.2-0.9c-0.3-1.1-0.8-1.3-1.4-1.1
		c-0.7,0.2-1.3,0.8-1.8,1.8l0,0l0.6,0.2c0.2-0.9,0.6-1.5,1.1-1.6c0.4-0.1,0.8,0.1,1.1,1.1c0.1,0.2,0.1,0.4,0.2,0.7l-2.5,0.7l0,0.5
		l0.1,0l3.9-1.1l0.2,0.8l0.1,0l0.4-0.3l-1.1-3.9l-0.1,0L12.2,68z"/>
	<rect x="1.1" y="1.1" class="st8" width="112.1" height="109.9"/>
</g>
</svg>
